<svg xmlns="http://www.w3.org/2000/svg" viewBox="0 0 708 269"><defs><style>.cls-1{fill:#fff;stroke:#196a73;}.cls-1,.cls-2{stroke-miterlimit:10;stroke-width:6px;}.cls-2{fill:#227345;stroke:#fff;}</style></defs><g id="Layer_2" data-name="Layer 2"><path class="cls-1" d="M-2.79,170.66C-1,198-9,229-29,242c-52,36-116,13-175.68,15.36-7.44,0-14.89,0-22.35-.14-37.28-.55-74.6-2.52-111.61-3.8-5.67-.17-11.36-.27-17.05-.34-19-.2-38.11,0-57.25-.12q-7.19-.06-14.36-.21C-500,247-573,259-646,263c-18,1-48,9-53-14-4-15,6-28,8.28-43.47-1.09-6.71-2.89-13.38-4.15-20a85.89,85.89,0,0,1-1.52-19.59c.22-7,.54-14.06-1.31-21.17-.78-5.85-1.41-11.77-1.83-17.71-.25-6-.37-12.4-.89-19.25C-706,82-711,51-687,33c56-42,125-12,187.21-14.72q9.29.51,18.56.69c55.6,1.14,110.74-5.56,165.83-9.61Q-305.2,8.61-295,8c28.12,0,55.08,6.25,82.32,11.91,5.45,1.14,10.92,2.24,16.49,3.15A117.74,117.74,0,0,0-159,23c47-5,128-42,143,15a53.16,53.16,0,0,1,1.39,16A120.07,120.07,0,0,1-16.9,70.87C-23,97-26,126-11.9,150-7.78,158.8-4.73,165.52-2.79,170.66Z"/><path class="cls-2" d="M701,171.11c-.18,7.82-.68,15.41-1.5,22.4a100.58,100.58,0,0,1-4.36,20.17C689.93,249,656.33,268,622.72,262c-50.4-8-97.84-3-146.42-1.66-6.08.22-12.19.42-18.33.67-7,.14-13.92.21-20.83.22-88.89.14-177-9.86-264.73-5q-10.72.82-21.54,1.78c-28.84,2.51-57.7,5.39-86.56,7-17.79,1-47.44,9-52.38-14-2-7.5-.5-14.5,1.9-21.8,11-30.2,18.85-63.2,14.9-95.2C24.78,108-2.9,86,8.58,56.69a41,41,0,0,1,7.68-14.45C26.57,29.62,43.8,22.5,59.37,21,90,17,119.66,31,150.3,23c127.49-31,253-22,377,3.51A111.71,111.71,0,0,0,545.63,25c23.23-2.5,54.85-13,82.53-15.75,13.84-1.37,26.68-.81,37,3.47A37.13,37.13,0,0,1,677,19.46a36.09,36.09,0,0,1,8.26,10.13A44.47,44.47,0,0,1,690.92,51a98,98,0,0,0-1,17c4,22,3,43,3,65,0,5,2,9,2.75,14C697.83,157.13,699.73,165,701,171.11Z"/></g></svg>