<svg xmlns="http://www.w3.org/2000/svg" viewBox="0 0 708 269"><defs><style>.cls-1{fill:#fff;stroke:#196a73;stroke-miterlimit:10;stroke-width:6px;}</style></defs><g id="Layer_2" data-name="Layer 2"><path class="cls-1" d="M705.21,170.66C707,198,699,229,679,242c-52,36-116,13-175.68,15.36-7.44,0-14.89,0-22.35-.14-37.28-.55-74.6-2.52-111.61-3.8-5.67-.17-11.36-.27-17.05-.34-19-.2-38.11,0-57.25-.12q-7.19-.06-14.36-.21C208,247,135,259,62,263c-18,1-48,9-53-14-4-15,6-28,8.28-43.47-1.09-6.71-2.89-13.38-4.15-20a85.89,85.89,0,0,1-1.52-19.59c.22-7,.54-14.06-1.31-21.17-.78-5.85-1.41-11.77-1.83-17.71-.25-6-.37-12.4-.89-19.25C2,82-3,51,21,33,77-9,146,21,208.21,18.28q9.28.51,18.56.69c55.6,1.14,110.74-5.56,165.83-9.61Q402.8,8.61,413,8c28.13,0,55.08,6.25,82.32,11.91,5.45,1.14,10.92,2.24,16.49,3.15A117.74,117.74,0,0,0,549,23c47-5,128-42,143,15a53.16,53.16,0,0,1,1.39,16,120.07,120.07,0,0,1-2.29,16.84C685,97,682,126,696.1,150,700.22,158.8,703.27,165.52,705.21,170.66Z"/></g></svg>