<svg xmlns="http://www.w3.org/2000/svg" xmlns:xlink="http://www.w3.org/1999/xlink" viewBox="0 0 214 269"><defs><style>.cls-1{fill:#8f5902;}.cls-2{fill:#e9b96e;}.cls-3{fill:#eeeeec;}.cls-4{fill:#2e3436;}.cls-5{fill:url(#radial-gradient);}</style><radialGradient id="radial-gradient" cx="-12998.93" cy="36295.15" r="275.51" gradientTransform="matrix(0.28, 0, 0, -0.1, 3720.45, 3576.48)" gradientUnits="userSpaceOnUse"><stop offset="0" stop-color="#2e3436"/><stop offset="1" stop-color="#2e3436" stop-opacity="0"/></radialGradient></defs><g id="Layer_4" data-name="Layer 4"><g id="layer1"><g id="g6906"><path id="path5186" class="cls-1" d="M182.68,93.33c.18,48.56-31.36,88.1-70.45,88.32s-70.91-39-71.09-87.51v-.81C41,44.77,72.5,5.22,111.58,5s70.92,39,71.1,87.52Z"/><path id="path5697" class="cls-1" d="M158.52,15.05a38.55,38.55,0,0,0-21.23,6.41c-15.53,10.06-21.54,28.39-13.43,40.91s27.29,14.52,42.81,4.46,21.54-28.38,13.43-40.9C175.54,18.89,167.46,15.16,158.52,15.05ZM55.71,20.47c-8.94.11-17,3.81-21.56,10.85C26,43.84,32.06,62.17,47.58,72.23s34.69,8.07,42.8-4.45S92.47,36.93,77,26.88A38.42,38.42,0,0,0,55.71,20.47Zm52,83.68c-54.29,0-98.36,39.69-98.36,88.61s49.47,62.05,103.76,62.05,93-13.13,93-62.05S162,104.15,107.66,104.15Z"/><path id="path5704" class="cls-2" d="M109.81,62.53C86.54,62.53,67.68,82,67.68,106a44.14,44.14,0,0,0,10.9,29.2c-19.12,8.58-32,24.48-32,42.68,0,27.29,29,49.43,64.6,49.43s64.56-22.14,64.56-49.43c0-18.83-13.75-35.2-34-43.56A44.12,44.12,0,0,0,152,106C152,82,133.08,62.53,109.81,62.53Z"/><path id="path5709" class="cls-3" d="M98.3,105.58c.1,8.82-3.47,16.13-8,16.33s-8.25-6.78-8.35-15.59v-.74c-.11-8.81,3.47-16.12,8-16.33S98.2,96,98.3,104.85Z"/><path id="path5713" class="cls-4" d="M159.65,171.85c-7,20-27.12,34.43-50.91,34.43A55.16,55.16,0,0,1,67.86,188.6a51.37,51.37,0,0,0,42.23,21.46C134.59,210.06,155,193.64,159.65,171.85Z"/><path id="path5720" class="cls-4" d="M98.3,155.2a4,4,0,0,1-3.78,5.25,4.45,4.45,0,0,1-4.39-5v-.22A4.5,4.5,0,0,1,94.32,150a4,4,0,0,1,4,5Z"/><path id="path5722" class="cls-4" d="M120.07,154.12c1.69,2.84-.32,5.18-2.85,5.24s-4.64-2.18-5.31-5v-.22c.56-2.83,2.57-5.18,5.11-5.24s4.64,2.19,3,5Z"/><path id="path5724" class="cls-4" d="M92.86,112A4.13,4.13,0,0,1,89,117.27a4.35,4.35,0,0,1-4.3-5V112a4.4,4.4,0,0,1,4.11-5.24,4.07,4.07,0,0,1,4.06,5Z"/><path id="path5728" class="cls-5" d="M157.2,15.6a37.68,37.68,0,0,0-14.64,3.5c14.13,8.9,25.54,23.46,32.32,41.29,9.17-10.24,11.7-23.93,5.23-33.91-4.56-7-12.64-10.76-21.58-10.88ZM55.72,21c-8.94.12-17,3.82-21.56,10.86-7.24,11.17-3.23,27,8.75,37.38,5.16-18.57,15.18-34.33,28.13-45A37.19,37.19,0,0,0,55.72,21Z"/><path id="path2473" class="cls-3" d="M136.41,106.26c.1,8.81-3.47,16.12-8,16.33s-8.25-6.78-8.36-15.6v-.73c-.1-8.82,3.47-16.13,8-16.33s8.25,6.77,8.36,15.59Z"/><path id="path2475" class="cls-4" d="M131,112.71a3.79,3.79,0,0,1-3.52,5.24,4.78,4.78,0,0,1-4.64-5v-.22a4.83,4.83,0,0,1,4.44-5.24,3.73,3.73,0,0,1,3.72,5Z"/></g></g></g></svg>