<svg xmlns="http://www.w3.org/2000/svg" xmlns:xlink="http://www.w3.org/1999/xlink" viewBox="0 0 1920 1080"><defs><style>.cls-1{fill:#3d5a66;}.cls-2{fill:#0c3140;}.cls-3{font-size:436.03px;font-family:MyriadPro-Regular, Myriad Pro;}.cls-4{fill:none;}.cls-5,.cls-6{stroke-miterlimit:10;}.cls-5{fill:url(#linear-gradient);stroke:url(#linear-gradient-2);}.cls-6{fill:#a67c52;stroke:url(#linear-gradient-3);}</style><linearGradient id="linear-gradient" x1="960.5" y1="-2159.5" x2="960.5" y2="5400.5" gradientUnits="userSpaceOnUse"><stop offset="0" stop-color="#33d1e2"/><stop offset="0.27" stop-color="#f9f6d2"/><stop offset="0.35" stop-color="#cef2ce"/><stop offset="0.44" stop-color="#45775c"/><stop offset="0.57" stop-color="#10502d"/><stop offset="0.78" stop-color="#213329"/><stop offset="1" stop-color="#091d12"/></linearGradient><linearGradient id="linear-gradient-2" x1="960.5" y1="5401" x2="960.5" y2="-2160" gradientUnits="userSpaceOnUse"><stop offset="0" stop-color="#fff"/><stop offset="1"/></linearGradient><linearGradient id="linear-gradient-3" x1="960.5" y1="5162" x2="960.5" y2="-1633" xlink:href="#linear-gradient-2"/></defs><g id="Layer_1" data-name="Layer 1"><rect class="cls-1" x="0.5" y="0.5" width="1919" height="1079"/><path d="M1919,1V1079H1V1H1919m1-1H0V1080H1920V0Z"/><rect class="cls-2" x="0.5" y="1061.5" width="1919" height="1079"/><path d="M1919,1062V2140H1V1062H1919m1-1H0V2141H1920V1061Z"/><text class="cls-3" transform="translate(866 637.99) scale(0.84 1)">5</text></g><g id="Layer_2" data-name="Layer 2"><rect class="cls-4" x="1920" width="1920" height="1080"/></g><g id="Layer_3" data-name="Layer 3"><rect class="cls-5" x="0.5" y="-2159.5" width="1920" height="7560"/></g><g id="Layer_5" data-name="Layer 5"><polygon class="cls-6" points="1225.5 5161.5 695.5 5161.5 877.5 -1632.5 1099.5 -1632.5 1225.5 5161.5"/></g></svg>