<svg xmlns="http://www.w3.org/2000/svg" xmlns:xlink="http://www.w3.org/1999/xlink" viewBox="0 0 1920 1080"><defs><style>.cls-1{fill:#092530;}.cls-2{fill:#061920;}.cls-3{font-size:436.03px;fill:#fff;font-family:MyriadPro-Regular, Myriad Pro;}.cls-4,.cls-5{stroke-miterlimit:10;}.cls-4{fill:url(#linear-gradient);stroke:url(#linear-gradient-2);}.cls-5{fill:#a67c52;stroke:url(#linear-gradient-3);}</style><linearGradient id="linear-gradient" x1="960.5" y1="-4319.5" x2="960.5" y2="3240.5" gradientUnits="userSpaceOnUse"><stop offset="0" stop-color="#33d1e2"/><stop offset="0.27" stop-color="#f9f6d2"/><stop offset="0.35" stop-color="#cef2ce"/><stop offset="0.44" stop-color="#45775c"/><stop offset="0.57" stop-color="#10502d"/><stop offset="0.78" stop-color="#213329"/><stop offset="1" stop-color="#091d12"/></linearGradient><linearGradient id="linear-gradient-2" x1="960.5" y1="3241" x2="960.5" y2="-4320" gradientUnits="userSpaceOnUse"><stop offset="0" stop-color="#fff"/><stop offset="1"/></linearGradient><linearGradient id="linear-gradient-3" x1="960.5" y1="3002" x2="960.5" y2="-3793" xlink:href="#linear-gradient-2"/></defs><g id="Layer_1" data-name="Layer 1"><rect class="cls-1" x="0.5" y="-18.5" width="1919" height="1079"/><path d="M1919-18V1060H1V-18H1919m1-1H0V1061H1920V-19Z"/><rect class="cls-2" x="0.5" y="1061.5" width="1919" height="1079"/><path d="M1919,1062V2140H1V1062H1919m1-1H0V2141H1920V1061Z"/><text class="cls-3" transform="translate(866 637.99) scale(0.84 1)">3</text></g><g id="Layer_3" data-name="Layer 3"><rect class="cls-4" x="0.5" y="-4319.5" width="1920" height="7560"/></g><g id="Layer_5" data-name="Layer 5"><polygon class="cls-5" points="1225.5 3001.5 695.5 3001.5 877.5 -3792.5 1099.5 -3792.5 1225.5 3001.5"/></g></svg>