<svg xmlns="http://www.w3.org/2000/svg" viewBox="0 0 1920 1080"><defs><style>.cls-1{fill:none;}.cls-2{fill:#568c30;}</style></defs><g id="Layer_2" data-name="Layer 2"><rect class="cls-1" width="1920" height="1080"/><ellipse class="cls-2" cx="313.5" cy="480.5" rx="114" ry="151"/><path d="M313.5,330c30.26,0,58.73,15.62,80.17,44S427,440.25,427,480.5,415.16,558.58,393.67,587s-49.91,44-80.17,44-58.73-15.62-80.17-44S200,520.75,200,480.5,211.84,402.42,233.33,374s49.91-44,80.17-44m0-1C250.26,329,199,396.83,199,480.5S250.26,632,313.5,632,428,564.17,428,480.5,376.74,329,313.5,329Z"/></g></svg>