<svg xmlns="http://www.w3.org/2000/svg" viewBox="0 0 1920 1080"><defs><style>.cls-1{fill:none;}.cls-2{fill:#568c30;}</style></defs><g id="Layer_2" data-name="Layer 2"><rect class="cls-1" width="1920" height="1080"/><ellipse class="cls-2" cx="845.5" cy="777.5" rx="114" ry="151"/><path d="M845.5,627c30.26,0,58.73,15.62,80.17,44S959,737.25,959,777.5,947.16,855.58,925.67,884s-49.91,44-80.17,44-58.73-15.62-80.17-44S732,817.75,732,777.5,743.84,699.42,765.33,671s49.91-44,80.17-44m0-1C782.26,626,731,693.83,731,777.5S782.26,929,845.5,929,960,861.17,960,777.5,908.74,626,845.5,626Z"/></g></svg>