<svg xmlns="http://www.w3.org/2000/svg" viewBox="0 0 1920 1080"><defs><style>.cls-1{fill:none;}.cls-2{fill:#568c30;}</style></defs><g id="Layer_2" data-name="Layer 2"><rect class="cls-1" width="1920" height="1080"/><ellipse class="cls-2" cx="427.5" cy="632.5" rx="114" ry="151"/><path d="M427.5,482c30.26,0,58.73,15.62,80.17,44S541,592.25,541,632.5,529.16,710.58,507.67,739s-49.91,44-80.17,44-58.73-15.62-80.17-44S314,672.75,314,632.5,325.84,554.42,347.33,526s49.91-44,80.17-44m0-1C364.26,481,313,548.83,313,632.5S364.26,784,427.5,784,542,716.17,542,632.5,490.74,481,427.5,481Z"/></g></svg>