<svg xmlns="http://www.w3.org/2000/svg" viewBox="0 0 1920 1080"><defs><style>.cls-1{fill:none;}.cls-2{fill:#568c30;}</style></defs><g id="Layer_2" data-name="Layer 2"><rect class="cls-1" width="1920" height="1080"/><ellipse class="cls-2" cx="1118.5" cy="354.5" rx="114" ry="151"/><path d="M1118.5,204c30.26,0,58.73,15.62,80.17,44S1232,314.25,1232,354.5s-11.84,78.08-33.33,106.52-49.91,44-80.17,44-58.73-15.62-80.17-44S1005,394.75,1005,354.5s11.84-78.08,33.33-106.52,49.91-44,80.17-44m0-1c-63.24,0-114.5,67.83-114.5,151.5S1055.26,506,1118.5,506,1233,438.17,1233,354.5,1181.74,203,1118.5,203Z"/></g></svg>