<svg xmlns="http://www.w3.org/2000/svg" viewBox="0 0 1920 1080"><defs><style>.cls-1{fill:none;}.cls-2{fill:#568c30;}</style></defs><g id="Layer_2" data-name="Layer 2"><rect class="cls-1" width="1920" height="1080"/><ellipse class="cls-2" cx="959.5" cy="642.5" rx="114" ry="151"/><path d="M959.5,492c30.26,0,58.73,15.62,80.17,44S1073,602.25,1073,642.5s-11.84,78.08-33.33,106.52-49.91,44-80.17,44-58.73-15.62-80.17-44S846,682.75,846,642.5,857.84,564.42,879.33,536s49.91-44,80.17-44m0-1C896.26,491,845,558.83,845,642.5S896.26,794,959.5,794,1074,726.17,1074,642.5,1022.74,491,959.5,491Z"/></g></svg>