<svg xmlns="http://www.w3.org/2000/svg" viewBox="0 0 1920 1080"><defs><style>.cls-1{fill:none;}.cls-2{fill:#568c30;}</style></defs><g id="Layer_2" data-name="Layer 2"><rect class="cls-1" width="1920" height="1080"/><ellipse class="cls-2" cx="1233.5" cy="480.5" rx="114" ry="151"/><path d="M1233.5,330c30.26,0,58.73,15.62,80.17,44S1347,440.25,1347,480.5s-11.84,78.08-33.33,106.52-49.91,44-80.17,44-58.73-15.62-80.17-44S1120,520.75,1120,480.5s11.84-78.08,33.33-106.52,49.91-44,80.17-44m0-1c-63.24,0-114.5,67.83-114.5,151.5S1170.26,632,1233.5,632,1348,564.17,1348,480.5,1296.74,329,1233.5,329Z"/></g></svg>