<svg xmlns="http://www.w3.org/2000/svg" xmlns:xlink="http://www.w3.org/1999/xlink" viewBox="0 0 214 269"><defs><style>.cls-1{fill:#8f5902;}.cls-2{fill:#e9b96e;}.cls-3{fill:#eeeeec;}.cls-4{fill:#2e3436;}.cls-5{fill:url(#radial-gradient);}</style><radialGradient id="radial-gradient" cx="-12445.44" cy="36279.74" r="275.51" gradientTransform="matrix(0.28, 0, 0, -0.1, 3565.93, 3576.48)" gradientUnits="userSpaceOnUse"><stop offset="0" stop-color="#2e3436"/><stop offset="1" stop-color="#2e3436" stop-opacity="0"/></radialGradient></defs><g id="Layer_4" data-name="Layer 4"><g id="layer1"><g id="g6906"><path id="path5186" class="cls-1" d="M182,94.83c.18,48.56-31.36,88.1-70.45,88.32s-70.91-39-71.09-87.51v-.81C40.3,46.27,71.84,6.72,110.92,6.5S181.84,45.46,182,94Z"/><path id="path5697" class="cls-1" d="M157.86,16.55A38.53,38.53,0,0,0,136.63,23C121.1,33,115.09,51.35,123.2,63.87S150.49,78.39,166,68.33,187.55,40,179.44,27.43C174.88,20.39,166.8,16.66,157.86,16.55ZM55.05,22c-8.94.11-17,3.81-21.56,10.85C25.38,45.34,31.4,63.67,46.92,73.73s34.69,8.07,42.8-4.45,2.09-30.85-13.43-40.9A38.42,38.42,0,0,0,55.05,22Zm52,83.68c-54.29,0-98.36,39.69-98.36,88.61s49.47,62.05,103.76,62.05,93-13.13,93-62.05S161.29,105.65,107,105.65Z"/><path id="path5704" class="cls-2" d="M109.15,64C85.88,64,67,83.52,67,107.54a44.14,44.14,0,0,0,10.9,29.2c-19.12,8.58-32,24.48-32,42.68,0,27.29,28.94,49.43,64.6,49.43s64.56-22.14,64.56-49.43c0-18.83-13.75-35.2-34-43.56a44.07,44.07,0,0,0,10.2-28.32C151.31,83.52,132.42,64,109.15,64Z"/><path id="path5709" class="cls-3" d="M97.64,107.08c.1,8.82-3.47,16.13-8,16.33s-8.25-6.78-8.35-15.59v-.74c-.11-8.81,3.47-16.12,8-16.33s8.25,6.78,8.35,15.6Z"/><path id="path5713" class="cls-4" d="M64.79,204.19c10-18.64,32.14-29.79,55.64-26.09a55.16,55.16,0,0,1,37.63,23.83,51.35,51.35,0,0,0-38.37-27.77C95.49,170.35,72.74,183.39,64.79,204.19Z"/><path id="path5720" class="cls-4" d="M97.64,156.7A4,4,0,0,1,93.86,162a4.45,4.45,0,0,1-4.39-5v-.22a4.5,4.5,0,0,1,4.19-5.24,4,4,0,0,1,4,5Z"/><path id="path5722" class="cls-4" d="M119.41,155.62c1.69,2.84-.32,5.18-2.85,5.24s-4.64-2.18-5.31-5v-.22c.56-2.83,2.57-5.18,5.11-5.24s4.64,2.19,3,5Z"/><path id="path5724" class="cls-4" d="M92.2,113.53a4.13,4.13,0,0,1-3.87,5.24,4.35,4.35,0,0,1-4.3-5v-.22a4.4,4.4,0,0,1,4.11-5.24,4.07,4.07,0,0,1,4.06,5Z"/><path id="path5728" class="cls-5" d="M156.54,17.1a37.68,37.68,0,0,0-14.64,3.5c14.13,8.9,25.54,23.46,32.32,41.29C183.39,51.65,185.92,38,179.45,28c-4.56-7-12.64-10.76-21.58-10.88C157.43,17.1,157,17.09,156.54,17.1ZM55.06,22.51c-8.94.12-17,3.82-21.56,10.86-7.24,11.17-3.23,27,8.75,37.38,5.16-18.57,15.18-34.33,28.13-45A37.19,37.19,0,0,0,55.06,22.51Z"/><path id="path2473" class="cls-3" d="M135.75,107.76c.1,8.81-3.47,16.12-8,16.33s-8.25-6.78-8.36-15.6v-.73c-.1-8.82,3.47-16.13,8-16.33s8.25,6.77,8.36,15.59Z"/><path id="path2475" class="cls-4" d="M130.3,114.21a3.79,3.79,0,0,1-3.52,5.24,4.78,4.78,0,0,1-4.64-5v-.22a4.83,4.83,0,0,1,4.44-5.24,3.73,3.73,0,0,1,3.72,5Z"/></g></g></g></svg>