<svg id="Layer_1" data-name="Layer 1" xmlns="http://www.w3.org/2000/svg" viewBox="0 0 187.84 136.13"><defs><style>.cls-1{fill:#196a73;}.cls-2{fill:#3f8c76;}</style></defs><path class="cls-1" d="M8.41,31.83c-.23.24-.24.29-.59,6-.15,2.3-.39,6-.53,8.29S7,51.35,6.91,52.78s-.16,3.28-.21,4.1-.2,3.09-.32,5-.24,4-.28,4.53a8.78,8.78,0,0,0,.06,1.8,20.28,20.28,0,0,0,1.19,3.85,39.06,39.06,0,0,0,4.07,5.81,9.92,9.92,0,0,1,2.42,4.25c.23.8.25,1,.24,4,0,3.29-.08,5.28-.52,15.36-.15,3.25-.31,7-.37,8.4s-.19,4-.27,6-.2,5.13-.27,7.18c-.1,3.71-.18,5.46-.47,12.12-.34,7.45-.79,18.27-.85,20.3,0,1.17-.11,2.82-.18,3.66a10.05,10.05,0,0,0,1,5.78,4.62,4.62,0,0,0,2.19,2.27,2.76,2.76,0,0,0,1.82.4,3.32,3.32,0,0,0,2.57-.91,8.9,8.9,0,0,0,2.48-5c.06-.41-.24-9.83-.57-17.32-.26-5.69-.64-16.42-.75-20.46-.06-2.43-.2-7-.32-10.05s-.25-7.26-.32-9.25-.18-5.29-.26-7.33-.24-6.09-.33-9L18.47,83,18.73,82a10.79,10.79,0,0,1,1.92-3.87A76,76,0,0,0,25,71.59a11.8,11.8,0,0,0,.92-7c-.12-1.24-.26-3-.33-4s-.16-2.5-.22-3.4c-.12-1.91-.87-10.71-1.11-13-.08-.85-.2-2.48-.26-3.61-.15-3-.58-8.34-.69-8.63a.94.94,0,0,0-.91-.36.92.92,0,0,0-.36.3c-.16.26-.17.54-.43,12.73-.29,13.64-.27,13-.49,13.19a1.09,1.09,0,0,1-1.1.09c-.19-.06-.27-.2-.32-.44s-.1-2.48-.17-5.08c-.11-4.8-.23-9.32-.42-16.43L19,32.11l-.27-.24a.72.72,0,0,0-1,0c-.24.19-.26.29-.33,2.1-.1,2.52-.27,9.1-.42,16-.05,3.08-.14,6.14-.18,6.81l-.07,1.21-.34.09c-.42.13-.84,0-.93-.2s-.2-3-.49-10.56c-.11-3.13-.25-6.91-.32-8.4s-.12-3.61-.17-4.72c-.06-1.92-.07-2-.32-2.26a.92.92,0,0,0-1.21,0c-.21.22-.21.35-.21,13,0,12.09,0,12.76-.19,13a1.6,1.6,0,0,1-1.5.21c-.44-.18-.51-.5-.58-2.39-.05-.88-.14-3.34-.23-5.47-.38-9.43-.48-12.05-.48-13.34,0-.77,0-2.15-.07-3.08-.05-1.44-.1-1.72-.27-1.89A.81.81,0,0,0,8.41,31.83Z" transform="translate(-6.08 -31.5)"/><path class="cls-1" d="M188.11,32.85c-1.37.64-2.79,2.52-4,5.27a53.8,53.8,0,0,0-2.85,10.09c-.24,1.32-.54,3-.68,3.79-.74,4-.93,6.36-1.33,17-.06,1.62-.13,5.57-.14,8.77a70.72,70.72,0,0,0,.28,9,77.83,77.83,0,0,0,1.93,12.71,74.56,74.56,0,0,1,1.75,11.2,111.13,111.13,0,0,1,0,16.37c-.12,2.11-.24,4.59-.28,5.53-.15,4-.29,6.53-.58,10.63-.81,11.35-1.23,18.05-1.23,19.88a3.14,3.14,0,0,0,1.06,2.8,7.19,7.19,0,0,0,4.9,1.68c2.73.13,4.58-.37,5.85-1.57a3.41,3.41,0,0,0,1.09-2.38c0-.71-.13-3.08-.46-6.27-.09-.82-.23-2.33-.32-3.35s-.29-2.91-.42-4.2-.34-3.51-.43-4.94-.33-4.6-.53-7a218.08,218.08,0,0,1-1.09-24.39,137.33,137.33,0,0,1,.56-13.88c.15-1.55.28-3.12.32-3.5.11-1.46.58-12,.69-15.53.06-2.08.21-5.7.33-8.07.26-5.33.37-9,.52-17.75.18-10.75.18-16.06,0-17.06a9.24,9.24,0,0,0-1.43-4.15A3.23,3.23,0,0,0,188.11,32.85Z" transform="translate(-6.08 -31.5)"/><circle class="cls-1" cx="96.8" cy="66.84" r="66.84"/><circle class="cls-2" cx="96.8" cy="66.84" r="47.25"/></svg>