<svg id="Layer_1" data-name="Layer 1" xmlns="http://www.w3.org/2000/svg" viewBox="0 0 200 200"><defs><style>.cls-1{fill:#196a73;}</style></defs><polygon class="cls-1" points="134.69 62.19 134.84 63.34 133.11 63.71 132.88 66.17 134.96 66.17 137.72 65.91 139.14 64.21 137.63 63.62 136.79 62.66 135.54 60.64 134.96 57.79 132.6 58.26 131.95 59.27 131.95 60.4 133.08 61.18 134.69 62.19"/><polygon class="cls-1" points="132.63 63.21 132.75 61.67 131.38 61.08 129.45 61.52 128.02 63.81 128.02 65.3 129.69 65.3 132.63 63.21"/><path class="cls-1" d="M93,69.67,92.55,71H90.43v.87h.5l.07.53,1.27-.1.79-.5.21-1,1-.09.4-.84-1-.19Z"/><polygon class="cls-1" points="87.68 71.66 87.6 72.69 89.09 72.57 89.25 71.53 88.35 70.82 87.68 71.66"/><path class="cls-1" d="M176.89,104.71q0-3.42-.35-6.78a77.55,77.55,0,0,0-5.17-21.23c-.19-.49-.38-1-.59-1.49a78,78,0,0,0-14.62-22.6c-.4-.44-.81-.86-1.21-1.28-1.16-1.19-2.33-2.36-3.57-3.48a77.82,77.82,0,0,0-105.26.33,79.06,79.06,0,0,0-8.92,9.73,78,78,0,1,0,131.16,83,77.22,77.22,0,0,0,6.37-17.18q.56-2.28,1-4.62a77.66,77.66,0,0,0,1.22-13.64C176.9,105.24,176.89,105,176.89,104.71ZM162.54,73.54l.12-.51q.89,1.73,1.68,3.51l-.75,0-1.49.19V73.6h.44ZM150.74,60V56.56q1.84,1.95,3.54,4l-1.4,2.09-4.92,0-.3-1ZM57.22,51.32v-.44h1.2l.14-.44h2.59v1.17l-.77,1h-3.6V51.32h.44Zm2.14,3.43s1.56-.26,1.7-.26,0,1.56,0,1.56l-3.54.22-.67-.8ZM167.19,85.84h-5.82l-3.48-2.68-3.65.37v2.31h-1.16l-1.24-.92-6.34-1.66V79l-8,.65L135,81h-3.43L130,80.88,126.27,83v4l-7.69,5.63.64,2.41h1.56l-.41,2.29-1.09.41-.06,6.7,6.32,7.2h2.76l.16-.43h6.13l1.42-1.31h3.61l1.59,1.66,4.34.47-.57,6,4.82,8.86-2.54,5,.17,2.37,2,2.08v5.72l2.62,3.67v4.76h2.37s-33.14,26.57-55.51,26.57a71.65,71.65,0,0,1-71.58-71.58,68.74,68.74,0,0,1,5.86-28V75.27l2.41-3.1c.89-1.68,1.85-3.32,2.86-4.91l.11,1.3-3,3.61a37.46,37.46,0,0,0-2.42,5.34v4.07L36.24,83v5.85l2.86,4.87,2.32.35.3-1.66L39,88.19l-.54-4.1h1.6l.68,4.23,4,5.76-1,1.87,2.5,3.84,6.24,1.55v-1.21l2.28.36-.23,1.78,2,.36,3,.82,4.29,4.89,5.46.41.54,4.46L66,115.82l-.17,4-.54,2.44L70.7,129l.41,2.33s2,.53,2.21.53S77.71,135,77.76,135v12.25l1.44.42-1,5.65,2.5,3.34-.47,5.6,3.31,5.8,4.23,3.7,4.26.09.41-1.38-3.13-2.63.19-1.31L90,165l.12-1.63-2.11-.06L87,161.92l1.76-1.7L89,159l-2-.57.11-1.19,2.8-.42,4.25-2,1.43-2.63,4.46-5.71-1-4.46,1.37-2.38,4.1.12,2.77-2.19.89-8.61,3.08-3.87.54-2.5-2.79-.89-1.85-3h-6.3l-5-2L95.63,113,94,109.88l-4.58-.07-2.61-4.08-2.31-1.13-.12,1.25-4.21.24L78.59,104l-4.39-.89-3.61,4.18-5.69-1-.42-6.41-4.15-.72L62,96l-.47-1.81-5.46,3.65-3.43-.42L51.4,94.74,52.16,92l1.89-3.49,4.35-2.2h8.44l0,2.56,3,1.41-.24-4.38,2.17-2.2,4.37-2.89.31-2,4.36-4.57,4.64-2.59L85,71.26l3.14-3,1.15.31.53.66L91,67.92l.29-.13L90,67.6l-1.33-.43V65.88l.7-.58H91l.72.3.61,1.2.76-.11v-.1l.21.07,2.18-.33.3-1,1.24.3v1.12l-1.15.76H96l.17,1.25,4,1.2v0l.92-.07.06-1.68L98,66.81l-.17-.8,2.62-.87.12-2.44-2.74-1.63-.18-4.13-3.77,1.8H92.51l.37-3.14-5.14-1.17L85.63,56v4.75l-3.81,1.17L80.29,65l-1.66.25V61.44l-3.58-.5-1.8-1.16-.72-2.63L79,53.42l3.14-1,.31,2.1,1.76-.1.13-1,1.83-.26,0-.37-.78-.32-.18-1.12,2.25-.18,1.36-1.41.08-.1h0l.42-.42L94,48.65l2.09,1.76-5.48,2.9,7,1.64.89-2.32h3.06l1.07-2-2.15-.53V47.58L94,44.69l-4.51.52-2.54,1.33.17,3.24-2.66-.41L84,47.58l2.54-2.31L82,45.05l-1.33.4L80.05,47l1.73.29L81.44,49l-3,.18L78,50.36l-4.27.12a11.13,11.13,0,0,0-.3-2.42L76.81,48l2.54-2.48L78,44.82l-1.84,1.79-3.06-.17-1.87-2.55H67.27l-4.1,3h2.75l.36,1.19-1,1,4.47.13.68,1.61-5-.19-.25-1.24-3.16-.68-1.69-.93-3.26,0A71.18,71.18,0,0,1,146,52l-.84,1.52-3.29,1.29-1.39,1.51.32,1.75,1.7.24,1,2.55,2.92-1.18.49,3.42h-.77l-2.41-.35-2.67.44-2.58,3.66-3.69.57-.53,3.16,1.56.37-.46,2-3.67-.74-3.36.74-.71,1.87.58,3.93,2,.92,3.28,0,2.24-.2.7-1.79L140,73.13l2.31.48,2.28-2.06.42,1.61,5.61,3.78-.68.93-2.53-.14,1,1.38,1.56.35,1.82-.77,0-2.19.82-.41-.65-.69-3.75-2.09-1-2.77h3.15l1,1,2.65,2.27.11,2.75,2.74,2.91,1-4,1.9-1,.35,3.26,1.85,2,3.77-.06c.75,1.9,1.41,3.83,2,5.81ZM63.46,63l1.87-.9,1.7.41-.58,2.28-1.83.57Zm9.93,5.4v1.31h-4l-1.51-.42.37-1,1.94-.8H73v.88h.44Zm2.19,2.18V72l-1.18.69L73,72.91V70.54Zm-1.32-.75V68.08l1.47,1.35Zm.44,3.58v1.39l-1,1H71.4l.35-1.56,1.08-.1.22-.53Zm-5.53-2.83h2.37l-3,4.24-1.25-.67.27-1.78Zm9.9,2.12V74h-2.4l-.66-.9V71.85h.19Zm-2.31-1.84.64-.68,1.1.68-.88.73Zm91.57,18.5.23-.26c.1.4.19.81.28,1.22Z"/><path class="cls-1" d="M33.19,75.27V77.5c.77-1.82,1.63-3.6,2.55-5.34Z"/></svg>