<svg id="Layer_1" data-name="Layer 1" xmlns="http://www.w3.org/2000/svg" viewBox="0 0 200 200"><defs><style>.cls-1{fill:#fff;}.cls-2{fill:#196a73;}</style></defs><path class="cls-1" d="M115.2,189.84c-20.72,0-42.1-7.12-60.19-20.05-34.44-24.73-65-68.35-37.59-109.93l.16-.25.11-.27a61.67,61.67,0,0,1,4.17-8.42c12.25-20.46,35.49-29.39,58.78-36,2.79-.79,5.77-1.6,9.64-2.63A173.29,173.29,0,0,1,117,10.16c27.19,0,61.32,7.07,69.54,40.75l0,.13,0,.13c1.06,3.09,2,6.4,2.89,9.84a172.84,172.84,0,0,1,4.69,39.64c0,2.66-.11,5.14-.28,7.55l0,.19v.19a74.11,74.11,0,0,1-10.7,43,75.59,75.59,0,0,1-4.94,7.14C163.38,178.79,141,189.84,115.2,189.84Z"/><path class="cls-2" d="M117,7.16v6c26.12,0,58.87,6.68,66.62,38.46l.07.27.09.26c1,3,2,6.23,2.8,9.58a168.94,168.94,0,0,1,4.61,38.9c0,2.62-.11,5-.28,7.35l0,.38,0,.39A71.19,71.19,0,0,1,180.61,150a73.2,73.2,0,0,1-4.74,6.85l-.05.06,0,.07c-14.23,19.27-35.74,29.89-60.57,29.89-20.1,0-40.86-6.92-58.44-19.48-19.44-14-34.2-31.26-41.56-48.72-8.52-20.2-6.93-39.42,4.73-57.13l.32-.5.22-.55a60.16,60.16,0,0,1,4-8c11.72-19.56,34.33-28.21,57-34.63,3.42-1,6.81-1.88,9.44-2.58A170.31,170.31,0,0,1,117,13.16v-6m0,0A177.89,177.89,0,0,0,89.66,9.37c-3.23.86-6.52,1.75-9.84,2.68C56.6,18.63,32.21,27.8,19.28,49.38a64.21,64.21,0,0,0-4.37,8.83c-27.75,42.17,1,87.2,38.35,114,18.57,13.26,40.59,20.61,61.94,20.61,24.93,0,48.93-10,65.4-32.33a78.9,78.9,0,0,0,5.13-7.42,76.66,76.66,0,0,0,11.14-44.68c.19-2.59.28-5.18.29-7.77a175.5,175.5,0,0,0-4.78-40.35q-1.27-5.15-3-10.09c-8.18-33.54-41.11-43-72.45-43Z"/><path class="cls-2" d="M160.32,74.89c1.69.86,3.38,1.7,5.06,2.57a1.65,1.65,0,0,1,0,2.69c-1.39.93-2.81,1.79-4.57,2.91,1.39.24,2.62.5,3.86.65,1.91.23,2.16.55,1.68,2.46.16.07.34.21.49.18,2.31-.34,3.59.91,3.06,3.21-.35,1.51-.64,3.83-1.62,4.24-1.68.72-1.53,2.21-2.33,2.92.76,2,1.44,3.84,2.19,5.81l-1.46.25c0,.29,0,.52.05.74,0,.67.07,1.35.1,2a6.42,6.42,0,0,1-1.8-.44c-1.56-.89-3.08-1.5-5.17,0,1.1,1.22,2.15,2.37,3.3,3.66a4.86,4.86,0,0,0-.56,1c-.84,2.19-.58,2.54,1.78,2.57.27,0,.76.15.78.28.24,2,2.1,1.55,3.5,2.37-1.18.7-.29,3.38-3.61,2.15a27.48,27.48,0,0,1,1.34,3.17,2.46,2.46,0,0,1-.16,1.69,30.55,30.55,0,0,1-1.93,2.91c-.19.28-.42.64-.71.74-1.45.49-2.93.91-4.51,1.38l1.36,2.69a8.26,8.26,0,0,0-2-.46,27.78,27.78,0,0,1-3.71.38,32.52,32.52,0,0,1-4.53-1c.79-1.39,1.26-2.49-.33-3.33-.4-.21-.6-.9-.76-1.42-.33-1.06-.7-1.47-1.52-.34-.19.26-.75.59-.84.52a24.42,24.42,0,0,1-2.28-2,4.34,4.34,0,0,1-1.2-2c-.63-.29-1.27-.57-1.9-.87s-1.27-.66-2.4-1.25l1,1.87-1.85-.75c-.64,1.07-4.9,3-6.09,2.59-3.67-1.38-7-.15-10.28,1.2a20.64,20.64,0,0,1-4.23,1.2c-2.75.47-4.32,2.65-6.23,4.25a20.41,20.41,0,0,0-3.15,4.2c-.15.2-.06.58-.09,1.12l3.53-1.85.47.62c-1.21,1.1-2.51,2.12-3.63,3.3-2.36,2.47-4.54,5-4.17,8.83.51,5.13.7,10.29,2.61,15.18.83,2.14.54,2.85-1.84,3.15a107.91,107.91,0,0,1-10.79.65,21.35,21.35,0,0,1-5.4-.6c-2.32-.56-2.86-2.32-1.21-4.2,2.36-2.69,3.19-5.94,3.78-9.27.2-1.07-.46-2.26-.54-3.42a31.66,31.66,0,0,1-.07-5.33,9.89,9.89,0,0,0-5.08-10.09,16.88,16.88,0,0,1-6.4-6.23c-1.7-3.11-4.49-2.69-7.19-2.79-1.31-.06-2.62-.08-3.93-.12v-.81l2.6-.18c-1.66-1.53-3.26-3.56-5-3.1-1.27.34-3.73-.38-4.28,2.06-.07.29-1,.37-1.58.57-1.21.45-2.5.85-1.51,2.59a1,1,0,0,1,.12.68c-.37,1.11-.78,2.21-1.15,3.27-.43,0-1-.07-1.58-.08-1.24,0-2.09-1.32-2.11-2.94a5.3,5.3,0,0,0-.7-1.74,12.78,12.78,0,0,0-1.29,1.48,11.47,11.47,0,0,0-.78,1.8c-2-1.51-2.13-2.77-.5-4.24A2.88,2.88,0,0,0,46.32,122l-3,.89-1.51-1.23-.48-3.36c-3.71-.25-3.79-3.27-5-5.38,1.81-1.46,3.59-2.74,6-2.91,1.55-.1,1.7-.64,1-2.33l-2.45,1.57V106.1l-1.66,1.16L37.46,106l2.77-3.11c-1.57-.23-3-.41-4.42-.66a.93.93,0,0,1-.63-.56c-.28-1-.39-2.08-.73-3.06a2.56,2.56,0,0,0-1.14-1.34c-2.92-1.47-2.94-1.44-1.17-3.71l5-1.23c-.09-.59-.24-1.28-.3-2,0-.38,0-.93.21-1.13a1.15,1.15,0,0,1,1.12,0c.87.77,2.58-.19,3,1.46L42.91,90,44.2,91l.44-2.3a8.94,8.94,0,0,1-7.85-5.06c.77-2,2.08-2.68,4.22-1.91.4.14,1.27-.42,1.57-.89.19-.28-.19-1.1-.53-1.5a20.58,20.58,0,0,1-2.33-2.56c-.43-.78-.29-1.88-.45-3.29l5.53.35.14-.31-1.92-1c.83-.86,1.54-1.67,2.35-2.36.17-.15.74,0,1.06.22a14.38,14.38,0,0,1,1.43,1c.37-.73,1-1.47,1-2.19a39.73,39.73,0,0,0-.71-5.06A3.66,3.66,0,0,1,48,62.9a1.49,1.49,0,0,1,.78-.89,1.18,1.18,0,0,1,.94.33,14.87,14.87,0,0,1,1.16,1.49c.2-.21.36-.31.41-.45.25-.7.48-1.42.72-2.13A20.52,20.52,0,0,0,53.4,62.9c.21.2.63.17,1,.25a19.67,19.67,0,0,0,.48-2.38c0-.23-.4-.5-.94-1.12a17,17,0,0,1,2.21,0,8.93,8.93,0,0,1,1.48.51c-.13-.73,0-1.88-.43-2.11-1.46-.82-1-1.7-.45-2.73s.78-2.5,2.63-1.45c.41.24,1.32-.4,2.25-.72l1.11.68L63.86,52l.6,3.37h5.82c0-1.72,0-2.94-1.92-3.41-.65-.16-1.11-1.13-1.69-1.77a34.47,34.47,0,0,0,3-2.61,2,2,0,0,0-.06-1.41c-1.49-.21-1.15-1.46-1.21-2.3,0-.3.92-.65,1.42-1,.3-.19.59-.4.86-.58,1.26.9,2.35,2.12,3.59-.06.22-.38,2.16-.37,2.71.12A8,8,0,0,0,82,44.77l2.24-6.25L87,36.86l.47,1.52.33-.46a35.16,35.16,0,0,1,3.06,2A3.78,3.78,0,0,0,96,39.79c.72-.74,1.13-1.63,2.31-.67.09.08.91-.53,1.2-.95a7.74,7.74,0,0,0,.7-1.67c.41.54.83,1.08,1.22,1.63a10,10,0,0,1,.5.93c.43-.32.85-.49,1-.8,1.13-1.84,2.09-1.78,3.5.11a4.61,4.61,0,0,0,2,1.51c1.29.45,1.52.21,2-1.33.28,0,.73-.06.85.1,1.5,2,3.65,1.18,5.56,1.36a21.59,21.59,0,0,0,3.19.23,9.75,9.75,0,0,0,2.38-1,20.19,20.19,0,0,1,1.35,3.83c.29,1.82,1.44,1.6,2.68,1.59,2.09,0,3-1.88,4.87-3,.22,1.07.49,2,.6,3,.19,1.68.84,2.78,2.73,2.77,1.11,0,1.75.35,1.35,1.71a3.8,3.8,0,0,0,.12,1.68c1.82,0,3.28,0,4.73,0,.17,0,.49.63.45.67a17.39,17.39,0,0,1-1.54,1.28c.19.22.38.62.7.79a13.4,13.4,0,0,1,2,1.67c1.24,1,3.17,1.25,4.83,1.72.16,0,.48-.62.77-.89a9.33,9.33,0,0,1,1-.69,3.56,3.56,0,0,1,.58,1.08c.26,2.16.38,4.35,2.86,5.38.2.08.15,1.4-.16,1.91-1.06,1.71-.79,2.89.8,4.17.76.61,1.11.81,1.74.13.83-.91,1.42-.52,2.13.22a1.68,1.68,0,0,0,1.39.36c1.24-.34,2.3-.32,2.91.48-.32,2.14-.59,4-.86,5.8a9.51,9.51,0,0,0-2.52-.23c-.47.07-.84.75-1.25,1.16.41.41.79,1.14,1.22,1.16A2.08,2.08,0,0,0,160.32,74.89Zm-81.55,40.2-.44.55c2.4,5.21,5.35,10,10.87,12.63-.19-3.73-2.15-6.37-4.74-8.68-1-.86-1.87-1.81-2.89-2.62C80.7,116.27,79.71,115.71,78.77,115.09Zm27.69-1.56-.68-.55c-1.39.38-2.81.68-4.16,1.17s-2.2,1.34-1.75,2.79a41.4,41.4,0,0,0,2,5.15c.56,1.21,1.39,1,1.78-.1C104.68,119.2,105.54,116.36,106.46,113.53Zm18.91,5c-2.31,0-4.46,0-6.6,0-.44,0-1.15-.06-1.27.16-.68,1.25-1.55.8-2.47.44-.28-.11-.76-.25-.89-.12-1.76,1.8-3.48,3.64-5.2,5.46a55.57,55.57,0,0,0,5.77-2.93c2.13-1.11,4.2-2.26,6.87-1.56A3.31,3.31,0,0,0,125.37,118.57Zm36.3.26c-1.21-1.3-2.22-2.56-4.21-2.53-1.08,0-2.18-.6-3.56-1l-.26,2C156.44,118,158.73,120,161.67,118.83Zm-74.46.68c-.3-1.26-.53-2.2-.76-3.14-.64-2.69-2-3.23-4.43-1.74C82.61,117.29,84.76,118.32,87.21,119.51ZM98.07,125c-2.47,3.23-2.5,4.39.18,7.12C99.79,129.75,99.31,127.45,98.07,125Zm-5.84-8.19.9,6.77C95.3,120.07,95,117.84,92.23,116.78Zm19-3.4-1.56,5.36.6.28,3.5-4.92ZM61.81,66.29l5.29,3.3C67.09,66.42,64.73,65.93,61.81,66.29Zm8.37,49.87c.7,2.42,3.21,3.54,6.09,2.74Zm81.42-3.28c-1.43.25-2.54.41-3.62.67a1,1,0,0,0-.61.73c0,.25.39.59.68.7C149.55,115.53,150.66,115,151.6,112.88ZM117,88.42c-1,.62-1.76,1.1-2.51,1.67a4.09,4.09,0,0,0-.69,1c.42.05.92.27,1.26.13.88-.37,1.7-.89,2.67-1.42Zm15.65,29.92-3.71,1.06,0,.33,3.67.92Zm11.9-48.43-.8,3.59,2.82-.85Zm4.71,35.21c1.19,1.4,2.17,1.32,4.14-.45Z"/></svg>