<svg id="Layer_1" data-name="Layer 1" xmlns="http://www.w3.org/2000/svg" viewBox="0 0 200 200"><defs><style>.cls-1{fill:#196a73;}</style></defs><path class="cls-1" d="M58.65,86.85a21.48,21.48,0,0,1,.53-10.95c.09.22.28.44.27.65-.07,1-.22,2.1-.28,3.16a19.2,19.2,0,0,0,7.3,16.67C68.65,98.19,71.32,99,74,100c2.28.79,4.58,1.56,6.78,2.54a17.67,17.67,0,0,1,7.67,6.73c1.57,2.4,3,4.88,4.54,7.31.44.7,1,1.34,1.49,2l.33,0a5.5,5.5,0,0,0,.4-1.27c.12-2.18.25-4.35.27-6.53A40.06,40.06,0,0,1,97.26,100,65,65,0,0,0,99,70.66a24.78,24.78,0,0,0-5-11.13,42.71,42.71,0,0,0-10.08-9.31,18.18,18.18,0,0,0-14.16-3.09,1.92,1.92,0,0,0-.21-.45c-.57-.65-.22-.91.43-1,2.25-.19,4.51-.36,6.76-.54l.72-.08a8.07,8.07,0,0,1-1.11-4.64l.23-.09c.1.23.2.46.29.7.5,1.28,1,2.58,1.52,3.83a1.61,1.61,0,0,0,1,.73,23.93,23.93,0,0,1,8.62,4.69c1.56,1.24,3.09,2.52,4.65,3.76a6.41,6.41,0,0,0,1,.65c1.36.75,2.19.37,2.08-1.19a65.67,65.67,0,0,0-1-7.53c-.83-4.42-2-8.79-2.65-13.23-.53-3.42-.53-6.91-.77-10.45h2c.07.83.15,1.67.19,2.5A85.64,85.64,0,0,0,97,44.2c.54,1.89,1,3.8,1.44,5.71a50.37,50.37,0,0,0,4,11.05,33.82,33.82,0,0,1,3.38,13.9c.18,4,.32,7.91.56,11.87a14.43,14.43,0,0,0,.64,3.37c.36,1.2,1.2,1.48,2.14.67a15.57,15.57,0,0,0,2.83-3,55.11,55.11,0,0,0,9.23-22.55c.48-3,.93-3-1.57-5.22A9.3,9.3,0,0,1,117,54.74a4.5,4.5,0,0,1-.07-.63,2.83,2.83,0,0,1,.17-.47c.2.43.36.67.45.94a11,11,0,0,0,3.42,5c.21.17.63.42.75.34a1.38,1.38,0,0,0,.45-.81c.27-1.3.46-2.62.76-3.91A16.09,16.09,0,0,1,128,46.56c1.07-.94,2.09-1.93,3.12-2.91a7.51,7.51,0,0,0,2.17-8c-.68-2.28-1.65-4.47-2.5-6.69-.14-.36-.31-.71-.54-1.22l2-.14a32.06,32.06,0,0,1,3.53,9.67c1.85-1.93,3.84-3.13,6.45-2.85l-.89.24a7.18,7.18,0,0,0-5.53,6.22A6.53,6.53,0,0,1,134,44.63c-.94,1-1.93,1.92-2.89,2.88A14.67,14.67,0,0,0,127.2,54a14.27,14.27,0,0,0-.25,1.43l.27.15a7.78,7.78,0,0,0,1.1-.84c3.37-3.78,7.6-4.63,12.39-3.72,1.66.32,3.36.44,5,.76a3.77,3.77,0,0,0,4-1.73,3,3,0,0,1,.56-.68,3.89,3.89,0,0,1-1.85,2.81l3.4.66-.1,2.16c-2.22-.39-4.29-.78-6.37-1.09a34.36,34.36,0,0,0-9.39-.51,6.26,6.26,0,0,0-5.46,3.92c-1.1,2.83-2,5.76-2.82,8.69-.89,3.19-1.6,6.44-2.36,9.68-.08.37-.12,1,.08,1.14a1.51,1.51,0,0,0,1.22,0A27.59,27.59,0,0,1,142.32,76c.47.11.93.21.57.77-1.88-.14-3.71-.39-5.54-.39a22.11,22.11,0,0,0-12.76,4,3.47,3.47,0,0,0-1.25,1.39c-2,5-5.14,9.28-8.22,13.63a88.67,88.67,0,0,0-5.78,8.87c-3.47,6.38-4.32,13.35-3.73,20.49.26,3.13.8,6.23,1.31,9.33a7.16,7.16,0,0,0,1,1.88,8.09,8.09,0,0,1,1.1,2.2,32.54,32.54,0,0,1,.48,5.3,6.37,6.37,0,0,1-.85,2.12,3.58,3.58,0,0,0-.44,1.14c-.09,4.11-.17,8.23-.18,12.34A33.39,33.39,0,0,0,111.49,174c.22.43.4.88.64,1.39a12.55,12.55,0,0,1-5,1.69,24.31,24.31,0,0,1-3.72,0,24.51,24.51,0,0,0-7.3.45,13.57,13.57,0,0,1-7.15-.77c.11-.35.22-.68.31-1,1.3-4.49,2.77-8.94,3.86-13.49a34.54,34.54,0,0,0-.46-16.26c-1.86-7.72-3.7-15.45-5.63-23.15a33.46,33.46,0,0,0-1.82-5c-2-4.73-5.68-7.36-10.71-8.23a59.79,59.79,0,0,0-14-.25c-1.09.06-2.17.15-3.23.22L56.59,106a49.15,49.15,0,0,1,9.26-1c3.1,0,6.19.19,9.36.08-.34-.21-.67-.45-1-.62-2.28-1.1-4.6-2.15-6.86-3.3a15.16,15.16,0,0,1-7.55-7.9c-2.14-5.43-6-9.29-10.7-12.43-.3-.2-.58-.42-.89-.65.39-.54.74-.52,1.25-.22A33.93,33.93,0,0,1,58,86.62a2.22,2.22,0,0,0,.33.28Z"/></svg>