<svg id="Layer_1" data-name="Layer 1" xmlns="http://www.w3.org/2000/svg" viewBox="0 0 200 200"><defs><style>.cls-1{fill:#196a73;}.cls-2{fill:#0c3140;}</style></defs><path class="cls-1" d="M161.29,71.89c1.9,1,3.8,1.89,5.68,2.87a1.86,1.86,0,0,1,0,3c-1.55,1-3.15,2-5.12,3.26,1.56.26,2.93.56,4.33.73,2.13.25,2.41.61,1.88,2.76.18.07.38.22.55.2,2.58-.39,4,1,3.42,3.59-.39,1.7-.72,4.28-1.82,4.75-1.87.81-1.71,2.47-2.6,3.27.84,2.25,1.62,4.3,2.44,6.5l-1.63.29c0,.32,0,.57.06.82,0,.76.07,1.51.11,2.26a7.13,7.13,0,0,1-2-.48c-1.75-1-3.45-1.68-5.79,0l3.7,4.09a5.71,5.71,0,0,0-.63,1.07c-.94,2.45-.65,2.84,2,2.87.31,0,.87.18.88.32.27,2.23,2.35,1.74,3.93,2.66-1.32.78-.33,3.78-4.05,2.4a31.44,31.44,0,0,1,1.5,3.55,2.79,2.79,0,0,1-.18,1.89,31.71,31.71,0,0,1-2.16,3.26c-.22.32-.47.72-.8.83-1.62.55-3.28,1-5.05,1.55l1.52,3a9,9,0,0,0-2.21-.51,31.22,31.22,0,0,1-4.16.43A36.91,36.91,0,0,1,150,132.1c.89-1.55,1.42-2.78-.37-3.72-.44-.24-.67-1-.85-1.59-.37-1.19-.78-1.65-1.7-.39-.21.29-.84.67-.94.59a25.11,25.11,0,0,1-2.55-2.29,4.8,4.8,0,0,1-1.35-2.24c-.7-.32-1.42-.63-2.12-1s-1.42-.74-2.69-1.4l1.08,2.1-2.06-.85c-.73,1.2-5.5,3.4-6.83,2.9-4.11-1.54-7.78-.16-11.51,1.34a22.22,22.22,0,0,1-4.73,1.35c-3.09.53-4.84,3-7,4.76-1.46,1.23-2.4,3.09-3.53,4.7-.16.23,0,.65-.09,1.26l4-2.07.53.7c-1.36,1.22-2.81,2.37-4.07,3.69-2.63,2.76-5.08,5.6-4.66,9.89.56,5.74.78,11.51,2.91,17,.94,2.4.61,3.2-2.06,3.53a118.46,118.46,0,0,1-12.07.72,23.68,23.68,0,0,1-6-.66c-2.6-.63-3.21-2.6-1.36-4.71,2.64-3,3.57-6.65,4.24-10.37.22-1.2-.52-2.54-.61-3.83a35.16,35.16,0,0,1-.08-6,11.08,11.08,0,0,0-5.68-11.29,18.87,18.87,0,0,1-7.17-7c-1.9-3.48-5-3-8.06-3.13-1.46-.06-2.93-.09-4.39-.13v-.91l2.92-.2c-1.87-1.71-3.65-4-5.61-3.47-1.42.38-4.17-.43-4.79,2.3-.07.33-1.16.42-1.77.64-1.35.51-2.79,1-1.68,2.91a1,1,0,0,1,.12.75c-.4,1.25-.86,2.48-1.28,3.67-.48,0-1.12-.08-1.76-.09-1.39,0-2.35-1.48-2.37-3.29a6.13,6.13,0,0,0-.78-2A14.13,14.13,0,0,0,39.71,126a13.81,13.81,0,0,0-.88,2c-2.28-1.69-2.37-3.1-.56-4.75-1.41-1.2-4.13-.21-4.62,1.34l-3.35,1-1.69-1.39-.54-3.75c-4.15-.29-4.24-3.67-5.63-6,2-1.62,4-3.06,6.75-3.25,1.74-.11,1.91-.71,1.14-2.6l-2.75,1.75v-3.53l-1.86,1.3-2-1.37,3.11-3.49c-1.76-.26-3.36-.46-4.94-.74a1.05,1.05,0,0,1-.71-.62c-.32-1.14-.44-2.33-.83-3.44A2.91,2.91,0,0,0,19.08,97c-3.28-1.64-3.3-1.61-1.32-4.15l5.6-1.37c-.1-.67-.27-1.44-.33-2.22,0-.43,0-1,.23-1.27a1.29,1.29,0,0,1,1.25,0c1,.87,2.9-.21,3.35,1.64l2-.86,1.44,1.19.5-2.58A10,10,0,0,1,23,81.71c.86-2.21,2.33-3,4.72-2.15.45.16,1.43-.47,1.77-1,.2-.32-.23-1.23-.6-1.69-.82-1-2-1.76-2.61-2.85-.48-.88-.32-2.12-.51-3.7l6.2.4.16-.35-2.16-1.15c.93-1,1.73-1.87,2.63-2.64.19-.17.84,0,1.19.24A17.67,17.67,0,0,1,35.37,68c.4-.82,1.18-1.65,1.15-2.46a46,46,0,0,0-.8-5.67c-.07-.47-.34-1-.24-1.4a1.67,1.67,0,0,1,.88-1,1.3,1.3,0,0,1,1,.37,14.92,14.92,0,0,1,1.3,1.67c.23-.24.4-.35.46-.51.29-.79.54-1.58.81-2.38a20,20,0,0,0,1.59,1.84c.23.22.7.2,1.06.29a22.59,22.59,0,0,0,.55-2.67c0-.26-.46-.56-1.06-1.25a19.35,19.35,0,0,1,2.48,0,9.49,9.49,0,0,1,1.65.57c-.15-.82,0-2.11-.49-2.37-1.63-.92-1.16-1.9-.5-3s.88-2.8,2.94-1.62c.47.26,1.49-.45,2.53-.81l1.24.76,1.31-2.1L54,50h6.52c.05-1.92-.06-3.3-2.15-3.81-.73-.18-1.24-1.27-1.89-2a38.46,38.46,0,0,0,3.3-2.92,2.26,2.26,0,0,0-.06-1.59c-1.67-.23-1.3-1.63-1.36-2.57,0-.33,1-.73,1.59-1.09l1-.65c1.41,1,2.63,2.37,4-.07.24-.43,2.42-.42,3,.14a8.91,8.91,0,0,0,5.69,2.71l2.51-7,3.13-1.85L79.76,31l.37-.51a36.35,36.35,0,0,1,3.43,2.27,4.25,4.25,0,0,0,5.68-.17c.8-.83,1.27-1.82,2.58-.75.11.08,1-.6,1.35-1.07A8.88,8.88,0,0,0,94,28.89c.46.61.93,1.21,1.37,1.83.19.27.31.58.56,1a4.56,4.56,0,0,0,1.17-.9c1.28-2.06,2.34-2,3.93.12a5,5,0,0,0,2.23,1.7c1.44.51,1.69.24,2.2-1.49.32,0,.82-.07,1,.11,1.68,2.22,4.09,1.32,6.23,1.52a23.92,23.92,0,0,0,3.57.26A10.51,10.51,0,0,0,118.82,32a23.45,23.45,0,0,1,1.52,4.29c.32,2,1.6,1.79,3,1.78,2.34,0,3.37-2.1,5.46-3.33.24,1.19.54,2.26.66,3.34.22,1.87.94,3.1,3.06,3.09,1.24,0,2,.4,1.52,1.92a4.22,4.22,0,0,0,.12,1.88c2,0,3.68,0,5.3,0,.19,0,.55.71.51.76-.49.47-1,.89-1.72,1.43.2.24.42.69.77.89a14.56,14.56,0,0,1,2.25,1.86c1.38,1.15,3.54,1.41,5.41,1.93.17,0,.53-.69.86-1a8.42,8.42,0,0,1,1.08-.77,3.83,3.83,0,0,1,.64,1.21c.3,2.42.43,4.87,3.21,6,.21.09.16,1.56-.19,2.13-1.18,1.92-.88,3.24.9,4.67.85.68,1.24.91,1.94.15.94-1,1.6-.59,2.39.24a1.86,1.86,0,0,0,1.56.4c1.38-.37,2.57-.35,3.26.54-.36,2.4-.66,4.45-1,6.5a10.9,10.9,0,0,0-2.82-.26c-.52.08-.93.84-1.4,1.3.46.46.89,1.27,1.37,1.3A2.31,2.31,0,0,0,161.29,71.89ZM70,116.9l-.49.61c2.7,5.84,6,11.16,12.18,14.15-.21-4.18-2.41-7.14-5.31-9.72-1.09-1-2.1-2-3.23-2.93S71,117.6,70,116.9Zm31-1.75-.77-.62c-1.55.43-3.14.77-4.65,1.32s-2.47,1.5-2,3.12a47.7,47.7,0,0,0,2.28,5.77c.62,1.35,1.56,1.11,2-.11C99,121.5,100,118.32,101,115.15Zm21.17,5.64c-2.59,0-5,0-7.39,0-.49,0-1.29-.06-1.42.18-.77,1.41-1.74.9-2.77.49-.31-.12-.85-.27-1-.12-2,2-3.9,4.06-5.83,6.11a64.11,64.11,0,0,0,6.47-3.28c2.38-1.24,4.7-2.53,7.69-1.75A3.71,3.71,0,0,0,122.16,120.79Zm40.65.29c-1.35-1.45-2.49-2.86-4.71-2.82-1.22,0-2.44-.68-4-1.15l-.28,2.29C157,120.11,159.52,122.34,162.81,121.08Zm-83.38.76c-.34-1.4-.6-2.45-.85-3.51-.72-3-2.2-3.61-5-1.94C74.28,119.36,76.68,120.51,79.43,121.84ZM91.6,128c-2.77,3.62-2.81,4.92.19,8C93.52,133.32,93,130.74,91.6,128Zm-6.55-9.17c.36,2.66.68,5.12,1,7.58C88.48,122.47,88.12,120,85.05,118.79ZM106.3,115l-1.76,6,.67.31,3.93-5.51ZM51,62.25,56.91,66C56.9,62.4,54.26,61.84,51,62.25Zm9.37,55.85c.78,2.71,3.6,4,6.82,3.07Zm91.17-3.68c-1.6.28-2.84.46-4.05.75a1.09,1.09,0,0,0-.69.82c0,.29.44.67.76.79C149.24,117.39,150.48,116.77,151.53,114.42ZM112.74,87c-1.07.7-2,1.24-2.81,1.88a4.15,4.15,0,0,0-.78,1.12c.47.06,1,.31,1.41.15,1-.41,1.9-1,3-1.59Zm17.51,33.51-4.15,1.18.05.37,4.1,1ZM143.59,66.3c-.34,1.5-.6,2.66-.9,4l3.15-1Zm5.27,39.43c1.33,1.57,2.43,1.48,4.64-.5Z"/><path class="cls-2" d="M177,111c1.14.58,2.3,1.15,3.44,1.74a1.13,1.13,0,0,1,0,1.83c-.94.63-1.91,1.21-3.1,2,.94.16,1.78.34,2.62.44,1.3.16,1.47.37,1.14,1.67.11,0,.23.14.34.13,1.56-.24,2.43.61,2.07,2.17-.23,1-.44,2.6-1.1,2.88-1.14.49-1,1.5-1.58,2l1.48,3.94-1,.17c0,.2,0,.35,0,.5l.06,1.37a4,4,0,0,1-1.21-.3,2.8,2.8,0,0,0-3.51,0l2.24,2.48a2.89,2.89,0,0,0-.38.65c-.57,1.48-.4,1.72,1.2,1.74.19,0,.52.11.53.19.16,1.35,1.43,1.06,2.38,1.61-.8.48-.19,2.3-2.45,1.46a18.93,18.93,0,0,1,.91,2.16,1.66,1.66,0,0,1-.11,1.14,21.18,21.18,0,0,1-1.31,2c-.13.19-.29.43-.48.5-1,.33-2,.62-3.06.94l.92,1.82a5.88,5.88,0,0,0-1.34-.31,20.13,20.13,0,0,1-2.52.26,21.53,21.53,0,0,1-3.08-.65c.54-.94.86-1.69-.22-2.26-.27-.14-.41-.61-.52-1-.22-.72-.48-1-1-.23-.13.17-.51.4-.57.35a16.8,16.8,0,0,1-1.55-1.38,2.9,2.9,0,0,1-.81-1.36l-1.29-.59-1.63-.85.65,1.27-1.25-.51c-.44.72-3.33,2.06-4.14,1.76-2.49-.94-4.71-.1-7,.81a14.45,14.45,0,0,1-2.87.82c-1.87.31-2.94,1.8-4.24,2.88a14.65,14.65,0,0,0-2.14,2.85c-.09.14,0,.39-.05.76l2.39-1.25.32.42c-.82.74-1.7,1.44-2.46,2.24-1.6,1.67-3.09,3.4-2.83,6,.34,3.47.47,7,1.77,10.3.57,1.45.36,1.93-1.25,2.13a71.53,71.53,0,0,1-7.32.44,14.2,14.2,0,0,1-3.67-.4c-1.58-.38-1.94-1.57-.82-2.85a12.41,12.41,0,0,0,2.57-6.29c.13-.73-.32-1.54-.37-2.32a22,22,0,0,1-.05-3.63,6.7,6.7,0,0,0-3.45-6.84,11.39,11.39,0,0,1-4.34-4.23c-1.16-2.11-3-1.83-4.89-1.9-.88,0-1.77,0-2.66-.08V142l1.76-.12c-1.13-1-2.21-2.42-3.4-2.1-.85.23-2.52-.26-2.9,1.39,0,.2-.7.25-1.07.39-.82.3-1.69.58-1,1.76a.63.63,0,0,1,.07.46c-.24.76-.52,1.5-.78,2.22-.29,0-.68,0-1.06-.06-.85,0-1.43-.89-1.44-2a3.88,3.88,0,0,0-.47-1.18,8.38,8.38,0,0,0-.88,1,7.47,7.47,0,0,0-.53,1.21c-1.38-1-1.44-1.87-.34-2.87a2,2,0,0,0-2.81.81l-2,.6-1-.84-.32-2.27c-2.52-.18-2.58-2.22-3.42-3.66a7.2,7.2,0,0,1,4.09-2c1.06-.07,1.16-.44.69-1.58l-1.66,1.06v-2.14l-1.13.79-1.22-.83L95.45,130c-1.07-.15-2-.28-3-.45a.62.62,0,0,1-.43-.37c-.19-.69-.26-1.42-.5-2.09a1.75,1.75,0,0,0-.77-.9c-2-1-2-1-.8-2.52l3.4-.83c-.06-.41-.17-.88-.2-1.35,0-.26,0-.63.14-.77a.76.76,0,0,1,.76,0c.59.52,1.75-.13,2,1l1.18-.52.88.72.3-1.56a6.06,6.06,0,0,1-5.33-3.43,2,2,0,0,1,2.87-1.3c.27.09.86-.29,1.06-.6s-.13-.75-.36-1a13.51,13.51,0,0,1-1.58-1.74,7.08,7.08,0,0,1-.31-2.23l3.76.23.1-.21-1.31-.7c.56-.58,1-1.13,1.59-1.6.12-.1.51,0,.72.15s.65.47,1,.7c.24-.49.71-1,.7-1.48a28.77,28.77,0,0,0-.49-3.44,2.71,2.71,0,0,1-.14-.86,1,1,0,0,1,.53-.6.81.81,0,0,1,.64.23,10.18,10.18,0,0,1,.79,1c.13-.15.24-.22.27-.31.18-.48.33-1,.49-1.44a12.84,12.84,0,0,0,1,1.11c.14.14.42.12.64.18a13.3,13.3,0,0,0,.33-1.62c0-.16-.28-.34-.64-.76a11.87,11.87,0,0,1,1.5,0,5.93,5.93,0,0,1,1,.35c-.08-.5,0-1.28-.29-1.44-1-.55-.71-1.15-.3-1.85s.53-1.7,1.78-1c.28.16.9-.27,1.53-.49l.75.46.8-1.27.4,2.28h4c0-1.16,0-2-1.3-2.31-.44-.11-.75-.77-1.14-1.2a25.61,25.61,0,0,0,2-1.77,1.35,1.35,0,0,0,0-1c-1-.14-.79-1-.82-1.56,0-.2.62-.44,1-.66l.58-.39c.86.61,1.6,1.44,2.44,0,.15-.26,1.47-.26,1.84.08a5.37,5.37,0,0,0,3.45,1.64l1.52-4.24,1.89-1.12.32,1,.23-.31a24.07,24.07,0,0,1,2.08,1.37,2.57,2.57,0,0,0,3.44-.1c.48-.5.77-1.11,1.56-.46.07,0,.62-.36.82-.64a5.47,5.47,0,0,0,.47-1.14c.28.37.56.73.83,1.11a5.5,5.5,0,0,1,.34.63c.29-.21.58-.33.71-.55.77-1.24,1.42-1.2,2.38.08a3.18,3.18,0,0,0,1.35,1c.88.3,1,.14,1.34-.91.19,0,.5,0,.58.07,1,1.35,2.47.8,3.77.92a13.21,13.21,0,0,0,2.17.16,6.47,6.47,0,0,0,1.61-.66,14.32,14.32,0,0,1,.92,2.6c.19,1.24,1,1.09,1.82,1.08,1.42,0,2-1.27,3.31-2,.15.73.33,1.37.4,2,.13,1.14.57,1.89,1.86,1.88.75,0,1.18.24.91,1.17a2.58,2.58,0,0,0,.08,1.13c1.24,0,2.23,0,3.21,0,.12,0,.34.43.31.46-.3.29-.63.54-1,.87.12.15.25.42.47.54a9.07,9.07,0,0,1,1.36,1.13,8.77,8.77,0,0,0,3.28,1.16c.1,0,.32-.41.52-.6a6.35,6.35,0,0,1,.65-.47,2.37,2.37,0,0,1,.39.73c.18,1.47.26,3,2,3.66.13.05.1,1-.12,1.29a1.88,1.88,0,0,0,.55,2.84c.51.41.75.55,1.18.08s1-.35,1.45.15a1.13,1.13,0,0,0,.94.25c.84-.23,1.56-.22,2,.32-.21,1.46-.39,2.7-.58,3.94a6.69,6.69,0,0,0-1.71-.16c-.32,0-.57.51-.85.79.28.28.54.77.83.79A1.41,1.41,0,0,0,177,111Zm-55.36,27.28-.3.38c1.63,3.54,3.63,6.76,7.38,8.57a8.3,8.3,0,0,0-3.22-5.89c-.66-.59-1.27-1.23-2-1.78S122.25,138.67,121.61,138.24Zm18.8-1.05-.47-.38c-.94.26-1.9.46-2.82.8s-1.49.91-1.19,1.89a29.24,29.24,0,0,0,1.38,3.5c.38.82.95.67,1.21-.07C139.2,141,139.79,139.1,140.41,137.19Zm12.83,3.42c-1.57,0-3,0-4.48,0-.3,0-.78,0-.86.11-.46.85-1.05.54-1.67.3-.19-.08-.52-.17-.61-.08-1.19,1.22-2.36,2.47-3.53,3.71a38.8,38.8,0,0,0,3.92-2c1.45-.75,2.85-1.54,4.66-1.06A2.25,2.25,0,0,0,153.24,140.61Zm24.65.17c-.82-.88-1.51-1.73-2.86-1.71a9.08,9.08,0,0,1-2.42-.7l-.17,1.39C174.34,140.19,175.89,141.54,177.89,140.78Zm-50.55.46c-.21-.85-.36-1.49-.52-2.13-.43-1.82-1.33-2.19-3-1.18C124.21,139.74,125.68,140.43,127.34,141.24Zm7.37,3.71c-1.67,2.2-1.69,3,.12,4.84C135.88,148.2,135.55,146.63,134.71,145Zm-4-5.56.61,4.6C132.83,141.62,132.6,140.11,130.75,139.39Zm12.88-2.31-1.07,3.64.41.19,2.38-3.34Zm-33.53-32,3.59,2.25C113.68,105.21,112.08,104.87,110.1,105.11ZM115.78,139c.47,1.65,2.18,2.4,4.13,1.86Zm55.27-2.23c-1,.17-1.72.28-2.46.46-.18,0-.43.33-.41.49s.26.41.46.48C169.66,138.54,170.41,138.16,171.05,136.74Zm-23.52-16.6c-.65.42-1.2.75-1.7,1.13a2.92,2.92,0,0,0-.48.69c.29,0,.63.18.86.08a18,18,0,0,0,1.81-1Zm10.62,20.31-2.51.72,0,.22,2.49.63Zm8.08-32.88-.54,2.44,1.91-.57Zm3.2,23.9c.81,1,1.47.9,2.81-.3Z"/></svg>