<svg id="Layer_1" data-name="Layer 1" xmlns="http://www.w3.org/2000/svg" viewBox="0 0 200 200"><defs><style>.cls-1{fill:#fff;}.cls-2{fill:#c0a320;}</style></defs><path class="cls-1" d="M99.22,188.62a13.29,13.29,0,0,1-7.2-2.26l-.17-.1-.17-.1c-1.47-.78-2.92-1.6-4.31-2.43-34.3-20.3-59-59.36-64.41-101.93-1.18-10.25,1.48-20.54,7.89-30.53.81-1.27,1.7-2.55,2.64-3.8L35,45.82C48.46,31.2,61.15,17.4,79.53,13.9a103.61,103.61,0,0,1,17.91-1.56c31.86,0,59.48,14.36,72.06,37.48.75,1.38,1.46,2.8,2.09,4.22l0,.12.06.11c4.71,9.35,5.3,21.48,5.29,31v.42c.11,1.53.18,3.08.19,4.62-3.46,27.4-15.44,50.24-32.89,62.7-5.56,4-10.85,9.51-16.45,15.33C118.26,178.32,108.34,188.62,99.22,188.62Z"/><path class="cls-2" d="M97.44,17.84c29.85,0,55.61,13.26,67.23,34.61.69,1.26,1.32,2.54,1.89,3.83l.11.23.12.24c4.18,8.3,4.71,19.61,4.7,28.53v.41l0,.42c.09,1.28.15,2.59.17,3.9-3.33,25.71-14.46,47-30.58,58.54l0,0h0c-5.94,4.29-11.65,10.22-17.17,16-8,8.28-17.89,18.58-24.67,18.58A7.68,7.68,0,0,1,95,181.7l-.33-.2-.34-.18c-1.39-.75-2.78-1.53-4.11-2.32-16.36-9.69-30.79-24.15-41.73-41.83a141.36,141.36,0,0,1-20-56c-1-9,1.36-18.08,7-26.94.7-1.09,1.46-2.19,2.26-3.26l1.33-1.45c12.79-13.9,24.88-27,41.43-30.22a98.15,98.15,0,0,1,17-1.48h0m0-11A109.09,109.09,0,0,0,78.5,8.5c-21,4-35,20-49.24,35.45q-1.62,2.13-3,4.35c-6.62,10.31-10.12,22-8.72,34.2,5.36,42,29.85,83.93,67.06,106q2.23,1.32,4.53,2.55a18.69,18.69,0,0,0,10.13,3.11c17.36,0,33.17-25.71,48.28-36.62,21-15,32-41,35.2-66.85,0-1.8-.08-3.59-.21-5.36,0-11.79-1-23.79-5.88-33.49q-1.05-2.37-2.28-4.61C160.06,21,129.44,6.84,97.44,6.84Z"/><path class="cls-2" d="M144.24,73.22c1.27.64,2.54,1.27,3.79,1.92a1.23,1.23,0,0,1,0,2c-1,.7-2.1,1.34-3.42,2.17,1,.18,2,.38,2.89.49,1.43.18,1.62.41,1.26,1.85.12,0,.25.15.37.13,1.72-.26,2.68.68,2.29,2.4-.27,1.13-.49,2.86-1.22,3.18-1.25.53-1.15,1.64-1.74,2.18l1.63,4.34-1.09.19c0,.22,0,.39,0,.55,0,.51.05,1,.07,1.51a4.78,4.78,0,0,1-1.34-.32c-1.17-.67-2.3-1.12-3.86,0l2.46,2.74a3.71,3.71,0,0,0-.41.71c-.63,1.64-.44,1.9,1.32,1.92.21,0,.58.12.59.22.17,1.48,1.57,1.16,2.62,1.77-.88.52-.22,2.53-2.7,1.6a23.48,23.48,0,0,1,1,2.38,1.89,1.89,0,0,1-.12,1.26,22.18,22.18,0,0,1-1.44,2.18c-.15.21-.32.48-.54.55-1.08.37-2.19.68-3.37,1l1,2a6.74,6.74,0,0,0-1.47-.34,22.23,22.23,0,0,1-2.78.29,23.74,23.74,0,0,1-3.39-.72c.59-1,.95-1.86-.24-2.48-.3-.16-.45-.68-.57-1.07-.25-.79-.53-1.1-1.14-.25-.14.19-.56.44-.63.39a16.42,16.42,0,0,1-1.7-1.53,3.13,3.13,0,0,1-.9-1.49c-.47-.22-.95-.43-1.42-.66s-1-.49-1.8-.93l.72,1.4-1.37-.56c-.49.79-3.67,2.27-4.56,1.93-2.75-1-5.2-.11-7.69.9a15.1,15.1,0,0,1-3.17.9c-2,.35-3.23,2-4.66,3.18a15.55,15.55,0,0,0-2.36,3.14c-.1.15,0,.43-.06.84l2.64-1.39.35.47c-.91.82-1.87,1.59-2.71,2.47-1.77,1.84-3.4,3.74-3.12,6.61.38,3.83.52,7.69,2,11.34.62,1.61.4,2.14-1.38,2.36a80.36,80.36,0,0,1-8.07.49,16.21,16.21,0,0,1-4-.45c-1.73-.42-2.14-1.73-.9-3.14A13.69,13.69,0,0,0,92.72,129c.14-.8-.35-1.7-.41-2.56a23.15,23.15,0,0,1,0-4,7.41,7.41,0,0,0-3.8-7.55,12.62,12.62,0,0,1-4.79-4.66c-1.27-2.32-3.35-2-5.38-2.09L75.36,108v-.6l2-.13c-1.25-1.15-2.44-2.67-3.75-2.32-.94.25-2.78-.29-3.19,1.53,0,.22-.78.28-1.19.43-.9.34-1.86.64-1.12,1.94a.71.71,0,0,1,.08.51c-.27.83-.58,1.65-.86,2.45-.32,0-.75-.06-1.17-.07-.93,0-1.57-1-1.59-2.19a3.66,3.66,0,0,0-.52-1.3,10,10,0,0,0-1,1.1,9.3,9.3,0,0,0-.59,1.35c-1.52-1.13-1.59-2.07-.37-3.17a2.13,2.13,0,0,0-3.09.89l-2.24.67-1.13-.93-.36-2.51c-2.77-.19-2.83-2.44-3.76-4A8,8,0,0,1,56,99.49c1.16-.08,1.27-.48.76-1.74l-1.83,1.17V96.56l-1.25.87-1.34-.92,2.08-2.33c-1.18-.17-2.25-.3-3.31-.49a.7.7,0,0,1-.47-.42c-.21-.75-.29-1.55-.55-2.29a1.9,1.9,0,0,0-.85-1c-2.18-1.1-2.2-1.08-.88-2.77l3.75-.92c-.07-.45-.19-1-.23-1.48,0-.29,0-.7.16-.85a.85.85,0,0,1,.83,0c.66.58,1.94-.13,2.24,1.1l1.31-.57,1,.79.33-1.72a6.68,6.68,0,0,1-5.87-3.78A2.19,2.19,0,0,1,55,78.34c.3.11,1-.31,1.18-.66s-.15-.82-.4-1.12A15.58,15.58,0,0,1,54,74.65a7.86,7.86,0,0,1-.33-2.47l4.13.27.11-.24-1.44-.77c.62-.64,1.15-1.24,1.76-1.76.13-.11.56,0,.79.17a8.76,8.76,0,0,1,1.07.77c.28-.55.79-1.11.78-1.64a32.62,32.62,0,0,0-.54-3.79,3,3,0,0,1-.16-.94,1.1,1.1,0,0,1,.59-.66c.17-.08.53.08.7.24A8.89,8.89,0,0,1,62.36,65c.15-.16.27-.24.3-.34.2-.53.37-1.06.55-1.59a15.59,15.59,0,0,0,1.06,1.23c.15.14.47.13.71.19a16,16,0,0,0,.36-1.78c0-.18-.3-.38-.71-.84a14.54,14.54,0,0,1,1.66,0,5.55,5.55,0,0,1,1.1.39c-.09-.55,0-1.42-.32-1.59-1.09-.61-.78-1.27-.33-2s.58-1.87,2-1.08c.31.18,1-.3,1.69-.54l.82.51.88-1.41.45,2.53h4.35c0-1.29,0-2.21-1.43-2.55-.49-.12-.83-.85-1.26-1.33a27.31,27.31,0,0,0,2.2-1.95c.18-.2,0-1.05,0-1.06-1.12-.16-.87-1.09-.91-1.72,0-.22.69-.48,1.06-.73l.65-.43c.94.67,1.75,1.58,2.68,0,.16-.29,1.62-.28,2,.09a5.93,5.93,0,0,0,3.8,1.81L87.34,46l2.09-1.24.35,1.13.25-.34a23.92,23.92,0,0,1,2.29,1.52A2.83,2.83,0,0,0,96.11,47c.54-.55.85-1.22,1.73-.5.07.06.68-.4.9-.71a6.32,6.32,0,0,0,.52-1.25c.31.41.62.81.91,1.22a7.75,7.75,0,0,1,.38.7c.32-.24.64-.37.78-.61.85-1.37,1.56-1.32,2.62.09A3.51,3.51,0,0,0,105.44,47c1,.34,1.13.16,1.47-1,.22,0,.55,0,.64.08,1.12,1.48,2.73.88,4.16,1a16.09,16.09,0,0,0,2.38.18,7.56,7.56,0,0,0,1.78-.73,15.42,15.42,0,0,1,1,2.86c.21,1.37,1.07,1.2,2,1.19,1.56,0,2.25-1.4,3.65-2.22.16.8.36,1.51.44,2.23.14,1.25.63,2.07,2,2.07.82,0,1.3.26,1,1.28a2.79,2.79,0,0,0,.08,1.25c1.36,0,2.45,0,3.54,0,.13,0,.37.47.34.5-.33.32-.7.59-1.15,1a2,2,0,0,0,.52.59,10.42,10.42,0,0,1,1.5,1.24c.92.77,2.36.94,3.61,1.29.12,0,.35-.46.57-.66a6.41,6.41,0,0,1,.73-.52c.14.27.39.52.42.81.2,1.62.29,3.25,2.15,4a2,2,0,0,1-.13,1.43c-.79,1.28-.58,2.16.61,3.12.56.45.82.61,1.29.1.63-.68,1.07-.39,1.6.16a1.24,1.24,0,0,0,1,.27c.92-.25,1.72-.24,2.17.36-.23,1.6-.44,3-.64,4.34a7.63,7.63,0,0,0-1.88-.18c-.35.06-.63.57-.94.87.31.31.59.85.92.87A1.54,1.54,0,0,0,144.24,73.22Zm-61,30.07-.33.41c1.8,3.9,4,7.45,8.14,9.45-.14-2.79-1.61-4.77-3.55-6.49-.72-.65-1.4-1.36-2.16-2A23.31,23.31,0,0,0,83.24,103.29ZM104,102.12l-.51-.41c-1,.28-2.1.51-3.11.87s-1.65,1-1.31,2.09a31.88,31.88,0,0,0,1.52,3.86c.41.9,1,.74,1.33-.08C102.63,106.36,103.27,104.24,104,102.12Zm14.14,3.77c-1.73,0-3.33,0-4.94,0-.32,0-.85,0-.94.13-.52.94-1.16.6-1.85.32-.21-.08-.57-.18-.67-.08-1.31,1.34-2.6,2.72-3.89,4.08a41.52,41.52,0,0,0,4.32-2.19c1.59-.83,3.14-1.69,5.14-1.16A2.48,2.48,0,0,0,118.1,105.89Zm27.16.19c-.91-1-1.67-1.91-3.15-1.88a10.14,10.14,0,0,1-2.67-.77l-.19,1.53C141.34,105.44,143.06,106.92,145.26,106.08Zm-55.7.51L89,104.25c-.48-2-1.47-2.42-3.31-1.3C86.12,104.93,87.73,105.7,89.56,106.59Zm8.13,4.09c-1.85,2.42-1.88,3.28.13,5.33C99,114.26,98.61,112.53,97.69,110.68Zm-4.37-6.13.67,5.07C95.61,107,95.36,105.34,93.32,104.55ZM107.51,102l-1.17,4,.44.21,2.62-3.68ZM70.56,66.78l4,2.48C74.51,66.88,72.74,66.51,70.56,66.78Zm6.26,37.31c.52,1.81,2.4,2.64,4.56,2Zm60.9-2.46c-1.07.19-1.9.31-2.71.5-.19.05-.47.37-.45.55s.29.45.51.53C136.19,103.62,137,103.2,137.72,101.63Zm-25.91-18.3c-.72.48-1.32.83-1.88,1.26a3.13,3.13,0,0,0-.52.75c.32,0,.69.2,1,.1.66-.27,1.26-.67,2-1.06Zm11.7,22.39-2.77.79,0,.25,2.74.69Zm8.91-36.23-.6,2.69,2.1-.64Zm3.52,26.34c.89,1,1.62,1,3.1-.34Z"/></svg>