<svg id="Layer_1" data-name="Layer 1" xmlns="http://www.w3.org/2000/svg" viewBox="0 0 200 200"><defs><style>.cls-1{fill:#fff;}.cls-2{fill:#196a73;}</style></defs><path class="cls-1" d="M114.7,189.84c-20.72,0-42.1-7.12-60.19-20.05-34.44-24.73-65-68.35-37.59-109.93l.16-.25.11-.27a61.67,61.67,0,0,1,4.17-8.42c12.25-20.46,35.49-29.39,58.78-36,2.79-.79,5.77-1.6,9.64-2.63a173.29,173.29,0,0,1,26.69-2.15c27.19,0,61.32,7.07,69.54,40.75l0,.13,0,.13c1.06,3.09,2,6.4,2.89,9.84a172.84,172.84,0,0,1,4.69,39.64c0,2.66-.11,5.14-.28,7.55l0,.19v.19a74.11,74.11,0,0,1-10.7,43,75.59,75.59,0,0,1-4.94,7.14C162.88,178.79,140.51,189.84,114.7,189.84Z"/><path class="cls-2" d="M116.47,7.16v6c26.12,0,58.87,6.68,66.62,38.46l.07.27.09.26c1,3,2,6.23,2.8,9.58a168.94,168.94,0,0,1,4.61,38.9c0,2.62-.11,5-.28,7.35l0,.38,0,.39A71.19,71.19,0,0,1,180.11,150a73.2,73.2,0,0,1-4.74,6.85l-.05.06,0,.07c-14.23,19.27-35.74,29.89-60.57,29.89-20.1,0-40.86-6.92-58.44-19.48-19.44-14-34.2-31.26-41.56-48.72-8.52-20.2-6.93-39.42,4.73-57.13l.32-.5.22-.55a60.16,60.16,0,0,1,4-8C35.65,32.9,58.26,24.25,81,17.83c3.42-1,6.81-1.88,9.44-2.58a170.31,170.31,0,0,1,26.07-2.09v-6m0,0A177.89,177.89,0,0,0,89.16,9.37c-3.23.86-6.52,1.75-9.84,2.68C56.1,18.63,31.71,27.8,18.78,49.38a64.21,64.21,0,0,0-4.37,8.83c-27.75,42.17,1,87.2,38.35,114,18.57,13.26,40.59,20.61,61.94,20.61,24.93,0,48.93-10,65.4-32.33a78.9,78.9,0,0,0,5.13-7.42,76.66,76.66,0,0,0,11.14-44.68c.19-2.59.28-5.18.29-7.77a175.5,175.5,0,0,0-4.78-40.35q-1.27-5.15-3-10.09c-8.18-33.54-41.11-43-72.45-43Z"/><path class="cls-2" d="M40.7,71.37C48.42,72.88,56.2,72.7,64,72.46c7.59-.22,15.19-.11,22.79-.11H160.6a6,6,0,0,0,0-12h-47c-15.44,0-30.91-.28-46.34,0-4,.08-8.07.28-12.1.27-2,0-4,0-6-.18a20.18,20.18,0,0,1-3.21-.31c1.55.38.11,0-.22,0l-1.79-.32c-3.07-.61-6.63.87-7.38,4.19-.68,3,.89,6.73,4.19,7.38Z"/><path class="cls-2" d="M42.29,102.11h3.23l-3-.82c2,1.48,4.41,1.54,6.81,1.63l5.92.23c3.92.13,7.84.18,11.76.17,7.83,0,15.66-.26,23.48-.59,15.42-.65,30.83-1.58,46.26-1.47,8.74.06,17.5.27,26.23.85,3.13.21,6.13-2.91,6-6a6.15,6.15,0,0,0-6-6,452.34,452.34,0,0,0-45.55-.54c-15.11.51-30.2,1.5-45.31,1.71-8.47.12-16.92-.1-25.38-.47l3,.82a9.62,9.62,0,0,0-4.45-1.52c-1,0-2,0-3,0a6,6,0,0,0,0,12Z"/><path class="cls-2" d="M53.77,132c14.69-.8,29.49-.75,44.19-.16,15.22.61,30.45,1.51,45.68,1.68,8.68.1,17.35,0,26-.43,3.13-.15,6.15-2.64,6-6-.14-3.11-2.64-6.16-6-6-30.34,1.51-60.6-1.5-90.94-1.61-8.32,0-16.63.07-24.95.52-3.13.17-6.15,2.64-6,6,.14,3.11,2.65,6.19,6,6Z"/></svg>