<svg xmlns="http://www.w3.org/2000/svg" xmlns:xlink="http://www.w3.org/1999/xlink" viewBox="0 0 500 500"><defs><style>.cls-1{fill:#196a73;}.cls-2{fill:#8f5902;}.cls-3,.cls-7{fill:#e9b96e;}.cls-4{fill:#eeeeec;}.cls-5{fill:#2e3436;}.cls-6{fill:url(#radial-gradient);}.cls-7{fill-rule:evenodd;}</style><radialGradient id="radial-gradient" cx="-11218.75" cy="36544.98" r="316.7" gradientTransform="matrix(0.28, 0, 0, -0.1, 3366.65, 3703.23)" gradientUnits="userSpaceOnUse"><stop offset="0" stop-color="#2e3436"/><stop offset="1" stop-color="#2e3436" stop-opacity="0"/></radialGradient></defs><g id="Layer_6" data-name="Layer 6"><circle class="cls-1" cx="250" cy="250" r="246"/><g id="layer1"><g id="g6906"><path id="path5186" class="cls-2" d="M335,203.36c.2,55.82-36,101.28-81,101.54s-81.52-44.79-81.73-100.61v-.93c-.2-55.82,36.05-101.28,81-101.53s81.52,44.78,81.73,100.6Z"/><path id="path5697" class="cls-2" d="M307.24,113.38a44.21,44.21,0,0,0-24.4,7.37c-17.85,11.56-24.76,32.63-15.44,47s31.37,16.69,49.22,5.13,24.76-32.62,15.44-47C326.81,117.79,317.52,113.51,307.24,113.38Zm-118.17,6.23c-10.28.13-19.55,4.38-24.79,12.47-9.33,14.39-2.4,35.47,15.44,47s39.87,9.28,49.2-5.11,2.4-35.46-15.44-47A44.25,44.25,0,0,0,189.07,119.61Zm59.71,96.19c-62.41,0-113.06,45.62-113.06,101.86S192.58,389,255,389s106.86-15.09,106.86-71.33S311.19,215.8,248.78,215.8Z"/><path id="path5704" class="cls-3" d="M251.25,168c-26.74,0-48.43,22.41-48.43,50a50.76,50.76,0,0,0,12.53,33.57c-22,9.87-36.77,28.14-36.77,49.06,0,31.37,33.27,56.82,74.25,56.82S327.06,332,327.06,300.6c0-21.64-15.81-40.46-39.06-50.07A50.72,50.72,0,0,0,299.71,218C299.71,190.37,278,168,251.25,168Z"/><path id="path5709" class="cls-4" d="M238,217.45c.12,10.13-4,18.53-9.17,18.77s-9.48-7.79-9.6-17.92c0-.29,0-.57,0-.85-.12-10.13,4-18.54,9.17-18.77s9.48,7.79,9.6,17.92Z"/><path id="path5713" class="cls-5" d="M308.54,293.63c-8,22.95-31.17,39.57-58.51,39.57a63.38,63.38,0,0,1-47-20.32c10.4,14.85,28.25,24.67,48.54,24.67C279.74,337.55,303.24,318.67,308.54,293.63Z"/><path id="path5720" class="cls-5" d="M238,274.49a4.64,4.64,0,0,1-4.35,6,5.11,5.11,0,0,1-5-5.77v-.25a5.18,5.18,0,0,1,4.82-6,4.58,4.58,0,0,1,4.57,5.77Z"/><path id="path5722" class="cls-5" d="M263.05,273.24c1.94,3.26-.37,6-3.28,6s-5.33-2.51-6.1-5.77v-.26c.64-3.25,3-5.95,5.87-6s5.33,2.51,3.51,5.77Z"/><path id="path5724" class="cls-5" d="M231.76,224.86a4.73,4.73,0,0,1-4.44,6,5,5,0,0,1-4.94-5.77v-.25a5.06,5.06,0,0,1,4.72-6,4.68,4.68,0,0,1,4.66,5.77Z"/><path id="path5728" class="cls-6" d="M305.73,114a43.33,43.33,0,0,0-16.83,4c16.24,10.24,29.36,27,37.16,47.46,10.54-11.76,13.44-27.5,6-39-5.25-8.09-14.54-12.37-24.82-12.5C306.75,114,306.24,114,305.73,114Zm-116.66,6.22c-10.28.13-19.54,4.39-24.78,12.48-8.32,12.84-3.71,31,10.06,43,5.93-21.35,17.45-39.46,32.34-51.72A43,43,0,0,0,189.07,120.23Z"/><path id="path6624" class="cls-7" d="M215.61,460.48h0"/><path id="path2473" class="cls-4" d="M281.83,218.22c.11,10.13-4,18.54-9.17,18.77s-9.49-7.79-9.61-17.92v-.85c-.12-10.13,4-18.53,9.17-18.77s9.49,7.79,9.61,17.92Z"/><path id="path2475" class="cls-5" d="M275.57,225.64a4.37,4.37,0,0,1-4.05,6,5.51,5.51,0,0,1-5.34-5.78v-.25a5.57,5.57,0,0,1,5.11-6,4.3,4.3,0,0,1,4.28,5.78Z"/></g></g></g></svg>