<svg xmlns="http://www.w3.org/2000/svg" xmlns:xlink="http://www.w3.org/1999/xlink" viewBox="0 0 1920 1080"><defs><style>.cls-1{fill:#6d838c;}.cls-2{font-size:436.03px;font-family:MyriadPro-Regular, Myriad Pro;}.cls-17,.cls-3{fill:none;}.cls-17,.cls-4{stroke-miterlimit:10;}.cls-4{fill:url(#linear-gradient);stroke:url(#linear-gradient-2);}.cls-5{fill:#99ba84;}.cls-13,.cls-15,.cls-16,.cls-5{fill-rule:evenodd;}.cls-6{fill:url(#radial-gradient);}.cls-7{fill:url(#radial-gradient-2);}.cls-15,.cls-8{fill:#8f5902;}.cls-13,.cls-9{fill:#e9b96e;}.cls-10{fill:#eeeeec;}.cls-11{fill:#2e3436;}.cls-12{fill:url(#radial-gradient-3);}.cls-14{fill:#63564a;}.cls-16{fill:#dcd3d7;}.cls-17{stroke:#000;stroke-width:3px;}.cls-18{fill:#adc79c;}.cls-19{fill:#9fae96;}</style><linearGradient id="linear-gradient" x1="960.5" y1="-1079.5" x2="960.5" y2="6480.5" gradientUnits="userSpaceOnUse"><stop offset="0" stop-color="#33d1e2"/><stop offset="0.27" stop-color="#f9f6d2"/><stop offset="0.35" stop-color="#cef2ce"/><stop offset="0.44" stop-color="#45775c"/><stop offset="0.57" stop-color="#10502d"/><stop offset="0.78" stop-color="#213329"/><stop offset="1" stop-color="#091d12"/></linearGradient><linearGradient id="linear-gradient-2" x1="960.5" y1="6481" x2="960.5" y2="-1080" gradientUnits="userSpaceOnUse"><stop offset="0" stop-color="#fff"/><stop offset="1"/></linearGradient><radialGradient id="radial-gradient" cx="-22516.6" cy="55090.97" r="177" gradientTransform="matrix(-0.26, 0.09, -0.07, -0.19, -1252.7, 13413.18)" gradientUnits="userSpaceOnUse"><stop offset="0" stop-color="#603b01"/><stop offset="1" stop-color="#8f5802"/></radialGradient><radialGradient id="radial-gradient-2" cx="-33758.18" cy="64316.84" r="120.92" gradientTransform="matrix(-0.21, 0.18, -0.08, -0.09, -1510.57, 12390.79)" gradientUnits="userSpaceOnUse"><stop offset="0" stop-color="#724601"/><stop offset="1" stop-color="#724601" stop-opacity="0"/></radialGradient><radialGradient id="radial-gradient-3" cx="-1422.79" cy="2159.64" r="21.08" gradientTransform="matrix(-0.77, 0.64, 0.64, 0.77, -1667.43, -248.41)" gradientUnits="userSpaceOnUse"><stop offset="0" stop-color="#2e3436"/><stop offset="1" stop-color="#2e3436" stop-opacity="0"/></radialGradient></defs><g id="Layer_1" data-name="Layer 1"><rect class="cls-1" x="0.5" y="0.5" width="1919" height="1079"/><path d="M1919,1V1079H1V1H1919m1-1H0V1080H1920V0Z"/><text class="cls-2" transform="translate(810 667.99) scale(0.84 1)">6</text></g><g id="Layer_2" data-name="Layer 2"><rect class="cls-3" x="1920" width="1920" height="1080"/></g><g id="Layer_3" data-name="Layer 3"><rect class="cls-4" x="0.5" y="-1079.5" width="1920" height="7560"/></g><g id="behindtree"><path class="cls-5" d="M1437.09,974.76c2.13,2.17,4.13,4.37,6,6.62.92,1.13,1.81,2.27,2.65,3.42.28.43,1.22,1.49,1.89,2.31s1.43,1.72,2.15,2.65a85.33,85.33,0,0,1,11.91,19.69c2.37,5.67,3.6,10.65,3.64,14.47a104,104,0,0,1-.25,13.37,52.75,52.75,0,0,1-13.1,30.34,40.21,40.21,0,0,1-3.52,3.51,46.77,46.77,0,0,1-13.75,8.73,49.33,49.33,0,0,1-11.9,3.26c-1.07.16-2.16.3-3.28.4-.55.07-1.13.08-1.7.11l-.75,0,.18,0a12.85,12.85,0,0,1,1.38,0c1.27.07,1.45.13.68,0a13.35,13.35,0,0,0-1.78,0c-.19,0-.4,0-.62,0s-.2,0-.35,0h-.48a21.07,21.07,0,0,0-2.12.19c-1.29.26-3.69.51-6,1.14l-.86.25-1.08.25c-.73.18-1.47.37-2.22.59s-1.51.46-2.27.73c-.4.13-.73.27-1.2.41l-1.4.45q-2.82.91-5.72,2.14c-2.18.83-4.58,1.78-6.89,2.83-2.14,1-5.17,2.3-7.9,3.63q-2.1,1-4.19,2.11l-4.91,2.45c-1.66.85-3.33,1.74-5,2.65l-2.53,1.41-3,1.62q-3,1.64-6,3.38l-3,1.76-1.51.9-1.86,1.06q-3.78,2.16-7.56,4.42l-1.88,1.14-.58.36-.15.1-.61.39c-.88.43-1.72.85-2.51,1.26-3.35,1.43-6.54,2.12-10.09,1.24l-1.41-.51a5.46,5.46,0,0,0-1.28-.41l-1.06-.2c-.17,0-.35-.09-.5-.1l-.43,0a6.64,6.64,0,0,0-1.51,0l-.59,0a2.39,2.39,0,0,0-.45.14l-.36.13s0,0-.06.06h0l.43-.31,1-.71,3.82-2.87c2.52-1.9,5-3.85,7.48-5.76,1.79-1.35,3.55-2.7,5.28-4.07s3.44-2.74,5.13-4.12l3.84-3.08q1.86-1.53,3.66-3.07l2.93-2.48q1.74-1.47,3.37-3l2.65-2.36c.82-.75,1.62-1.5,2.39-2.25l1.89-1.78c.59-.58,1.17-1.15,1.72-1.72l.41-.42.34-.33.65-.66,1.25-1.31.59-.65.14-.16,0,0-43.34,47h0l0,0,.11.14a8.41,8.41,0,0,1,.78,1.16l.08.15,0,.07s0,0,0,0l-.26,0a3.41,3.41,0,0,0-.55,0,6.73,6.73,0,0,0-2.61.92c-4,2.24-10.25,8.69-21.47,22.13-11.94,14.24-22.94,25.67-31.76,34.46s-15.54,14.88-19.9,17.77-6.5,2.52-7.33-1.75-.49-12.45-.76-25.1c-.27-11.44-4.7-7.83-12.31,13.38-6,16.91-9.54,28.63-11.7,35.62s-3,9.28-4.21,7.23-2.7-8.27-6.23-18.24a310.84,310.84,0,0,0-17.79-40.48c-5.73-11-9.67-15.15-11-13.18s-.07,10.07,4,23.68c10,33,19.37,53.47,25.18,64.33s7.86,12.12,3.73,7.28q-.77-.92-1.8-2.07l-1.11-1.22-.3-.32-.15-.17c-.23.11-.52.28-.78.42l-.39.22c-73.46-86.33,164.15,193.4-164.74-193.53l-.13-.14-.49-.57c-.31-.37-.71-.77-1-1.09a44.54,44.54,0,0,0-6.58-6,15.63,15.63,0,0,0-3.67-2.07l-.27-.09h-.08l42.18,10,1.17.28c.78.19,1.56.35,2.33.5s1.46.25,2.57.48,2,.38,3,.53l1.5.22.76.1.83.12c2.59.41,5.17.74,7.74,1l4.79.51c1.67.16,3.33.3,5,.41l2.5.16,3.29.26q3.29.23,6.56.38l3.26.14,1.63.05h.41l.55,0,1.12,0q4.45.23,8.9.35t8.85.15l12.09.21q6.35.07,12.67,0l6.31-.07h9.57q9.88,0,19.73-.2l9.82-.19,10.46-.26,17.71-.32,16.82-.39-2,.06a5.61,5.61,0,0,0-1,.07l-1,.25-2,.5a19.52,19.52,0,0,0-2.05.56l-2,.9-2.07.92a8.24,8.24,0,0,0-1,.49l-1,.65-4.23,2.58-2.14,1.64a8.76,8.76,0,0,0-1.07.92l-1.08,1a217.7,217.7,0,0,1-18.12,15.47c-1.57,1.22-3.17,2.36-4.78,3.58l-1.2.9c-.11.08-.21.16-.31.22l-.3.13-.61.26-2.43,1c-3.26,1.36-6.55,2.71-9.88,4-106.39,42-244.53,56.55-216.56-5.16,2.92-5.73.26-9.11-5-10.78s-13.27-1.93-21.26-1.23a237.32,237.32,0,0,1-38.36,0c-12.38-1-24.25-3.21-35.18-7.6s-21-11.33-28.93-23.12c-1-1.52-1.94-3.07-2.86-4.67-.46-.79-.92-1.6-1.36-2.41s-.85-1.79-1.26-2.69c-.83-1.82-1.61-3.67-2.36-5.57-.38-.9-.71-2-1-3s-.65-2.1-1-3.16-.61-2.13-.89-3.21l-.42-1.63-.37-1.76c-.47-2.36-.88-4.75-1.25-7.18l-.26-1.83c-.08-.62-.13-1.3-.2-1.94-.12-1.31-.23-2.63-.32-4s-.16-2.66-.22-4l-.07-2v-.13a.58.58,0,0,1,0-.2l.11-.73.23-1.46.5-2.91q.9-5.07,2.08-10.15c.79-3.34,1.67-6.64,2.65-10s2.05-6.64,3.17-9.77,2.35-6.34,3.66-9.48a195.06,195.06,0,0,1,17.82-33.2q1.23-1.83,2.49-3.63l1.27-1.8,1.2-1.65q2.43-3.29,5-6.5l1.29-1.6,1.23-1.48,2.45-2.88,2.52-2.84,1.28-1.41,1.24-1.33c1.59-1.7,3.21-3.36,4.87-5l2.49-2.43,2.34-2.19,2.33-2.12-.08,0s0,0,0,0l.14-.13.28-.26.56-.52a46.1,46.1,0,0,1,21.14-11,57.34,57.34,0,0,1,23.27-.55,50.58,50.58,0,0,1,19.6,7.78,48.21,48.21,0,0,0,14.43,7.25c4.21,1.12,7.64.81,10.15-.86,4.94-3.46,6-12.8.65-29.23-5.3-16.13-9.52-36.66-5.14-57.64a79.71,79.71,0,0,1,5.1-15.64,76.09,76.09,0,0,1,9.17-15.14c7.62-9.81,18.5-18.89,33.37-26.33a67.87,67.87,0,0,1,20.07-6.42,74.45,74.45,0,0,1,20.27-.22c13.35,1.66,26.11,6.82,37.44,13.93a131.81,131.81,0,0,1,29.55,25.8A157.65,157.65,0,0,1,1151.91,809c7.5,14.23,16.74,20.92,24.53,19.38,3.9-.78,7.48-3.58,10.35-8.57s5-12.1,5.9-21.45a99.54,99.54,0,0,1,7.2-28.91,93.14,93.14,0,0,1,17.87-27.76A96,96,0,0,1,1248.1,720a110,110,0,0,1,20-6.93,128.9,128.9,0,0,1,23.06-3.45,67.6,67.6,0,0,1,14.85.95c2.61.48,5.28,1.1,8,1.86a70.82,70.82,0,0,1,8,2.75A75.27,75.27,0,0,1,1350.78,735a57.93,57.93,0,0,1,14.4,32.32c1.37,12.49-1.22,26.51-8.4,41.85-5.32,11.18-3.82,19.16.69,23.43s12.16,5,20,1.91c3.32-1.38,6.56-2.53,9.76-3.55s6.34-1.91,9.38-2.57,6-1.22,8.94-1.63,5.75-.66,8.51-.8a71.86,71.86,0,0,1,29,4.15,52.18,52.18,0,0,1,11.22,5.72,48.93,48.93,0,0,1,8.92,7.6,48.42,48.42,0,0,1,10.88,19.13c4.23,14,2.45,29.65-3.53,44A98.24,98.24,0,0,1,1442.3,944c-6.91,5.7-10.38,11.24-11.07,16.36S1432.69,970.19,1437.09,974.76Z"/><path class="cls-5" d="M938.54,1217.67a170.52,170.52,0,0,1-16.84-12.16q-7.17-5.82-13.12-11.51-3-2.85-5.7-5.62a10.52,10.52,0,0,1-1.83-2.31l-2.49-2.72c-6.66-7.43-12.38-16-15.38-25.91a47.69,47.69,0,0,1,1.43-32.06,58.55,58.55,0,0,1,4.16-8.36,70.86,70.86,0,0,1,5.86-8.33,98.06,98.06,0,0,1,7.55-8.29q4.23-4.14,9.29-8.26c5.42-4.43,11.17-8.18,16.7-11.87,2.77-1.84,5.49-3.67,8.1-5.53l1.93-1.4.6-.45.12-.09.2-.15.41-.31c.29-.22.58-.46.89-.72l1.22-1c.47-.4,1-.83,1.42-1.29s1.31-1.17,2-1.81l2.27-2.27c.44-.44.87-.89,1.3-1.35l.65-.7.32-.36.4-.42c1.1-1.16,2.19-2.38,3.25-3.64.47-.59,1.24-1.42,1.88-2.18s1.33-1.58,2-2.39l1-1.22.49-.63.6-.74c.81-1,1.6-2,2.39-3l5.12-6.83q1.41-1.92,2.77-3.88l.21-.3.1-.15a1.61,1.61,0,0,1,.21-.3l.46-.58c.61-.77,1.09-1.54,1.7-2.22a24.24,24.24,0,0,1,7.16-6.28,12.22,12.22,0,0,1,1.91-.88l.93-.35c.33-.1.68-.18,1-.26l1-.2a1.88,1.88,0,0,1,.51-.06l1,.24c.69.17,1.38.34,2.06.53.38,0,.62,0,.93,0a8.1,8.1,0,0,1,5.58,2,16.29,16.29,0,0,0,4.78,3.39c2.33.83,4.62-.09,7.57-4.3s6.55-11.72,11.64-24A399.51,399.51,0,0,1,1038.75,962c6.13-10.85,11-18.57,14.68-22.33,1.85-1.87,3.44-2.76,4.92-2.57a2.74,2.74,0,0,1,.55.13l.31.1.71.2a24.48,24.48,0,0,1,3,1.07,28,28,0,0,1,5.67,3.3c.93.69,1.82,1.44,2.72,2.25l.66.63a3.88,3.88,0,0,1,.6.64c.28.42.57.86.86,1.32s.56.95.92,1.45.74,1,1.11,1.55.73,1.11,1.17,1.69l1.36,1.79c3.72,4.94,8.79,11.1,15.09,18.51a31.65,31.65,0,0,0,4.14,4.19,21.48,21.48,0,0,0,2,1.46,13.76,13.76,0,0,0,2,1,8.63,8.63,0,0,0,3.7.79,8,8,0,0,0,3.6-1,15.44,15.44,0,0,0,3.59-2.74,33.64,33.64,0,0,0,3.65-4.55c2.59-3.65,5.14-8.53,8.29-14.69,1.14-2.3,2.31-4.51,3.5-6.65s2.53-4.18,3.82-6.15a90.53,90.53,0,0,1,8.34-10.84c1.42-1.65,3.06-3.2,4.62-4.69q1.2-1.11,2.4-2.16l1.21-1,1-1a71,71,0,0,1,8-7c10.84-8.16,22.45-11.5,34.57-10.51s24.75,6.33,37.66,15.54a162.57,162.57,0,0,1,19.53,16.66q4.93,4.88,9.88,10.41c1.65,1.84,3.3,3.75,4.95,5.7l2.48,3,1.24,1.52c.72.5,1.55,1,2.32,1.5A210.84,210.84,0,0,1,1288,974.59a10.21,10.21,0,0,1,1,1.22q.46.59.9,1.17l.89,1.12.69,1.07q.68,1.05,1.35,2c.41.64.68,1.24,1,1.82s.7,1.12.93,1.64.45,1,.67,1.44a13.43,13.43,0,0,1,.94,2.35,4.46,4.46,0,0,1,.33,1.64q.15,4.63.3,9.2l.1,2.84,0,1.37,0,1,.09,4.18q.23,8.34.57,16.48.2,4.08.39,8.11l.21,4,.08,1.73.06,1.58q.26,6.32.64,12.51c.13,2.07.27,4.12.41,6.17l.45,6q.29,5,.69,10c.27,3.29.57,6.56.92,9.8.2,1.74.27,2.93.4,4.33s.27,2.72.4,4.08c.55,5.33,1.43,11.1,1.92,15.29q.45,3.4,1,6.78l.6,3.33c.14,1,.29,1.92.46,2.89q.49,2.88,1.14,5.74l2.58,11.39c-.15-.75-.31-1.5-.49-2.25a189.41,189.41,0,0,0-5.7-18.62q-.84-2.4-1.79-4.79c-.59-1.59-1.2-3.17-1.85-4.75l-1.93-4.63-1-2.28c-.32-.74-.65-1.47-1-2.22-.51-1.18-1-2.35-1.59-3.52s-1-2.14-1.52-3.22-1-2-1.47-3l-1.18-2.38c-.94-1.8-1.28-2.48-1.86-3.54l-.38-.7-.12-.22-.07-.12.09.16,1.48,2.51,1.54,2.54c.73,1.2,1.48,2.39,2.25,3.58l1.52,2.39,1.64,2.53,3.91,5.89,2.21,3.23.57.8,14.16,20.5,0,0,.13.21q.27.42.57.84a16.8,16.8,0,0,0,1.34,1.66l.19.2.09.1,0,.06.17.21a5,5,0,0,0,.37.43,6,6,0,0,0,.44.43l.42.38a1.17,1.17,0,0,0,.16.16l.14.1-.1-.07-.16-.11a3.72,3.72,0,0,0-.58-.35l-.06,0-.18-.11-.39-.23c-.26-.15-.51-.28-.77-.41-.58-.28-.84-.34-1.91-.85a23.85,23.85,0,0,0-2.69-1l-.34-.1-.17,0-.25-.1-1-.36c-.68-.24-1.36-.45-2-.65s-1.37-.37-2.05-.53l-.52-.11-.27-.06-.37-.11-1.48-.4q-3-.76-6-1.24c-.79-.1-2.5-.48-3.88-.73s-2.88-.5-4.33-.71-2.89-.4-4.34-.55l-1.09-.11-1.58-.22L1282,1122q-6.62-.84-13.27-1.26l-.83-.06-.42,0h-.21l-.36,0-2.83-.26-5.69-.49q-5.68-.43-11.38-.76t-11.4-.51l-1.42,0-3-.16L1225,1118l-12.39-.6q-24.78-1.1-49.65-1.42l-50.31-1.4-46.39-1.11-.61,0-.29,0h-.15s0,0-.07,0l-.07-.13-.53-1-.26-.53a2.61,2.61,0,0,1-.12-.28l-.12-.49c-.08-.3-.16-.69-.23-1.09l-.22-1.18q-.43-2.37-.78-4.74c-.45-3.16-.84-6.34-1.09-9.52a53.79,53.79,0,0,0-.63-6.15c-.09-.61-.17-1.21-.22-1.81l-.07-.86-.07-.49c0-.33,0-.66,0-1v-.45a.22.22,0,0,1,0-.08.41.41,0,0,1,0-.09l0,0,0,0h.71l16.07.32,8,.14,2,0,1.39,0,2.09.07q8.36.25,16.71.43,16.71.36,33.44.37h8.37l4.18,0h1.51l1.28,0c3.41,0,6.82.07,10.22.07q10.23,0,20.46-.27l5.12-.14,2.49-.08,1.71,0c2.28,0,4.56-.07,6.84-.13,8.81-.19,19.46-1,24.68-1.18q4.83-.29,9.64-.75l2.41-.24.6-.07.43,0,.87-.06,3.49-.31c2.32-.23,4.64-.5,7-.83l1.74-.26.7-.09.64-.07,2.53-.33c1.68-.24,3.37-.52,5.06-.84l1.26-.25,1-.16,1.8-.32c1.2-.23,2.41-.49,3.61-.79l.9-.23c.3-.08.43-.09.66-.14l1.22-.29c1.56-.36,3.55-1,4.23-1.2,4.37-1.41,4.17-1.81,1.77-.31l38.27-29c.86-.33.81-.43.11.08a23.38,23.38,0,0,0-3.72,3.51c-3.36,3.76-7.87,10.75-11.85,20.16l7.34-34.92c.44-.5.33-.5,0,.16a19.08,19.08,0,0,0-1.36,3.9,61.39,61.39,0,0,0-1.18,18.1l-19,105.72c-.39,3.29-.72,6.54-1,9.77l-.2,2.46-.27,3c-.16,2-.32,3.92-.47,5.87s-.26,3.92-.39,5.86l-.11,1.53,0-.65,0-1.3c0-1.74.16-3.5.08-5.25a128.89,128.89,0,0,0-2.4-21.41c-2.85-14.41-7.44-29-12-43.3s-8.94-28.46-12.19-42a248.15,248.15,0,0,1-6.44-38.4,143.13,143.13,0,0,1,.66-32.11c1.39-9.36,3.89-17.25,7.8-23.24a26.06,26.06,0,0,1,16.88-11.76,39.21,39.21,0,0,1,13-.39,64,64,0,0,1,16.39,4.47c.24.1.48.19.65.28l-5.71-.15a176.77,176.77,0,0,0,18.43,1.61,59.13,59.13,0,0,0,14.55-1.13,25.64,25.64,0,0,0,10.83-5.12,22,22,0,0,0,6.56-9.49c3-7.89,7.42-14.92,14.52-20.05a39.29,39.29,0,0,1,12.63-6,52.84,52.84,0,0,1,16.69-1.68l-28.18-17.7a62.12,62.12,0,0,1,9.9-5.61c1.84-.78,3.77-1.5,5.76-2.15,1-.32,2-.65,3.07-.91s2.16-.5,3.27-.72,2.23-.43,3.38-.61l1.73-.25c.6-.07,1.21-.13,1.82-.18,2.46-.2,5-.31,7.59-.31s5.46.27,8.29.57,5.92.92,9,1.58,6.37,1.67,9.63,2.74,6.77,2.53,10.24,4.09a125.82,125.82,0,0,1,21.73,12.91,147.54,147.54,0,0,1,21.8,19.71,171,171,0,0,1,19.33,25.89l-13.16-26.72q4,3.13,7.84,6.67c2.58,2.36,5.16,4.79,7.61,7.46a152.58,152.58,0,0,1,14,17.29q2.18,3.09,4.2,6.35c1.33,2.16,2.56,4.34,3.77,6.58s2.36,4.51,3.47,6.84c.57,1.17,1.09,2.31,1.58,3.44s1,2.3,1.45,3.46c1,2.32,1.84,4.67,2.69,7.05l.63,1.78.56,1.73c.36,1.14.72,2.29,1.06,3.45.68,2.31,1.31,4.65,1.9,7s1,4.52,1.48,6.78.82,4.47,1.16,6.71l.25,1.68.2,1.58.33,3.13a118.88,118.88,0,0,1,.66,12.1,103.93,103.93,0,0,1-.43,10.9c-.15,1.68-.34,3.34-.55,5-.11.81-.22,1.67-.35,2.42l-.41,2.18c-.29,1.45-.61,2.88-.94,4.29l-.52,2.1c-.18.73-.38,1.26-.57,1.89-.79,2.42-1.66,4.81-2.6,7-1,2-2,3.88-3,5.7-.27.44-.54.93-.81,1.32l-.84,1.13c-.56.74-1.14,1.46-1.73,2.17s-1.18,1.38-1.79,2l-.46.49-.46.41-.93.79a45.34,45.34,0,0,1-3.85,2.88,20.75,20.75,0,0,1-4,2.11,2.94,2.94,0,0,1-1,.28l-1,.18-2,.31c-.39.08-.78.13-1.17.18-5.59.67-9.79,1.7-12.42,2.91a3.15,3.15,0,0,0-1.68,1.4,9.94,9.94,0,0,0-.61,1c-.09.17-.18.34-.25.51a5,5,0,0,0-.22.71,15.09,15.09,0,0,0-.49,3c0,.51,0,1,0,1.53s.06,1.3.13,2a24,24,0,0,0,.72,3.89l.29,1,.3,1.18c.21.78.45,1.56.72,2.35a37.64,37.64,0,0,0,1.93,4.64c.19.36.37.86.56,1.3l.6,1.35c.41.9.85,1.8,1.31,2.68a56.24,56.24,0,0,0,3.14,5.27l.44.65c.15.22.29.49.44.73l.89,1.47q.91,1.47,1.92,2.91a65.74,65.74,0,0,0,4.4,5.62c.8.91,1.63,1.81,2.49,2.69.43.45.88.86,1.32,1.34s.87,1,1.32,1.44a77.64,77.64,0,0,1,10.53,13.91c.42.71.84,1.43,1.25,2.16a20.13,20.13,0,0,1,1.19,2.37c.74,1.72,1.46,3.51,2.14,5.4a107.65,107.65,0,0,1,3.67,12.36c.25,1.13.53,2.22.73,3.47s.36,2.57.51,3.9c.3,2.66.54,5.42.69,8.3a107.06,107.06,0,0,1-.46,19q-.57,5.31-1.54,11c-.33,1.88-.69,3.8-1.08,5.74-.21,1-.39,1.93-.65,3l-.79,3.08a198.88,198.88,0,0,1-8.92,26.13c-2,4.55-4.16,9.2-6.61,13.92q-1.83,3.54-3.85,7.13l-2.07,3.61c-.7,1.19-1.4,2.32-2.12,3.5-2.89,4.66-6,9.39-9.49,14.15q-2.58,3.57-5.36,7.15l-2.73,3.43-2.75,3.34c-3.73,4.45-7.74,8.92-12,13.36l-3.28,3.33-1.65,1.64-.93,1.11-3.79,4.4c-4.93,5.67-9.46,10.75-14.55,15.86a185.53,185.53,0,0,1-17.22,15.33A176.89,176.89,0,0,1,1418.3,1415c-2.77,1.48-5.79,3-8.76,4.44-1.64.77-3.4,1.56-5.12,2.33l-2.61,1.14-1.32.57-1.4.58q-3,1.23-6.17,2.4c-2.12.8-4,1.52-6.64,2.38q-3.72,1.24-7.52,2.41l-6.55,2q-3,.88-6,1.72l-6,1.59q-5,1.34-10.16,2.53l-4.65,1.08-4.33,1-8.14,1.69c-3,.61-6.32,1.19-8.69,1.61l-3.86.64-3.62.54c-2.17.31-4.42.59-6.5.81-1.87.22-3.73.39-5.58.53a80.33,80.33,0,0,1-16-.1c-.87-.13-1.73-.29-2.59-.47a3.78,3.78,0,0,1-.54-.14l-.47-.15-.93-.32c-.15-.06-.34-.12-.45-.18s-.08-.11-.12-.18l-.07-.38-.15-.88c-.25-1.65-.48-3.25-.71-4.79l0-.68c0-.12,0-.24-.06-.35l-.48-.35c-.64-.46-1.27-.94-1.9-1.43q-1.89-1.49-3.7-3.15a80.31,80.31,0,0,1-7-7.27,118.89,118.89,0,0,1-12.16-17.42,195.07,195.07,0,0,1-16.73-38.45c-9-28.89-27.49-27.77-30.75,9.54-1.6,18.57-7.16,39.33-17.53,56.11s-25.55,29.56-45.95,32c-.71.09-1.45.15-2.2.17h-1.15l-.58,0-.46,0a18.53,18.53,0,0,1-3.64-.68l-1-.29c-.34-.11-.69-.22-1-.35-.71-.24-1.42-.52-2.14-.84s-1.43-.66-2.18-1-1.58-.8-2.37-1.24a72.59,72.59,0,0,1-10-7,67.36,67.36,0,0,1-5.3-4.7c-1.73-1.7-3.59-3.54-5.29-5.51-.86-1-1.7-2-2.53-3.05s-1.72-2.14-2.55-3.26a77.71,77.71,0,0,1-4.67-7.1,79.57,79.57,0,0,1-7.63-16.6c-4.13-12.11-5.62-26.26-3.45-42.37,3.29-23.48-13.2-30.65-26.7-22a97.41,97.41,0,0,1-35.42,14.39l-4.27.79c-1.35.23-2.7.44-4,.6-2.63.34-5.21.55-7.72.63a72.9,72.9,0,0,1-14.24-.84,64.53,64.53,0,0,1-6.48-1.37c-1.87-.53-4.59-1.29-7-2.13a84.77,84.77,0,0,1-13.71-6,75.89,75.89,0,0,1-21.25-17.2,68.12,68.12,0,0,1-16.16-45.59,77.1,77.1,0,0,1,15.1-44.1c5.26-7.17,6.69-13.56,5.14-19S945.43,1222,938.54,1217.67Z"/><path class="cls-5" d="M1747.77,1167.82c-4.56,18.44-8,31.93-19.84,41.85s-32.39,16.11-71.75,19.37a162.07,162.07,0,0,1-72.27-10.66c-9.28-3.66-16.66-7.91-21.61-12s-7.37-8.1-6.72-11.51c1.64-8.84,1.13-11.78-33.87-10.15-9.29.44-17.86.41-25.65,0a207.05,207.05,0,0,1-20.93-2.14,91.78,91.78,0,0,1-15.76-3.79c-2.15-.8-4.13-1.5-5.83-2.33a23.16,23.16,0,0,1-4.37-2.62,14.2,14.2,0,0,1-1.6-1.45,9.63,9.63,0,0,1-1.27-1.4,6.87,6.87,0,0,1-1.33-3.1,7.46,7.46,0,0,1,.26-3.31,13.29,13.29,0,0,1,1.93-3.69,31.29,31.29,0,0,1,3.55-3.9c.74-.7,1.56-1.44,2.45-2.2s1.81-1.44,2.84-2.22q3-2.3,7-5c2.6-1.72,5.49-3.57,8.72-5.64a41.72,41.72,0,0,0,3.6-2.52,10.23,10.23,0,0,0,2-1.85c.78-1,.5-1.73-.88-2-2.71-.63-10,.6-22,3.58-24.8,6.21-39.64,10.94-45.72,12.43-.79-.73-1.55-1.48-2.27-2.26-.37-.38-.72-.78-1.07-1.18l-.26-.3a1,1,0,0,0-.22-.23l-.35-.27a13.64,13.64,0,0,1-1.25-1.14c-.19-.2-.38-.4-.55-.61s-.13-.1-.16-.1l-.1,0-.14,0h-.08l1.42-.68,3-1.46,24.32-11.8,23.38-11.45q7.92-3.69,15.83-7.52,15.81-7.66,31.55-15.82l7.86-4.11,3.93-2.09,2-1c2.65-1.32,5.28-2.67,7.91-4q7.89-4.12,15.68-8.59l3.89-2.25,2.46-1.35q2.36-1.29,4.7-2.64,4.68-2.71,9.27-5.69l1.14-.75.28-.18.19-.11.38-.22,1.52-.92c1-.63,2-1.26,3-1.92,2-1.32,4-2.7,5.92-4.15l2.06-1.43c.67-.46,1.32-.94,2-1.44s1.3-1,1.94-1.53l1-.8c.3-.24.69-.6.85-.71.85-.64,1.69-1.33,2.51-2.06.41-.37.82-.75,1.22-1.14s.86-.86,1-1c.47-.42.94-.88,1.4-1.37l.69-.76.33-.4.14-.14a7.29,7.29,0,0,0,.56-.65l.29-.38.12-.17,0,0a.75.75,0,0,0-.08.14l0,0h0l-.16.25c-.21.34-.4.67-.56,1l-.22.48-.1.23,0,.12-.12.23c-.33.64-.63,1.28-.89,1.91s-.48,1.26-.68,1.88l-.07.23-.14.36-.28.71c-.18.48-.35,1-.51,1.43-.32,1-.6,1.9-.83,2.84q-.18.71-.33,1.41l-.53,1.88a56.82,56.82,0,0,0-1.52,7.58l-.07.54,16.46,118.58c-12.59-25.13-18.41-19.26-26.32,12.53-4.7,19.46-9.92,35.32-15.36,48s-11.16,22.15-17,28.81a45,45,0,0,1-8.92,7.93,30.67,30.67,0,0,1-4.53,2.47,23.73,23.73,0,0,1-2.28.88l-1.14.36c-.38.1-.76.2-1.22.29a32.82,32.82,0,0,1-5.3.59c-.87,0-1.78,0-2.63,0s-1.57-.13-2.36-.25a31.19,31.19,0,0,1-4.7-1.14,36.27,36.27,0,0,1-4.8-1.94c-12.78-6.22-26.19-20.67-38.71-40.33s-24.11-44.54-33.43-71.48A478.87,478.87,0,0,1,1408,1087.7c-4.24-27.77-5.71-54.32-4.67-76.46s4.53-39.92,10.43-50.25,14.28-13.28,26.31-5.91c10.07,6.09,12.5-9.69,12.26-25.71a310.84,310.84,0,0,1,8-73.06c5.08-21.49,12-39.13,20-49.9,6.92-9.32,15.05-9.24,22.31-4.08a31.29,31.29,0,0,1,5.23,4.77,24.92,24.92,0,0,1,2.25,3c.71,1,1.38,2.16,2,3.31a67,67,0,0,1,3.48,7.38,54.72,54.72,0,0,1,2.7,8.08c5.41,22.11,14.65,22.17,17.74-12.08,1.51-16.91,4.45-37.38,10.29-56A121.87,121.87,0,0,1,1557.49,735c4.63-7.66,10.24-14.17,17-18.84,5.2-3.65,10.11-3.91,14.65-1.69l50.91,3.85a165,165,0,0,1,26.3,10.12c1.93.95,4.24,2.12,6.37,3.27s4.26,2.34,6.32,3.57q6.18,3.66,11.77,7.65l2.75,2,2.77,2.1q2.87,2.2,5.57,4.46,5.42,4.53,10.18,9.25c1.59,1.57,3.12,3.15,4.61,4.73q1.1,1.22,2.19,2.4l2.21,2.52q4.35,5,8.06,10.12a139.43,139.43,0,0,1,20.49,40,110,110,0,0,1,5,33.51,67.06,67.06,0,0,0,4.14,26.28,55.81,55.81,0,0,0,4.87,10.81,48.57,48.57,0,0,0,3.17,4.76l.87,1.11.82,1c.55.66,1.11,1.31,1.7,1.93a36.21,36.21,0,0,0,8,6.39,28.4,28.4,0,0,0,9.44,3.51,38.53,38.53,0,0,0,11.06.46,47.4,47.4,0,0,0,6.17-1c1.06-.24,2.13-.53,3.23-.85s2.15-.75,3.25-1.18a72,72,0,0,1,23.89-4.94c2.2-.08,4.46-.07,6.75.05s4.7.44,6.91.52a83.48,83.48,0,0,1,13.88,2.13c1.18.29,2.36.6,3.55.94l1.79.53c.59.17,1.12.25,1.68.39q3.35.76,6.69,1.83t6.7,2.44c.27.11.56.25.82.33l.76.21,1.51.46c1,.31,2,.64,3,1q3,1.07,5.9,2.4c1.74.48,3.38.88,5,1.42q1.21.39,2.4.84l.6.22a1.9,1.9,0,0,0,.28.1h.25l1,0c1.25,0,2.45.14,3.58.27a71.67,71.67,0,0,1,17.33,20.82c3.29,6.1,5.15,14.69,4.91,24.19a70.59,70.59,0,0,1-8,29.75,72.84,72.84,0,0,1-23.45,25.65,81.87,81.87,0,0,1-8.36,5,94.5,94.5,0,0,1-9.43,4.18,118.26,118.26,0,0,1-21.92,5.88c-11.66,2-18.21,6.9-20.48,12.09a10.16,10.16,0,0,0-.24,7.78,12.1,12.1,0,0,0,2.15,3.55,15.42,15.42,0,0,0,3.48,3,94.57,94.57,0,0,1,12.56,9.38,68.94,68.94,0,0,1,4.93,4.85,61.69,61.69,0,0,1,4.08,4.88,49.86,49.86,0,0,1,5.83,9.87,39.22,39.22,0,0,1,2.76,9.6,32.66,32.66,0,0,1-2.28,17.87,38.75,38.75,0,0,1-4.49,8,51.8,51.8,0,0,1-6.41,7.1A73,73,0,0,1,1844,1143.5a112.55,112.55,0,0,1-21.39,7.78,132.7,132.7,0,0,1-46.42,3.5c-8.43-.92-14.92,0-19.61,2.24A16,16,0,0,0,1747.77,1167.82Z"/></g><g id="Layer_5" data-name="Layer 5"><path id="path5752" class="cls-6" d="M843.88,622.73c23.86,28.66,55.75,38.59,78.75,19.45s22.17-52-1.69-80.68-59.87-40.94-82.87-21.8S820,594.07,843.88,622.73Z"/><path id="path5797" class="cls-7" d="M828,583.47c4,5.08,18.84-.4,33.15-12.23s22.66-25.53,18.66-30.6l-.14-.16c-4-5.08-18.84.4-33.15,12.23s-22.66,25.53-18.66,30.6Z"/><path id="path5186" class="cls-8" d="M798.27,533.66c11.36,13.75,29.56,17.51,40.65,8.39s10.87-27.67-.49-41.43c-.06-.07-.12-.15-.19-.22-11.36-13.76-29.56-17.52-40.65-8.39s-10.87,27.66.49,41.42A2.11,2.11,0,0,1,798.27,533.66Z"/><path id="path5697" class="cls-8" d="M783.16,514c.65,5.44,6.66,9.2,13.41,8.39s11.69-5.88,11-11.32-6.66-9.2-13.41-8.4a14.22,14.22,0,0,0-7.5,3.18A9.33,9.33,0,0,0,783.16,514Zm29.35-24c-2,6.49.59,13.08,5.82,14.71s11.11-2.31,13.14-8.8-.59-13.08-5.82-14.71a9.31,9.31,0,0,0-8.64,2A14.21,14.21,0,0,0,812.51,490Zm2.54,77.18c11.5,13.82,25.5,8.44,40.83-4.32S882.1,534.81,870.6,521s-33.27-14.67-48.6-1.91S803.55,553.41,815.05,567.22Z"/><path id="path5704" class="cls-9" d="M811.61,507.84a15.75,15.75,0,0,1,22.13,2.38A16.25,16.25,0,0,1,837.52,521c7.42-2.07,14.79-.61,19.06,4.53,6.42,7.71,3.45,20.77-6.62,29.15s-23.44,8.91-29.85,1.21c-4.43-5.32-4.39-13.17-.64-20.29a16.19,16.19,0,0,1-9.54-5.6A15.75,15.75,0,0,1,811.61,507.84Z"/><path id="path5709" class="cls-10" d="M825,517.29c2,2.51,4.77,3.74,6.09,2.74s.74-3.86-1.3-6.37l-.18-.21c-2-2.51-4.76-3.74-6.09-2.74s-.73,3.86,1.31,6.37Z"/><path id="path5713" class="cls-11" d="M837.26,560.14c-4.27-6.49-4-15.6,1.33-22.54a20.3,20.3,0,0,1,14.29-8,18.89,18.89,0,0,0-15.7,7.53C831.71,544.29,831.94,553.92,837.26,560.14Z"/><path id="path5720" class="cls-11" d="M836.64,531.3a1.48,1.48,0,0,0,2.3.59,1.63,1.63,0,0,0,.06-2.45l0-.06a1.66,1.66,0,0,0-2.42-.49,1.46,1.46,0,0,0,.06,2.35Z"/><path id="path5722" class="cls-11" d="M830.24,536.11a1.21,1.21,0,0,0,2,.81,2.16,2.16,0,0,0,.32-2.66l-.05-.07a2.22,2.22,0,0,0-2.68-.28,1.19,1.19,0,0,0,.32,2.14Z"/><path id="path5724" class="cls-11" d="M828,517.83a1.52,1.52,0,0,0,2.33.57,1.6,1.6,0,0,0,0-2.43l0-.06a1.62,1.62,0,0,0-2.39-.51,1.49,1.49,0,0,0,0,2.37Z"/><path id="path5728" class="cls-12" d="M786.83,506a9.33,9.33,0,0,0-3.54,8.14c.52,4.35,4.45,7.62,9.44,8.35a30.57,30.57,0,0,1-.57-19.25,13.89,13.89,0,0,0-5,2.45Zm26.74-18.11A32.57,32.57,0,0,1,832.08,494c.94-5.75-1.64-11.16-6.31-12.61a9.29,9.29,0,0,0-8.64,2A13.68,13.68,0,0,0,813.57,487.92Z"/><path id="path5783" class="cls-8" d="M838.16,627.76c6.5-5.41,21.57-7.57,38.37-4.82,21.52,3.52,36.72,13.64,36.28,22.84-.84,17.24-20.15,13.6-41.66,10.08-14.53-11.84,6.25,11.17,8,34.88.14-.15.28-.29.42-.45,3.09-2,5.93-5.13,9.89-5,4.29.41,6.56,6.72,3.22,9.59-2.39,2.74-6.82,2.12-9.1,5-1.68,2.85-1.23,6.31-1.09,9.46.65,2.83,4.46,3.82,4.51,6.92.18,2.19-1.94,3.12-3.73,3.25-2.33,1.12-2,4.26-3.75,5.87-2.1,2.47-6.11,3.91-8.94,1.81a6.38,6.38,0,0,1-1.71-7.69c1.14-4.18,2.54-8.31,3.55-12.53.32-2.79-.76-5.74-.07-8.47C864.91,696,855.09,685.4,844,674c-9.39-14.4-20.56-32.65-5.81-46.2Z"/><path id="path6575" class="cls-8" d="M941.29,549.08c-7.15,4.51-13.85,18.19-16.42,35-3.28,21.55,1.67,39.14,10.55,41.54,16.66,4.52,19.15-15,22.44-36.52-6.79-17.47,8.69,9.39,30.72,18.33l-.56.26c-2.83,2.34-6.71,4.06-7.82,7.86-.94,4.21,4.36,8.31,8.13,6,3.34-1.44,4.12-5.84,7.54-7.12,3.22-.72,6.38.76,9.33,1.87,2.5,1.49,2.27,5.42,5.2,6.42,2,.84,3.56-.87,4.23-2.55,1.79-1.85,4.65-.54,6.75-1.75,3-1.23,5.59-4.62,4.48-8a6.39,6.39,0,0,0-6.79-4c-4.34-.2-8.69-.13-13-.48-2.76-.55-5.24-2.49-8-2.68-.06-7.81-7.11-20.41-14.56-34.52-10.81-13.37-24.73-29.62-42.16-19.76Z"/><path id="path6612" class="cls-13" d="M944.71,465.07c3.41-1.67,7.3,1.24,8.86,4.23,2,4.09-3.56,6.46-6.86,6.39C936.88,477.78,941.07,470.43,944.71,465.07Z"/><path id="path6624" class="cls-13" d="M880.17,572.41c7.89,2.62,15.75,10,20.53,15.37,17,16.12-7.15,27.66-21.9,23.13-15.6-8.9-17.79-37,1.37-38.5Z"/><path id="path2473" class="cls-10" d="M814.38,526.43c2,2.52,4.77,3.74,6.09,2.74s.74-3.85-1.31-6.37a1.63,1.63,0,0,0-.17-.2c-2-2.52-4.77-3.74-6.09-2.74s-.74,3.85,1.31,6.37A1.63,1.63,0,0,0,814.38,526.43Z"/><path id="path2475" class="cls-11" d="M817.43,527a1.4,1.4,0,0,0,2.23.65,1.76,1.76,0,0,0,.13-2.51l0-.06a1.78,1.78,0,0,0-2.49-.44,1.37,1.37,0,0,0,.13,2.29Z"/><path id="path6593" class="cls-8" d="M931.89,466.53a27.32,27.32,0,0,0,.37,6.75C944.47,487.36,943.81,502,938,516.9c-21.34,5.07-46.15,6.65-63,16.67,3.06,6.76,1.57,12-.38,15.18l1-.75c23-1.9,46.35-8.24,67.29-16.86,5.14-18.1,8-34.46,6.47-41.82,2.4-4.63,2.92-10.26,6.57-14.05,10.34-8.58,18.18-13,18.1-16.49-5.69-3.18-9.94,10.21-15.63,4.56,3.1-4.83,16.9-9.62,14.43-18.25C955.53,452,954,467.34,950.68,457.42c4.74-5.9,11.37-7.61,16.94-15a15.89,15.89,0,0,0-6.35.55c-10.56,2.89-22,14.62-21,22-4-1.51-.37-12-5.53-12.74a.43.43,0,0,0-.57-.06C932.91,453,932,460.59,931.89,466.53Zm-57.26,82.22"/><path id="path5759" class="cls-8" d="M885.58,727.1c-10.51-3.08-21.71-15-20.6-22.33-4,1.45-.57,12-5.74,12.64-2.36,2-3.29-17.83-2.15-21.12,32-35.58-20.79-76.31-27.46-114.84,17.48-5.08,10.2-25,11.35-8.9,17.57,21.84,37.47,90.59,33.52,108,2.32,4.67,2.74,10.3,6.32,14.16,10.2,8.76,7.46,7.22,17.26,18.53-4.59,4.08-11-12-16.75-6.44,3,4.89,19.2,11.31,16.58,19.89-17.21-7.21-19.15-24.09-22.67-14.23,4.65,6,11.24,7.81,16.68,15.29a16,16,0,0,1-6.34-.66Z"/><path class="cls-14" d="M1269.51,6309.24C1209,6286,1147,6267,1088.09,6241.5H695.5l6-223.36,2.51-93.61C714,5242,759,4562,723,3877c-15-275,23-547,34-822q2.4-56.7,5-113.34c1.73-39.78,3.52-79.08,5.32-119.44C797,2307,780,1793,810,1276c15-244,51-484,66-728,8-127,27-247,56-374,4-17,4-33,2-49-26-228-60-207-56-435,39,0,77-247,115-253,58.1-111.87,88.38-19.19,118.22-83.24,4-8.5,16.57-6.85,18.28,2.38,5.6,30.13,7.88-56.46,9.5,44.86,5,435-28,869-15,1305,7,255-16,505-48,761-49,399,49,771,107,1166,17,112,29,219,35.67,329.8,1.77,34,2.66,68,2.33,102.2-5,424,10,842,45,1267,13,160-9,318-12,477-6,268,32,532,46,800,13,226-7,450-28.12,673.64C1270.33,6300,1269.51,6309.24,1269.51,6309.24Z"/><path id="path6593-2" data-name="path6593" class="cls-8" d="M914.67,511.25A27.46,27.46,0,0,0,915,518c12.22,14.08,11.55,28.72,5.76,43.62-21.34,5.07-46.15,6.64-63,16.67,3.06,6.75,1.57,12-.39,15.18l1-.76c23-1.89,46.34-8.24,67.28-16.86,5.15-18.09,8-34.46,6.47-41.81,2.4-4.64,2.92-10.26,6.57-14.06,10.35-8.58,18.19-13,18.1-16.49-5.68-3.18-9.94,10.21-15.62,4.57,3.09-4.84,16.9-9.63,14.43-18.25-17.34,6.91-18.84,22.25-22.19,12.33,4.75-5.9,11.37-7.61,16.94-15a15.83,15.83,0,0,0-6.34.54c-10.56,2.9-22,14.63-21,22-4-1.51-.37-12-5.53-12.74a.41.41,0,0,0-.57-.06C915.7,497.74,914.83,505.31,914.67,511.25Zm-57.26,82.23"/><path id="path5767" class="cls-15" d="M706.91,558.9a50.46,50.46,0,0,0-3.51,4.61c-8.58,12.79-10.79,29.85-1.37,44.73l0,0,0,.05c20,29.55,60.49,42.15,94.34,32.75,16.73-3.48,35.48-6.41,48.66,3.95l4.26-5.43C833.25,627,812,630.81,795,634.33l-.11,0-.11,0c-31,8.69-68.91-3.18-87-29.92-7.91-12.5-6-26.17,1.34-37.12s32.31-17.19,34-18.25l4.33-2.73c.28-9.78-31.72,2.25-40.55,12.53Z"/><path class="cls-16" d="M667.18,123.31c41.91,1.92,64.52,2.44,72.75,15.58,5.9,9.32-29.19,17.21-50.39,16.65-13.41-.33-18.23-.29-19.18,5.55-2,12.4-50.73,16.91-110.19,7.25-13.31-2.18-19.66-1.47-30.13,2.63-33.2,13.1-88.89,10.07-137.86-3.29-15.9-4.37-23.55-3.44-34.49,1.89-104.15,51.64-296-49.77-165.35-40.45,13.55,1,16.31-1.66,15.6-4.33-2.12-8.73,14.95-17,37.44-20.54,19.54-3.11,45,.07,51.8,3.78s18.72,3.73,23.42-2,17-13.61,52.16-16.65c31-2.7,52.5,6.3,61.21,12.51,6.71,4.85,21.66,4.7,24.49-1.51s18.13-13.81,49.92-14.7c17.77-.52,53.08,4.81,48,15.58-2,3.92,9.89,5.07,18,3.52,54.62-10.62,93,3.81,80.52,13.62-1.77,1.38-1.45,2.47.69,3.28S661.71,123.05,667.18,123.31Z"/><path class="cls-17" d="M696.82,498.65a60.5,60.5,0,0,1,50.86-68.8"/><path class="cls-17" d="M716.82,494.65a42.51,42.51,0,0,1,35.73-48.34"/><path class="cls-17" d="M769,748.3a60.51,60.51,0,0,1-70.75-48.12"/><path class="cls-17" d="M764.24,728.47a42.51,42.51,0,0,1-49.71-33.8"/></g><g id="frontbottom"><path class="cls-18" d="M-537.1,1079.44c-13.74-4.48-22-13.57-16.49-30.79,5.86-18.42,34.39-13,44-7.42-6.57-3.78-15-16.94-8.95-28.1,3.72-7.85,12.8-10.23,25.56-8.86a126.45,126.45,0,0,1,21.67,4.66c8.1,2.33,17,5.41,26.45,8.91,30.26,14.58,57.17,20.35,80.83,20.58a149,149,0,0,0,62.05-12.93c-30.55-.76-55.87-13-71.65-28.83S-395.53,961.6-388,947.23c8.32-17.65,22.79-25,37-26.38s28.12,3,35.14,8.73c-6.76-18.28,7.37-32.88,20-38.29a54.68,54.68,0,0,1,13-3.95,35.39,35.39,0,0,1,14.58.77,47.16,47.16,0,0,1,16.51,8.48c5.86,4.45,12.09,10.67,18.71,19.26,21,32,37.53,48.35,51.55,57.73a101,101,0,0,0,19.22,10.2c5.85,2.5,11.22,4.39,16.18,6.82a35,35,0,0,0,3.66,1.5,23.94,23.94,0,0,0,3.25,1,15.42,15.42,0,0,0,5.49.28,8.56,8.56,0,0,0,6.61-4.2c2.27-4.25-.09-10.48-9-13.29l-5.22-2.9c-1.7-.92-3.36-1.84-5-2.76q-4.8-2.75-9-5.51a150.46,150.46,0,0,1-14.8-10.86A96,96,0,0,1-181,943.19a67,67,0,0,1-7.43-10.28c-7.89-13.47-8.05-25.86-6.66-35.44,1.56-9.72,9.28-18.08,19.21-22.77a41,41,0,0,1,16-3.8,33.91,33.91,0,0,1,8.23.73,32,32,0,0,1,7.85,2.84c-4.85-17.33-6-32.09-1.59-44.14a39.49,39.49,0,0,1,10.84-16,53.87,53.87,0,0,1,8.87-6.45c.43-.24.82-.5,1.31-.72l1.54-.66c1-.43,2.11-.85,3.21-1.26q3.31-1.22,7-2.27a89.87,89.87,0,0,1,18-2.36c1.41,0,2.79,0,4.14,0s2.63.2,3.9.36a55.61,55.61,0,0,1,7.33,1.41,49.34,49.34,0,0,1,12.79,5.33A45.56,45.56,0,0,1-61,811.55c.85.7,1.69,1.42,2.47,2.2s1.52,1.6,2.25,2.45C-44.7,829.71-40,850.41-41,875.34c5.7-6.77,12.48-10.57,19.41-11.77a28.18,28.18,0,0,1,10.32.12,24.57,24.57,0,0,1,4.93,1.47,29,29,0,0,1,4.56,2.44,35.54,35.54,0,0,1,13.64,17.91c2.95,8,3.72,18,1.85,29.5-5.05,33.92-4.8,52.2-1.85,64.71a67.17,67.17,0,0,0,6,15.8c2.41,4.66,5.13,9.11,7.73,14.55a46.5,46.5,0,0,0,4.2,7.15,37.19,37.19,0,0,0,4.53,5.33c3,2.92,6.07,4.58,8.48,5,4.81.85,7.22-3.21,2.34-12A107.29,107.29,0,0,1,34.9,985.08a76.3,76.3,0,0,1-.06-26.72c3-15.9,11.75-27.21,23.4-29.65a55.29,55.29,0,0,1,8.36-1.38,41.28,41.28,0,0,1,7.63,0,32,32,0,0,1,13.37,4.31c8,4.88,14.45,13.76,19.94,27,8.91-13.37,23.43-17.44,33.77-12.61,10.17,4.82,16.19,18.53,8.6,40.8-8.22,37.93-3.79,61.48,4.22,75.64a42.71,42.71,0,0,0,13.5,14.86,27,27,0,0,0,11.84,4.58c-7.87-4.65-15.43-13.83-18.1-32.06-1.65-11.34,4-23.88,12-33.14s18.5-15.21,26.7-13.35c10.74,2.3,14.66,15.07,17.39,29.44s4.28,30.47,10.05,39.53a52.69,52.69,0,0,0,15.26,15.36,71.67,71.67,0,0,0,19.38,8.8,109.78,109.78,0,0,1-2.69-29.69c.42-10.08,2.22-19.79,5.55-27.5a34.64,34.64,0,0,1,6.16-9.85,22,22,0,0,1,4-3.43,23.07,23.07,0,0,1,4.5-2.25c6.2-2.23,13.82-.94,23.18,5.38,12.48,8.39,15.16,28.51,23.34,42.87a85.41,85.41,0,0,0,32.73,32.37c6.16.28,12.52.56,18,.62l2.1,0h2.27l4.56,0c.73,0,1.54,0,2.35.07l2.42.1,4.83.22a367.51,367.51,0,0,1,37.07,4c.08-9.78.36-18.16,3.65-23.1s9.75-6.56,21.64-2.21a34,34,0,0,1,5.81,2.81,31.39,31.39,0,0,1,4.71,3.62,34.14,34.14,0,0,1,6.76,9,47.6,47.6,0,0,1,2.36,5.12l.51,1.33c.22.47.44.94.65,1.41.42.94.82,1.89,1.21,2.85,1.51,3.78,2.67,7.66,3.9,11.44,12.6,4.28,24.49,8.79,34.86,14.25a256.27,256.27,0,0,1,27.59,17c16.08,11.37,27.38,22.25,34,30.38,13,15.9,22.41,33.33,26.61,51.31a85,85,0,0,1,2.06,13.49c.07,1.13.15,2.24.19,3.36s0,2.24,0,3.36v3.32c0,1.11-.1,2.22-.16,3.32a140.22,140.22,0,0,1-3.84,25.58,191.08,191.08,0,0,1-17.13,44.25l-1.28,2.4-.64,1.16c-.22.37-.43.64-.64,1-.86,1.27-1.7,2.48-2.56,3.7-1.74,2.46-3.47,4.8-5.26,7.16l-2.67,3.48-2.7,3.45-2.73,3.44c-.94,1.24-1.86,2.48-2.78,3.7-30,39.35-72.55,68.36-122,89.22,2.26-22.07,3.46-46.8,3.78-73.83q0-5.07.08-10.24,0-5.67,0-11.45c.05-10.45.51-19.74,1-28.18l.07-1.23,0-.64,0-1.15c0-.76,0-1.53.07-2.3,0-1.54.05-3.08.05-4.63,0-3.11-.08-6.23-.37-9.37a50.79,50.79,0,0,0-1.64-9.34,28.94,28.94,0,0,0-4.61-8.63,59.52,59.52,0,0,0-15-13.45,79.53,79.53,0,0,0-8.8-5c-1.5-.74-3-1.42-4.57-2s-3.17-1.07-4.77-1.54c-.78-.24-1.61-.42-2.4-.63l-1.18-.33-1.21-.27-1.19-.29c-.19-.06-.4-.09-.59-.13l-.47-.06-.23,0-.12,0-.25-.07-1.09-.37c-.73-.25-1.48-.45-2.21-.68q-8.85-2.73-17.95-4.68t-18.5-3.16l-4.71-.54-4.75-.45-6.95-.83c-.32,0-.55,0-.94-.12l-1.23-.21-2.47-.43-4.95-.88-16.2-2.75q-7.86-1.33-15.75-2.77-15.79-2.86-31.74-6.08c-21.24-4.28-42.7-9-64.17-14.29l-7.22-1.7-7.89-1.92-15.93-3.91c-2.66-.63-5.34-1.35-8-2.06l-8.06-2.14-8.08-2.15c-2.69-.72-5.43-1.43-8-2.17-42.41-11.66-82.7-23.86-120.7-34.51S-48.64,1157-81.17,1151.23l-3.06-.58c-1-.18-2-.3-3-.46l-5.94-.9-5.92-.92-2.94-.47c-1-.15-2-.33-2.92-.41l-11.36-1.31-5.64-.7c-1.86-.2-3.65-.27-5.47-.42q-5.43-.39-10.81-.85c-.89-.07-1.8-.19-2.67-.21l-2.59-.06-5.17-.15-10.63-.41-13.26-.36c-35.45-.86-71.54-.89-107.93-.94l-27.27-.09-27.36-.19c-18.16-.19-36.49-.5-54.54-1.07-9.14-.29-18.07-.61-27.14-1l-13.46-.67-13.46-.81c-8.88-.55-17.87-1.25-26.64-2l-6.29-.56-6.08-.58-12.06-1.24c-63.94-6.74-122.05-16.9-170.67-32.95s-87.64-37.92-113.44-67.25c24.45,16.91,58.53,28.45,99.68,35.65S-589.88,1079.4-537.1,1079.44Z"/><path class="cls-19" d="M-121.18,1282.35c-6.19-5.12-9.19-14.58-4.53-31.4,2.47-9,7.12-11.8,11.58-11.59s8.81,3.41,10.84,6.4c-2.75-4.07-5.33-17.55-1-28.34,2.76-7.6,7.54-9.52,13.65-7.53s13.54,7.87,21.53,15.84a88.42,88.42,0,0,0,17.84,18.15,41.61,41.61,0,0,0,16.76,7.54,36.14,36.14,0,0,0,8.06.5,37,37,0,0,0,7.88-1.32,57,57,0,0,0,15.23-7,27.12,27.12,0,0,1-9.67-4.35,37.18,37.18,0,0,1-8-7.61,66.22,66.22,0,0,1-10.86-22.11c-4.88-16.8-5-36.23,1.11-49.87,7.05-16.77,15.78-22.77,23.36-23S6.5,1142.16,9,1148.47a46.67,46.67,0,0,1,6.11-23.24c3.52-6.08,8-10.34,11.93-12.42,5.1-2.64,10.48-4,15.41-.37,2.46,1.83,4.72,5,6.79,9.9a88.06,88.06,0,0,1,5.26,20.49,371.85,371.85,0,0,0,5.48,38.72,100.93,100.93,0,0,0,6.62,21.54c4.69,10.16,9.84,13.4,13.7,18.69,8,10.58,16.48-7.88,8.67-13.83-22.06-31.63-16.84-61.25-10.74-79.62,3.12-9.29,9.14-16.82,15.28-20.56a15.24,15.24,0,0,1,9-2.58,9.15,9.15,0,0,1,4,1.24,10.17,10.17,0,0,1,3.19,3.18c3.63-34,12.35-57.3,31.94-68.07,6-2.8,10.63-3,14.09-1s5.51,6.11,6.62,12.13c2.23,12.06-.06,31.46-5.42,55.54C173,1080.06,186.69,1094,176,1139c-7.6,33.08-9.93,50.52-10,62s2.16,17,3.84,26.52,5.2,13.45,7.78,13.31,4.21-4.51,2.33-11.91a113.07,113.07,0,0,1-2.44-26.94,132.76,132.76,0,0,1,3.09-25.42c3.47-15.68,9.36-28,15.29-32.65,6-5,10.55-6.28,13.93-3.52s5.64,9.58,7.22,20.82c5.49-14.81,12.7-22.29,17.21-20.41s6.49,13.13,1.86,36.19c-.7,4.75-1.31,9.24-1.77,13.48s-.8,8.24-1,12c-.51,7.52-.65,14.09-.51,19.83.29,11.48,1.74,19.62,3.71,25.33,3.93,11.42,9.9,13.1,13,12.18-4-2.56-7.78-9.33-8.76-26-1.22-20.72,13.2-53.32,22.29-53.77,6-.3,7.93,10.89,9,24s1.19,28.16,3.85,35.61c1.92,5.37,4.42,9.09,7.33,11.68a19.76,19.76,0,0,0,9.85,4.67c-.81-16.73,1.16-39.27,6-55.31s12.67-25.63,23.4-16.11c3.52,3.11,5.28,9.59,6.43,16.76s1.77,15.15,3.27,21.65a72.9,72.9,0,0,0,5.81,16.6,43.41,43.41,0,0,0,8.14,11.6c3.52-.14,7-.2,10.45-.28s6.85-.07,10.21,0,6.69.06,10,.26l9.65.59c2.37-9.07,4.52-16.86,7.58-21.81s7.05-7.12,13-4.49a9.75,9.75,0,0,1,4.76,4.46,19.87,19.87,0,0,1,2,7.17c.66,5.49.11,12-.26,18.2,1.58.3,3.14.54,4.66.89l4.5,1q4.43,1.07,8.54,2.15l3.65.94,3.43.91q3.35,1,6.35,1.89c4,1.3,7.54,2.55,10.55,3.87,1.5.64,2.86,1.28,4.09,1.9s2.31,1.29,3.25,1.91a80.21,80.21,0,0,1,19,17.37c.66.83,1.31,1.67,1.93,2.51s1.24,1.76,1.83,2.65c1.19,1.79,2.3,3.58,3.34,5.43a82.4,82.4,0,0,1,10.32,37.76,80.16,80.16,0,0,1-4.59,26.75c-6.22,17.82-18.1,34.86-34.81,50a210.2,210.2,0,0,1-27.77,21.11,327,327,0,0,1-31.49,17.77,17.25,17.25,0,0,0,2.74-8.07,16.35,16.35,0,0,0-1.89-8.06c-.31-.64-.65-1.27-1-1.89l-1.19-1.83-1.41-1.73c-.46-.59-1.05-1.09-1.57-1.64l-.4-.41a1.7,1.7,0,0,0-.38-.35l-.71-.56-.7-.57c-.23-.19-.63-.47-.94-.7l-1-.73-.49-.37-.6-.42c-.82-.56-1.65-1.12-2.48-1.7-3.65-2.4-8.23-5.1-13.47-7.86s-11.17-5.6-17.64-8.44l-5-2.13-5.19-2.15-2.67-1.09c-.44-.16-.93-.38-1.31-.51l-.95-.24-3.76-1c-.64-.16-1.23-.33-1.89-.49l-2.06-.43-4.09-.89c-.65-.16-1.43-.28-2.16-.42l-2.22-.4c-1.5-.25-2.9-.55-4.47-.79a427.19,427.19,0,0,0-42.62-4.24c-16-.88-33.68-1.26-52.86-1.68-9.71-.22-19.64-.44-30.29-.82l-4-.15-2-.08-2.37-.18-9.49-.74-4.76-.39-4.65-.44-9.31-.91c-24.68-2.54-47.87-5.86-69.5-9.23s-41.55-6.83-59.65-10l-48.66-8.43-10.82-1.92-5.55-1-2.76-.54-2.81-.52-5.58-1.1-5.57-1.15c-3.77-.75-7.45-1.58-11.17-2.43-14.87-3.37-29.83-7.27-44.39-12.09A304.71,304.71,0,0,1-149.71,1321a223,223,0,0,1-19.54-11.17c-3.16-2-6.26-4.12-9.26-6.3s-5.91-4.43-8.81-6.79c-22.93-18.76-40.72-43.08-50.14-73.86,10.35,18.37,26.64,32.07,46.73,41.66S-146.83,1279.71-121.18,1282.35Z"/></g></svg>