<svg xmlns="http://www.w3.org/2000/svg" xmlns:xlink="http://www.w3.org/1999/xlink" viewBox="0 0 1920 1080"><defs><style>.cls-1{fill:#9eadb3;}.cls-2{font-size:436.03px;font-family:MyriadPro-Regular, Myriad Pro;}.cls-3{fill:none;}.cls-4{stroke-miterlimit:10;fill:url(#linear-gradient);stroke:url(#linear-gradient-2);}.cls-5{fill:#63564a;}.cls-19,.cls-6{fill:#603813;}.cls-12,.cls-7{fill:#e9b96e;}.cls-16,.cls-19,.cls-21,.cls-22,.cls-7{fill-rule:evenodd;}.cls-8{fill:#998675;}.cls-9{fill:url(#radial-gradient);}.cls-10{fill:url(#radial-gradient-2);}.cls-11,.cls-16{fill:#8f5902;}.cls-13{fill:#eeeeec;}.cls-14{fill:#2e3436;}.cls-15{fill:url(#radial-gradient-3);}.cls-17{fill:url(#radial-gradient-4);}.cls-18{fill:url(#radial-gradient-5);}.cls-20{fill:#64864c;}.cls-21{fill:#e0e1ea;}.cls-22{fill:#dcd3d7;}</style><linearGradient id="linear-gradient" x1="960.5" y1="0.5" x2="960.5" y2="7560.5" gradientUnits="userSpaceOnUse"><stop offset="0" stop-color="#33d1e2"/><stop offset="0.27" stop-color="#f9f6d2"/><stop offset="0.35" stop-color="#cef2ce"/><stop offset="0.44" stop-color="#45775c"/><stop offset="0.57" stop-color="#10502d"/><stop offset="0.78" stop-color="#213329"/><stop offset="1" stop-color="#091d12"/></linearGradient><linearGradient id="linear-gradient-2" x1="960.5" y1="7561" x2="960.5" gradientUnits="userSpaceOnUse"><stop offset="0" stop-color="#fff"/><stop offset="1"/></linearGradient><radialGradient id="radial-gradient" cx="-11040.27" cy="64123.62" r="177" gradientTransform="matrix(0.26, -0.1, -0.07, -0.19, 8497.93, 12055.06)" gradientUnits="userSpaceOnUse"><stop offset="0" stop-color="#603b01"/><stop offset="1" stop-color="#8f5802"/></radialGradient><radialGradient id="radial-gradient-2" cx="-25075.81" cy="87913.23" r="120.92" gradientTransform="matrix(0.28, 0, 0, -0.12, 7964.14, 11022.9)" gradientUnits="userSpaceOnUse"><stop offset="0" stop-color="#724601"/><stop offset="1" stop-color="#724601" stop-opacity="0"/></radialGradient><radialGradient id="radial-gradient-3" cx="-25088.66" cy="105331.81" r="101.22" gradientTransform="matrix(0.28, 0, 0, -0.1, 7964.54, 10842.17)" gradientUnits="userSpaceOnUse"><stop offset="0" stop-color="#2e3436"/><stop offset="1" stop-color="#2e3436" stop-opacity="0"/></radialGradient><radialGradient id="radial-gradient-4" cx="-25456.12" cy="88735.53" r="166.38" gradientTransform="matrix(0.27, 0.06, 0.02, -0.12, 5572.43, 12310.98)" xlink:href="#radial-gradient-2"/><radialGradient id="radial-gradient-5" cx="884.34" cy="449.13" r="29.01" gradientTransform="translate(123.21 -148.46) rotate(12.23)" xlink:href="#radial-gradient-3"/></defs><g id="Layer_1" data-name="Layer 1"><rect class="cls-1" x="0.5" y="0.5" width="1919" height="1079"/><path d="M1919,1V1079H1V1H1919m1-1H0V1080H1920V0Z"/><text class="cls-2" transform="translate(866 656.99) scale(0.84 1)">7</text></g><g id="Layer_2" data-name="Layer 2"><rect class="cls-3" x="1920" width="1920" height="1080"/></g><g id="Layer_3" data-name="Layer 3"><rect class="cls-4" x="0.5" y="0.5" width="1920" height="7560"/></g><g id="Layer_5" data-name="Layer 5"><path class="cls-5" d="M1269.51,7389.24C1209,7366,1147,7347,1088.09,7321.5H695.5l6-223.36,2.51-93.61C714,6322,759,5642,723,4957c-15-275,23-547,34-822q2.4-56.7,5-113.34c1.73-39.78,3.52-79.08,5.32-119.44C797,3387,780,2873,810,2356c15-244,51-484,66-728,8-127,27-247,56-374,4-17,4-33,2-49-26-228-60-207-56-435,39,0,77-247,115-253,58.1-111.87,88.38-19.19,118.22-83.24,4-8.5,16.57-6.85,18.28,2.38,5.6,30.13,7.88-56.46,9.5,44.86,5,435-28,869-15,1305,7,255-16,505-48,761-49,399,49,771,107,1166,17,112,29,219,35.67,329.8,1.77,34,2.66,68,2.33,102.2-5,424,10,842,45,1267,13,160-9,318-12,477-6,268,32,532,46,800,13,226-7,450-28.12,673.64C1270.33,7380,1269.51,7389.24,1269.51,7389.24Z"/><path id="path6593" class="cls-6" d="M1038.42,619c-3.89,1.69-7.12,3.37-8.21,4.39-10.44,23.43-29.09,31.12-51,32.57-18.74-23.66-35.14-53.67-57.45-68.85-6.64,7.74-14,8.94-19.15,8.36.48.24,1,.52,1.53.81,15.75,27.58,37.24,53,60.18,74.08,25.56-4.12,47.63-10.08,55.91-16.27,7.17.29,14.48-2.33,21.34,0,16.72,7.9,26.82,15.1,31.1,13,.66-8.94-18.52-6.45-14.79-16.83,7.83,1,21.84,15.47,31.15,7.38-18.7-17.59-38.7-10.55-28.28-20.49,10.12,2.49,16.1,9.75,28.55,12.39a21.84,21.84,0,0,0-4.38-7.59c-9.75-11.48-31-18.87-39.59-13.37-.43-5.84,14.73-7.44,12.67-14.32a.58.58,0,0,0-.26-.74C1055.87,612.41,1045.92,615.74,1038.42,619ZM902.57,595.47"/><path id="path6612" class="cls-7" d="M1045.51,633.71c4.06,3.28,2.7,9.83-.12,13.51-4,4.84-10.13-.67-12-4.83C1025.1,631.36,1036.7,632.3,1045.51,633.71Z"/><path class="cls-5" d="M1128.63,867.76a18.7,18.7,0,0,1-3.2,3.94,117.6,117.6,0,0,0-11.65,13.81,16.53,16.53,0,0,1-8,5.91,31.81,31.81,0,0,1-11.28,1.71c-4.17.11-2.5,4.7-2,7.36-11.86-5.55-23.54-11.35-35-17.6q-5.77-3.18-11.49-6.53c-18-10.41-34-22.77-50.86-35.51-33.93-25.65-70.36-44-107.11-62.35q-9.2-4.57-18.41-9.19c-21.14-10.69-42.1-21.47-62.19-34.39-54.1-35-109.79-65.53-166.57-95.47-32.48-17.25-61-40.05-91.13-60.81a82.23,82.23,0,0,0,8.19-5.48,36.59,36.59,0,0,0,6.82-6.74A54,54,0,0,1,575.07,554c34.12,18.61,67.85,36.58,103.57,53,27.61,12.78,55.06,23.24,82,37.17,29.72,15.25,56.24,34.79,84.22,53.08,20,13,40.46,25,61.48,36.17l12.92,7L957.17,761q7.05,3.82,14,7.62c34,18.43,64.19,41.5,96.2,63.78,17,11.84,34.13,22.79,52.77,31.45C1125.63,866.41,1128.63,867.76,1128.63,867.76Z"/><path class="cls-8" d="M992.82,767.08c-10.53,0-15.6,1.38-16,3.81-.38-2.43-5.46-3.81-16-3.81-9.67,0,0,23.33,1.65,27.15h28.68C992.83,790.41,1002.49,767.08,992.82,767.08Z"/><path class="cls-8" d="M944.3,767.08c-19.45-2.11-19.56.69-20.31,3.12s8.66,19.73,8.66,19.73a86.89,86.89,0,0,1-12.8-18c-4.89-9.7-10.9-6.93-19.18-6.58s4.13,17.31,4.13,17.31c-15.79-19.39-19.55-14.54-19.55-14.54s6.33,14,24.86,26.11h52c-4.8-4.59-10.67-19.53-10.67-19.53S950.7,767.77,944.3,767.08Z"/><path class="cls-8" d="M1048.87,782.66s12.41-17,4.13-17.31-14.29-3.12-19.17,6.58a87.31,87.31,0,0,1-12.8,18s9.41-17.31,8.66-19.73-.86-5.23-20.31-3.12c-6.4.69-7.16,7.62-7.16,7.62s-5.87,14.94-10.66,19.53h52c18.53-12.13,24.87-26.11,24.87-26.11S1064.66,763.27,1048.87,782.66Z"/><path id="path5752" class="cls-9" d="M1040.32,702.35c0,37.29-18.17,65.32-48.09,65.32s-50.31-25.81-50.31-63.1,19.83-69.77,49.75-69.77S1040.32,665.06,1040.32,702.35Z"/><path id="path5797" class="cls-10" d="M1027.43,662c.17,6.46-14.74,11.74-33.3,11.8s-33.75-5.13-33.92-11.59V662c-.17-6.46,14.74-11.74,33.3-11.8s33.75,5.13,33.92,11.59Z"/><path id="path5186" class="cls-11" d="M1018.4,604.7c.07,17.84-11.52,32.37-25.88,32.45s-26-14.31-26.12-32.15v-.3c-.07-17.84,11.52-32.37,25.88-32.45s26.05,14.32,26.12,32.16Z"/><path id="path5697" class="cls-11" d="M1009.52,575.94a14.17,14.17,0,0,0-7.8,2.36c-5.7,3.7-7.91,10.43-4.93,15s10,5.33,15.73,1.64,7.91-10.43,4.93-15A9.33,9.33,0,0,0,1009.52,575.94Zm-37.77,2a9.35,9.35,0,0,0-7.92,4c-3,4.6-.77,11.34,4.94,15s12.74,3,15.72-1.63.77-11.34-4.93-15A14.18,14.18,0,0,0,971.75,577.93Zm19.09,30.75c-20,0-36.14,14.58-36.14,32.55S972.88,664,992.82,664s34.15-4.82,34.15-22.8S1010.79,608.68,990.84,608.68Z"/><path id="path5704" class="cls-12" d="M991.63,593.39a15.74,15.74,0,0,0-15.48,16,16.22,16.22,0,0,0,4,10.73c-7,3.15-11.75,9-11.75,15.68,0,10,10.64,18.16,23.73,18.16s23.73-8.13,23.73-18.16c0-6.92-5.06-12.93-12.49-16a16.22,16.22,0,0,0,3.75-10.41A15.75,15.75,0,0,0,991.63,593.39Z"/><path id="path5709" class="cls-13" d="M987.4,609.21c0,3.23-1.27,5.92-2.93,6s-3-2.48-3.07-5.72v-.27c0-3.24,1.27-5.93,2.93-6s3,2.49,3.07,5.72Z"/><path id="path5713" class="cls-14" d="M1009.94,633.55c-2.55,7.34-10,12.65-18.7,12.65a20.27,20.27,0,0,1-15-6.49,18.88,18.88,0,0,0,15.51,7.88C1000.73,647.59,1008.24,641.56,1009.94,633.55Z"/><path id="path5720" class="cls-14" d="M987.4,627.44a1.48,1.48,0,0,1-1.39,1.92,1.63,1.63,0,0,1-1.61-1.84v-.08a1.66,1.66,0,0,1,1.54-1.93,1.46,1.46,0,0,1,1.46,1.84Z"/><path id="path5722" class="cls-14" d="M995.4,627a1.21,1.21,0,0,1-1,1.92,2.15,2.15,0,0,1-2-1.84V627a2.2,2.2,0,0,1,1.88-1.93A1.19,1.19,0,0,1,995.4,627Z"/><path id="path5724" class="cls-14" d="M985.4,611.57A1.52,1.52,0,0,1,984,613.5a1.6,1.6,0,0,1-1.58-1.85v-.08a1.61,1.61,0,0,1,1.51-1.92,1.49,1.49,0,0,1,1.49,1.84Z"/><path id="path5728" class="cls-15" d="M1009,576.15a13.82,13.82,0,0,0-5.38,1.28,30.58,30.58,0,0,1,11.88,15.17c3.37-3.76,4.29-8.79,1.92-12.46a9.35,9.35,0,0,0-7.93-4Zm-37.28,2a9.36,9.36,0,0,0-7.93,4c-2.65,4.11-1.18,9.91,3.22,13.74a32.6,32.6,0,0,1,10.34-16.53A13.72,13.72,0,0,0,971.76,578.13Z"/><path id="path5759" class="cls-11" d="M1115.47,531c-11,.07-25,8.45-25.94,15.8-3.46-2.49,2.74-11.67-2-13.73-1.72-2.55-8.07,16.24-7.87,19.71,21,43-41,67.66-58,102.86,15.41,9.7,2.93,26.85,8.47,11.69C1053,651.18,1091,590.56,1092,572.72c3.51-3.85,5.46-9.15,10-11.88,12.21-5.62,9.16-4.89,21.69-13.07-3.29-5.18-13.84,8.51-17.88,1.58,4.25-3.87,21.58-5.58,21.42-14.55-18.53,2.2-25,17.89-25.72,7.44,6.12-4.47,13-4.41,20.25-10.11a15.7,15.7,0,0,0-6.27-1.11Z"/><path id="path5767" class="cls-16" d="M930.74,502a48.59,48.59,0,0,0-5.79.26c-15.32,1.58-29.85,10.79-35.26,27.55l0,0v.05c-9.91,34.28,6.3,73.46,35.18,93.47,13.37,10.63,27.62,23.17,28.08,39.93l6.9-.2c-.57-20.47-17.16-34.37-30.69-45.12l-.1-.07-.09-.07c-26.48-18.24-41.63-55-32.66-86,4.54-14.08,16.26-21.36,29.38-22.72s33.88,13.85,35.78,14.46l4.87,1.58c7.69-6-22-22.94-35.57-23.15Z"/><path id="path6593-2" data-name="path6593" class="cls-11" d="M861.78,629a.42.42,0,0,0-.4.41c-3.48,3.88,6,9.62,3.9,13.33-3.93-6.27-20.2-8-30.17-3.47a15.94,15.94,0,0,0-5.23,3.64c9,2.11,15.19-.81,22.61.69,3.77,9.76-7.2-1.06-24.94,4.72,3.62,8.2,17.29,3.05,22.77,4.79-.77,8-12.6.4-14.94,6.49,2.16,2.72,11,1.12,24.47,1.09,5.23.59,9.23,4.58,14,6.61,3.53,6.63,16.2,17.38,31.72,28,21.62-6.77,43.61-16.82,62.51-30.08l1.26-.06c-3.55-1.2-8-4.28-10-11.42-19.37,3.07-39.45,17.73-59.09,27.48-14-7.74-23.86-18.58-23.48-37.21a27.27,27.27,0,0,0-4-5.43C868.83,634.1,863.32,628.84,861.78,629Zm107.59,36.16"/><path id="path6612-2" data-name="path6612" class="cls-7" d="M862,645.65c-3.69.89-4.82,5.62-4.11,8.92,1.1,4.4,6.87,2.69,9.37.52C876.11,650.41,868.2,647.45,862,645.65Z"/><path id="path6622" class="cls-7" d="M1102.87,557.46c.57-3.75-3.38-6.59-6.7-7.18-4.49-.65-5.1,5.34-4,8.46,1,10,6.71,3.8,10.74-1.28Z"/><path id="path6624" class="cls-7" d="M980.24,686.88c-4.39,7.06-6,18-6.24,25.12-2.75,23.27,23.48,16.51,31.91,3.59,6.3-16.82-10-39.82-25.67-28.71Z"/><path id="path2473" class="cls-13" d="M1001.4,609.45c0,3.24-1.27,5.93-2.93,6s-3-2.49-3.07-5.73v-.27c0-3.24,1.27-5.92,2.93-6s3,2.49,3.07,5.73Z"/><path id="path2475" class="cls-14" d="M999.4,611.82a1.39,1.39,0,0,1-1.29,1.93,1.76,1.76,0,0,1-1.71-1.85v-.08A1.77,1.77,0,0,1,998,609.9a1.37,1.37,0,0,1,1.37,1.84Z"/><path id="path5752-2" data-name="path5752" class="cls-6" d="M925.28,648.69c-10.87,50.14-43.47,82.55-83.71,73.83S781.43,673.15,792.3,623s47-88,87.24-79.33S936.14,598.55,925.28,648.69Z"/><path id="path5797-2" data-name="path5797" class="cls-17" d="M916.7,601.67c-1.65,8.74-23.24,11.5-48.22,6.17s-43.89-16.73-42.24-25.47l.06-.28c1.66-8.74,23.25-11.5,48.23-6.17s43.89,16.73,42.24,25.47A2.86,2.86,0,0,1,916.7,601.67Z"/><path id="path5186-2" data-name="path5186" class="cls-6" d="M924.25,511c-5.1,24-24.92,40.17-44.26,36.1s-30.86-26.84-25.75-50.85c0-.14.06-.27.08-.4,5.11-24,24.93-40.17,44.26-36.1s30.87,26.84,25.76,50.85Z"/><path id="path5697-2" data-name="path5697" class="cls-6" d="M920.7,469.73a19.52,19.52,0,0,0-11.18.89c-8.74,3.31-13.68,11.72-11,18.78s11.93,10.09,20.67,6.79,13.69-11.72,11-18.77C928.7,473.45,925.1,470.74,920.7,469.73Zm-51.38-8.33c-4.43-.9-8.8.06-11.81,3.05-5.35,5.32-4.34,15,2.26,21.65s16.27,7.7,21.62,2.39,4.33-15-2.26-21.65A19.45,19.45,0,0,0,869.32,461.4ZM886,508.31c-26.82-5.82-52.84,9.08-58.08,33.25s17.8,36,44.62,41.76,47.33,3.47,52.57-20.7S912.86,514.12,886,508.31Z"/><path id="path5704-2" data-name="path5704" class="cls-12" d="M891.55,488c-11.5-2.5-22.9,5.11-25.47,17a22.32,22.32,0,0,0,2.25,15.59c-10.36,2.2-18.42,8.67-20.37,17.66-2.92,13.49,9,27.53,26.62,31.34s34.28-4,37.2-17.51c2-9.3-3-18.86-12.13-25.16a22.28,22.28,0,0,0,8.07-12.9C910.29,502.12,903.05,490.47,891.55,488Z"/><path id="path5709-2" data-name="path5709" class="cls-13" d="M881.25,508c-.89,4.37-3.44,7.6-5.69,7.22s-3.35-4.24-2.45-8.6c0-.12,0-.24.07-.37.9-4.36,3.44-7.59,5.69-7.21s3.35,4.23,2.46,8.6C881.31,507.77,881.28,507.89,881.25,508Z"/><path id="path5713-2" data-name="path5713" class="cls-14" d="M903.47,547.32c-5.57,9.12-17.08,14.11-28.84,11.56a27.81,27.81,0,0,1-18.3-13.11,26,26,0,0,0,18.56,15.13C887,563.52,898.86,557.59,903.47,547.32Z"/><path id="path5720-2" data-name="path5720" class="cls-14" d="M875.94,532.53a2,2,0,0,1-2.43,2.18,2.25,2.25,0,0,1-1.63-3l0-.11a2.27,2.27,0,0,1,2.63-2.14,2,2,0,0,1,1.43,2.91Z"/><path id="path5722-2" data-name="path5722" class="cls-14" d="M886.82,535.33a1.67,1.67,0,0,1-2,2.28,3,3,0,0,1-2.08-3.05l0-.11a3,3,0,0,1,3.09-2,1.64,1.64,0,0,1,1,2.81Z"/><path id="path5724-2" data-name="path5724" class="cls-14" d="M877.87,510.61a2.08,2.08,0,0,1-2.47,2.18,2.2,2.2,0,0,1-1.58-2.94l0-.11a2.22,2.22,0,0,1,2.59-2.15,2.06,2.06,0,0,1,1.47,2.92Z"/><path id="path5728-2" data-name="path5728" class="cls-18" d="M920,469.86a19,19,0,0,0-7.61.16c6,5.91,10.11,14.33,11.55,23.86,5.63-4.08,8.34-10.57,6.21-16.19-1.5-4-5.09-6.67-9.5-7.69Zm-50.72-8.19c-4.43-.9-8.81.06-11.82,3.06-4.77,4.74-4.48,13,.33,19.4a44.87,44.87,0,0,1,18.71-19.22A18.8,18.8,0,0,0,869.27,461.67Z"/><path id="path5783" class="cls-6" d="M935.46,651.18c-11.37-2.46-31.13,4.49-49.89,18.53-24,18-36.12,40-29.72,50.95,12,20.5,33.23,3.78,57.24-14.2,10.2-23.7-.52,17.6,12.46,47.62-.26-.09-.53-.17-.79-.28-5-.43-10.51-2.49-15.26.17-5,3.22-3.73,12.36,2.16,13.75,4.67,1.82,9.68-1.76,14.28.29,3.86,2.4,5.52,6.91,7.35,10.84,1,3.87-3,7.5-1.1,11.32,1.18,2.78,4.34,2.56,6.62,1.58,3.54-.11,5.08,4,8.31,4.78,4.13,1.69,9.94.88,12.06-3.47,1.74-3.61.29-8.11-2.81-10.48-4.06-4.37-8.39-8.52-12.3-13-2.17-3.19-2.74-7.48-5.31-10.38,7.47-7.72,12.71-26.89,19-47.92,2.3-23.55,4.3-52.92-22.31-60.07Z"/><path id="path5767-2" data-name="path5767" class="cls-19" d="M836.31,347.27a65.87,65.87,0,0,0-7.86-1.35c-21.07-2.33-43.28,5.82-55.44,26.78l0,.07,0,.06C749.61,416,760,473.46,793,508.78c14.89,18.19,30.4,39.2,26.14,61.87l9.33,1.75c5.2-27.69-13.07-51.22-28.12-69.62l-.11-.12-.11-.13c-30.3-32.23-40-86.09-18.86-125.2,10.21-17.6,28.1-24,46.14-22s41.53,28.49,43.91,29.87l6.08,3.55c12.1-5.89-22.93-37.27-41.09-41.5Z"/><path id="path6575" class="cls-6" d="M759.58,620.79c11.59,1,28.47,13.38,42.31,32.29,17.71,24.2,22.87,48.81,13.56,57.4-17.46,16.11-32.9-6.08-50.61-30.29-2.84-25.64-4.64,17-25.82,41.91l.84,0c4.94,1,10.77.68,14.55,4.61,3.81,4.54,0,12.92-6.09,12.52-5,.38-8.74-4.5-13.73-3.89-4.39,1.18-7.3,5-10.2,8.22-2.09,3.42.69,8.06-2.25,11.14-1.94,2.32-4.9,1.21-6.79-.41-3.37-1.12-6,2.29-9.35,2.16-4.44.41-9.76-2.08-10.52-6.86a8.79,8.79,0,0,1,5.74-9.2c5.16-3,10.52-5.69,15.57-8.86,3-2.43,4.81-6.37,8.11-8.39-4.89-9.56-4.3-29.43-4.19-51.37,4.68-23.2,11.33-51.88,38.87-51Z"/><path id="path5759-2" data-name="path5759" class="cls-6" d="M671.43,422.19c14.75-3.1,36.09,4.08,39.5,13.69,3.92-4.36-7.09-14.9-1.25-19.07,1.57-3.93,15.58,19.49,16.34,24.22-15.66,64,74.81,79,107.94,121.43-17.89,17.53,3.88,37-8,18.18-35.5-15.07-104.32-85.51-110.86-109.21-5.84-4.16-10-10.72-16.87-13.07-18.06-4-13.74-3.91-33-11.25,2.91-7.93,21.09,7.4,24.5-3.08-6.83-4-30.64-1.23-33-13.34,25.56-2.44,38.89,16.76,36.75,2.52-9.52-4.23-18.7-2.17-30.17-7.7a21.75,21.75,0,0,1,8.11-3.32Z"/><path id="path6622-2" data-name="path6622" class="cls-7" d="M697.09,446.07c-1.86-4.88,2.62-9.84,6.91-11.61,5.86-2.18,8.41,5.7,7.9,10.21,1.62,13.73-7.92,7.06-14.81,1.4Z"/><path id="path6624-2" data-name="path6624" class="cls-7" d="M852,618.38c-8,8.22-13.28,22.4-15.71,32-10.48,30.48,26.76,29,41.87,14.12,13.38-20.78-1.82-56.45-26.16-46.09Z"/><path id="path2473-2" data-name="path2473" class="cls-13" d="M900,512.42c-.89,4.37-3.44,7.6-5.69,7.22s-3.35-4.23-2.46-8.6c0-.12,0-.24.08-.36.89-4.37,3.44-7.6,5.69-7.22s3.35,4.23,2.46,8.6C900.06,512.18,900,512.3,900,512.42Z"/><path id="path2475-2" data-name="path2475" class="cls-14" d="M896.63,515a1.92,1.92,0,0,1-2.3,2.21,2.42,2.42,0,0,1-1.76-3l0-.1a2.45,2.45,0,0,1,2.76-2.12,1.89,1.89,0,0,1,1.3,2.88Z"/><path id="path6575-2" data-name="path6575" class="cls-11" d="M918.33,708c8.39-1.1,22.28,5.12,35,16.42,16.31,14.46,23.76,31.14,18.47,38.68-9.92,14.13-24.3.74-40.61-13.73-6-17.77-.68,12.78-11.89,33.74l.6-.15c3.66,0,7.76-1.17,11,1,3.41,2.63,2,9.18-2.4,9.83-3.48,1-6.9-1.86-10.35-.65-2.94,1.51-4.42,4.67-6,7.41-1,2.74,1.72,5.61.11,8.25-1,2-3.3,1.62-4.89.75-2.56-.27-3.92,2.56-6.3,3-3.1,1-7.26,0-8.53-3.25a6.38,6.38,0,0,1,2.66-7.42c3.2-2.92,6.59-5.66,9.69-8.69,1.77-2.19,2.44-5.26,4.47-7.2-4.94-6-7.58-20.25-10.88-35.85-.25-17.19.06-38.59,19.76-42.16Z"/><path id="path5783-2" data-name="path5783" class="cls-11" d="M1047.94,702.55c-8.46,0-21.43,8-32.59,20.84-14.28,16.47-19.5,34-13.27,40.76,11.67,12.72,24.19-2.43,38.47-18.89,3.6-18.41,2.34,12.58,16.18,31.9-.2,0-.4,0-.6-.08-3.64.47-7.85-.15-10.82,2.47-3,3.06-.75,9.36,3.66,9.43,3.59.58,6.6-2.73,10.18-2,3.11,1.11,5,4,6.89,6.56,1.31,2.6-1,5.79,1,8.21,1.26,1.8,3.48,1.15,4.94.11,2.51-.63,4.22,2,6.64,2.11,3.19.56,7.2-.9,8-4.32a6.4,6.4,0,0,0-3.61-7c-3.56-2.48-7.27-4.76-10.74-7.36-2-1.94-3.1-4.9-5.37-6.56,4.11-6.63,4.88-21.06,6.12-37-2-17.08-5.08-38.25-25.08-39.23Z"/><path class="cls-20" d="M264,393.11c4.89.34,9.33.62,13.44.74l1.54,0,2.15.1c1.4.06,2.85.11,4.15.13,2.53,0,5.09,0,7.24-.05,8.9-.32,15.1-1.49,19.87-3.35a27.32,27.32,0,0,0,3.33-1.53A2.33,2.33,0,0,0,316,389l.12-.25c.09-.18.17-.36.26-.53s.17-.37.26-.55.23-.36.35-.53c.93-1.41,1.91-3,2.89-4.74a76.57,76.57,0,0,0,5.57-12,74.23,74.23,0,0,0-2.45,15.9c-.12,2.28-.13,4.38-.09,6.29,0,.45,0,.92.05,1.4s0,.93.06,1.36.07.83.09,1.27.07.81.12,1.19c.36,3.65,1,6.27,2.62,8.65.4.8,3.29-.32,8.06-2.21,2.41-1,5.35-2.21,8.71-3.66,3.42-1.27,7.27-2.71,11.4-4.5a321.83,321.83,0,0,0,58.61-33.6,252.15,252.15,0,0,0,29.5-24.87,237.9,237.9,0,0,0,24.2-27.88c3.49-4.69,6.59-9.27,9.37-13.66s5.23-8.61,7.36-12.49,3.94-7.45,5.44-10.53,2.61-5.65,3.46-7.64c-3.83-4.68-7.67-9.37-11.86-13.71q-3.11-3.3-6.27-6.55t-6.6-6.18a235.93,235.93,0,0,0-28.55-22.13A227,227,0,0,0,417.13,205l-5.59-2.58-5.7-2.36c-3.8-1.59-7.69-2.94-11.58-4.29s-7.86-2.51-11.81-3.69-8-2.13-12-3.12-8.07-1.81-12.13-2.63c-2-.4-4.41-.82-6.34-1.16-1.49-.27-3-.54-4.37-.76-11.41-1.87-21.47-3.08-30.21-4.1l-12-1.39-7.69-.86c-2.67-.31-5.3-.55-7.92-.78-1.59,3.7-4.13,9.76-7.12,17.55s-6.39,17.42-9.81,28.1-6.81,22.54-9.88,34.81-5.8,25-8,37.58c-4.37,25.09-6.48,49.31-5.35,67.35.57,9,1.93,16.48,4.27,21.74S259.53,392.75,264,393.11Z"/><path class="cls-20" d="M340.18,444.57c0,2.2.05,4.32.08,6.38s.05,4.16.12,6.12c.06,4.08.24,7.79.41,11.48a192.12,192.12,0,0,0,1.89,19.34c1.75,11.33,4.62,19.36,8.31,24.64,7.35,10.73,17.85,10.55,27.69,11.08,4.92.28,16.85-3.35,32-8.93s33.45-13.13,51.1-20.9,34.64-15.79,47.17-22,20.63-10.55,20.63-10.55-3.73,3.15-10.5,8.33c-3.37,2.61-7.54,5.65-12.38,9.07s-10.34,7.2-16.46,11.16c-24.43,15.94-58.39,35-95.34,51.69a171,171,0,0,0-23.24,12.38,102,102,0,0,0-8.52,6.13,65.88,65.88,0,0,0-6.64,6.19,52.22,52.22,0,0,0-5,6.21,40.44,40.44,0,0,0-3.43,6.37c-.46,1.06-.86,2.13-1.21,3.2s-.65,2.19-.92,3.09a33.85,33.85,0,0,0-1.06,5.74c-1.46,15.33,7.31,31.1,11.7,50.28s37.86,9,70.22-6,63.62-34.7,63.62-34.7c-70.86,48.88-96,76.26-103.46,91.4s2.82,18.06,2.82,18.06S495.65,662.9,578,561.31l-2.31-14.9-1-6.6-1-6.82c-1.26-9.25-2.49-19-3.76-29.17s-2.62-20.88-4.14-31.95l-1.18-8.39-1.26-8.54c-.92-5.83-1.82-11.63-2.89-17.66-2.1-12-4.5-24.36-7.58-37.27-1.58-6.45-3.23-13.05-5.06-19.48l-.67-2.43-.73-2.48-1.48-5c-1-3.31-2.13-6.73-3.2-10.09a358.86,358.86,0,0,0-17-42.47c-1.84-3.74-3.71-7.43-5.63-11.17q-3.69-6.75-7.6-13.39c-2.69-4.36-5.47-8.67-8.3-12.94s-6-8.33-9-12.41a90.23,90.23,0,0,1-4,24,126.82,126.82,0,0,1-4.66,12.7c-.91,2.12-1.87,4.24-2.9,6.34s-2.15,4.23-3.31,6.31c-2.33,4.18-4.86,8.29-7.56,12.27a59.83,59.83,0,0,1-4.28,5.77q-2.26,2.74-4.62,5.42-4.69,5.34-9.6,10.35c-3.25,3.33-6.65,6.53-10,9.59a348.13,348.13,0,0,1-36.59,29c-5,3.45-9.11,6.16-12,8l-4.5,2.84s-3.16,1.41-7.87,3.87-11,5.94-17.25,10.07c-3.13,2.06-6.26,4.25-9.19,6.53a74.5,74.5,0,0,0-8,7.19,33.66,33.66,0,0,0-5.65,7.73,19.89,19.89,0,0,0-1.56,4.13A18.53,18.53,0,0,0,340.18,444.57Z"/><path class="cls-20" d="M3.91,284.47s-2.77,8.83-6.27,22S-10.08,337.36-13,354.94C-18.89,390.09-19.69,425-.47,424.28S35.86,428,50,422.77s25.29-20.24,33.09-59.9S102.8,286,112.93,258.73s18.34-44.57,18.34-44.57-8.6,35.41-16.16,73.23-14.16,78-11.55,87.51,4.53,19.84,16.81,24.72c6.14,2.46,14.86,3.54,27.56,2.58,3.18-.25,6.6-.62,10.3-1.12,1.85-.26,3.76-.55,5.75-.87l3-.52,3-.56c8.21-1.55,17.41-3.67,27.68-6.27,6.75-1.71,11.82-6.4,15.75-12.47a61.24,61.24,0,0,0,5.1-10,99.42,99.42,0,0,0,3.65-10.89,149,149,0,0,0,4-19.7c.71-5.28.9-8.74.9-8.74s1.56-7.48,4.43-19.27,7.11-27.85,12.57-45a433.1,433.1,0,0,1,19.66-51.36c7.5-16,15.8-29.87,23.81-38.38a688.35,688.35,0,0,0-74.4-2.12c-11.84.26-23.41.75-34.71,1.38q-8.47.48-16.78,1l-16.26,1.18q-63.1,4.76-125.75,11.19c-39.71,52.86-63,108.21-76.58,150.18A524.88,524.88,0,0,0-70.72,391c-2.66,12.41-3.64,19.57-3.64,19.57s5.53,9.09,17.87-2.16c6.18-5.62,14.07-16.32,24-35.76S-10.65,325,3.91,284.47Z"/><path class="cls-20" d="M374,799.91l1.39-2.08c.46-.71.89-1.4,1.33-2.1s.89-1.45,1.31-2.17l.32-.54.15-.27c0-.09.11-.18.11-.19l.13-.37a6.2,6.2,0,0,0,.2-.77,7.33,7.33,0,0,1,.19-.82,14.55,14.55,0,0,0,.29-1.81,12,12,0,0,0,.22-2c0-.69.13-1.44.12-2.18a37.55,37.55,0,0,0-.28-4.74,37.07,37.07,0,0,0-2.93-10.51,47.73,47.73,0,0,0-7.08-11.09c6.91,6.83,13.94,10.64,21.53,11a29,29,0,0,0,12.34-2.3,73.28,73.28,0,0,0,15.51-9c11.28-8.21-15.93-46.08-49-84.51s-71.95-77.26-83.39-87.83a508.5,508.5,0,0,0-43.37,35.06A317.2,317.2,0,0,0,219.19,645c-2,2.25-4,4.7-6,7.07s-4,5-5.95,7.5-3.92,5.3-5.84,8l-3.64,5.2c2.75,2.76,7.26,7.25,13.12,12.91s13,12.58,21.1,20.05c16.16,15,36.06,32.41,56.09,47.92s40.1,29.22,55.77,38.08c7.81,4.44,14.56,7.66,19.71,9.24a17.62,17.62,0,0,0,6.51,1,6.07,6.07,0,0,0,2.28-.59A4.44,4.44,0,0,0,374,799.91Z"/><path class="cls-20" d="M457.78,730c27.84-9.26,38.61-18.15,41.38-27.2s-2.53-18-7-26.7S460.46,638.19,434,611.35s-52-51.31-52-51.31,14.46,10.23,35.74,27.6A887.17,887.17,0,0,1,494.47,658c13.69,14.19,24,23.12,32.15,28.31a42.56,42.56,0,0,0,10.65,5.15,21,21,0,0,0,4.33.81,16.31,16.31,0,0,0,2,0c.31,0,.63,0,.93-.08l.46,0,.28,0c3,.36,4.34-1.14,5-2.93a8.11,8.11,0,0,0,.17-4.38c-.64-1.81-1.18-3.33-1.64-4.61-.34-1-.59-1.82-.78-2.47-.27-.9-.5-1.69-.72-2.39-.39-1.36-.74-2.55-1-3.65-.92-3.2-1.66-5.8-2.47-8.65-1.8-6.3-4-13.58-6.64-21.24s-5.87-15.61-9.54-23.44a212.66,212.66,0,0,0-24.94-40.61c-4.05-5.19-7.66-9.34-10.28-12.22s-4.19-4.48-4.19-4.48C503,575.4,514,588.73,522,600.59A160.33,160.33,0,0,1,545,652c.69,2.62,1.16,4.79,1.59,6.64.39,1.65.74,3.17,1.07,4.57a22.57,22.57,0,0,0,.79,2.77,4.51,4.51,0,0,0,.61,1.3c.35.43.77.19,1-.42a16.31,16.31,0,0,0,1-3.61s0-1.75-.07-5-.24-8-.7-14-1.15-13.26-2.5-21.53q-.51-3.1-1.14-6.38t-1.39-6.67c-1-4.54-2.31-9.38-3.83-14.25a152.36,152.36,0,0,0-13.33-30.66q-2.26-3.88-4.87-7.81c-1.74-2.6-3.59-5.14-5.58-7.7a136.58,136.58,0,0,0-13.49-14.89,159.5,159.5,0,0,0-36-25.43,244.9,244.9,0,0,0-44.68-17.64l-6.25,3.95L413,498l-8.58,5.61-17,11.3q-17,11.36-33.69,22.91t-33.21,23.29L304,572.87l-16.51,12c2.16,1.27,4.52,2.79,7,4.53s5.12,3.77,7.89,6c5.55,4.36,11.62,9.44,17.95,15,12.66,11.05,26.36,23.85,39,36,25.23,24.34,46.12,46.14,46.12,46.14a210.78,210.78,0,0,0,19.32,21.09C435.59,723.69,448.63,733.08,457.78,730Z"/><path class="cls-20" d="M226.19,902.43s8.32,2.87,20.9,6.67,29.41,8.56,46.37,12.47c33.94,7.84,68.37,12.33,70.36.63s8.82-21.1,5.64-29.87-16.39-17-54.33-27.5c-19-5.26-37.15-11.24-53.72-17.38s-31.6-12.13-44.16-17.86C192.1,818.26,176.9,808,176.9,808l5.68,2.44c3.63,1.52,8.87,3.65,15.22,6.12s13.86,5.23,22,8.09,17,5.77,26,8.59c18,5.66,36.64,11,52,14.89s27.45,6.53,32.32,6.51a112.49,112.49,0,0,0,13.92-.51,33.53,33.53,0,0,0,6.4-1.44,21.59,21.59,0,0,0,5.55-2.91,19.59,19.59,0,0,0,7.05-11,26.41,26.41,0,0,0,.84-7.46,26.06,26.06,0,0,0-.41-3.84c-.07-.32-.13-.64-.2-1l-.23-.91c-.09-.31-.19-.65-.28-.93l-.08-.21-.13-.05-.28-.1c-.25-.28-.52-.56-.8-.86l-.88-1a25.53,25.53,0,0,0-3.43-2.71l-2.81-2.22c-1-.84-2.14-1.73-3.35-2.67-2.44-1.84-5.11-4-8-6.07s-5.9-4.3-8.86-6.45c-5.94-4.27-11.85-8.27-16.28-11.17s-7.4-4.69-7.4-4.69l-4.22-3.12c-2.69-2-6.56-4.94-11.24-8.62s-10.16-8.13-16.07-13.16-12.27-10.64-18.71-16.6c-12.9-12-26.14-25.35-37.39-38.05s-20.54-24.56-25.8-33.09c-6.62,9.63-14.23,20.87-22.1,34.77-3.93,6.95-7.93,14.58-11.83,23.2-2,4.41-4,9.27-5.83,14-.88,2.4-1.79,4.79-2.6,7.22l-2.35,7.3L150.69,766l-1.31,4.89c-.44,1.65-.8,3.2-1.19,4.79l-.57,2.38-.52,2.32c-1.39,6.19-2.52,12.09-3.46,17.66s-1.72,10.89-2.39,15.91-1.2,9.67-1.7,14.09l-1.35,12.61c-.46,4.45-.88,8.86-1.29,13.26q-1.18,13.15-2.07,26c23.17,16.77,47.71,30,71.33,41A676.08,676.08,0,0,0,272.31,947c39.55,13.38,67.28,19.37,67.28,19.37a7.4,7.4,0,0,0,3.74-2.35c1.29-1.75,1.42-4.65-3.24-9.19S326,944.12,308.2,935.69,264.2,916.65,226.19,902.43Z"/><path class="cls-20" d="M208.68,605.65l2.23-1.13c.75-.38,1.47-.77,2.2-1.17s1.49-.82,2.21-1.24l.54-.31.26-.16a.76.76,0,0,0,.19-.12l.3-.25a7.53,7.53,0,0,0,.56-.57,6.2,6.2,0,0,1,.56-.63,14.08,14.08,0,0,0,1.15-1.43,13.51,13.51,0,0,0,1.19-1.64c.36-.59.81-1.18,1.17-1.83a39.29,39.29,0,0,0,2.09-4.26,36.68,36.68,0,0,0,2.63-10.6,47.92,47.92,0,0,0-.69-13.14c2.65,9.35,6.88,16.13,13.29,20.23a29.05,29.05,0,0,0,11.87,4.07,72.66,72.66,0,0,0,18-.22c13.86-1.59,8.85-47.94-.94-97.66S242.93,390.9,238.18,376.06a510,510,0,0,0-55,9.13,314,314,0,0,0-32.82,9.4c-2.85,1-5.81,2.11-8.7,3.18s-5.93,2.39-8.88,3.6-6,2.68-9,4.05L118,408.16c1,3.75,2.74,9.88,5,17.69s5.11,17.36,8.48,27.85c6.66,21,15.4,46,25.18,69.34s20.49,45.19,29.75,60.62c4.61,7.72,8.9,13.85,12.6,17.76a17.73,17.73,0,0,0,5.17,4.08,6.42,6.42,0,0,0,2.28.61A4.52,4.52,0,0,0,208.68,605.65Z"/><path class="cls-20" d="M316,586.16c28.79,5.67,42.54,3.24,49.41-3.26s6.69-16.95,7.05-26.7-8.85-48.63-18.61-85S334,400.92,334,400.92s7.54,16,17.49,41.64a886.3,886.3,0,0,1,32.05,99c4.91,19.09,9.5,32,14,40.48a42.45,42.45,0,0,0,6.73,9.73,21.28,21.28,0,0,0,3.37,2.85,18.67,18.67,0,0,0,1.7,1l.85.4.43.17.22.18c2.42,1.78,4.33,1.15,5.78-.09a8.15,8.15,0,0,0,2.31-3.73c.33-1.89.61-3.48.84-4.82.2-1,.39-1.88.55-2.53l.55-2.44c.33-1.38.61-2.58.88-3.69.78-3.24,1.42-5.87,2.12-8.74,1.54-6.38,3.23-13.78,4.69-21.76a251.57,251.57,0,0,0,3.25-25.09,211.78,211.78,0,0,0-1.67-47.63c-1-6.51-2.08-11.91-2.93-15.7s-1.44-6-1.44-6c5.9,19.77,8.88,36.79,9.95,51a165.33,165.33,0,0,1-.91,34.88,162.48,162.48,0,0,1-4.35,21.19c-.69,2.62-1.35,4.74-1.89,6.56-.48,1.63-.91,3.13-1.32,4.5a21.92,21.92,0,0,0-.68,2.81,4.75,4.75,0,0,0-.11,1.43c.09.55.58.55,1.12.15a16.2,16.2,0,0,0,2.63-2.66s.87-1.52,2.41-4.38,3.74-7.08,6.31-12.55,5.54-12.11,8.43-20c.73-2,1.45-4,2.16-6.12s1.4-4.24,2.08-6.48c1.34-4.46,2.61-9.3,3.68-14.29A151.88,151.88,0,0,0,458.76,477c0-3-.16-6.07-.39-9.2s-.59-6.24-1.06-9.45a136.23,136.23,0,0,0-4.4-19.61,159.12,159.12,0,0,0-18.78-39.87A245.11,245.11,0,0,0,404,361.5l-7.38.35-5.12.31-10.23.65-20.41,1.43q-20.35,1.51-40.6,3.33t-40.38,3.89l-20.12,2.15-20.28,2.3c1.26,2.17,2.56,4.65,3.9,7.41s2.59,5.8,3.93,9.06c2.68,6.53,5.45,13.95,8.24,21.87,5.57,15.85,11.18,33.74,16.15,50.54,10,33.61,17.39,62.88,17.39,62.88a209.15,209.15,0,0,0,6.42,27.87C299.86,569.69,306.58,584.3,316,586.16Z"/><path class="cls-20" d="M29.55,622s5.84,6.59,14.91,16.11,21.36,21.94,34.19,33.7c25.66,23.55,53.42,44.43,60.91,35.23s18.08-14,19.63-23.21-5.88-22.86-33.71-50.7C111.57,619.2,98.7,605,87.3,591.52s-21.51-26.13-29.61-37.3C41.39,532,33.24,515.5,33.24,515.5L37,520.42c2.41,3.12,5.92,7.56,10.22,12.84s9.48,11.38,15.16,17.88,11.92,13.39,18.35,20.27C93.56,585.19,107.19,599,118.62,610s20.67,19.21,24.92,21.6A114.26,114.26,0,0,0,155.89,638a33.66,33.66,0,0,0,6.29,1.89,20.94,20.94,0,0,0,6.26.21A19.57,19.57,0,0,0,180,634.06a26.46,26.46,0,0,0,4.4-6.07,25.22,25.22,0,0,0,1.54-3.55l.3-.94c.08-.3.17-.6.25-.91s.16-.65.21-.94l0-.23-.09-.1-.18-.23c-.09-.36-.19-.74-.28-1.14s-.18-.86-.28-1.31a26.28,26.28,0,0,0-1.64-4l-1.36-3.32c-.46-1.23-1-2.56-1.59-4-1.22-2.81-2.51-6-4-9.22s-3-6.64-4.52-10c-3.07-6.65-6.24-13-8.67-17.74s-4.12-7.74-4.12-7.74l-2.13-4.79c-1.36-3.08-3.28-7.53-5.54-13.05s-4.83-12.08-7.49-19.36-5.43-15.31-8.09-23.67C131.46,485,126.54,466.83,123,450.23s-5.77-31.49-6.14-41.5c-10.5,5.11-22.67,11.14-36.37,19.35-6.84,4.11-14.08,8.78-21.73,14.36-3.92,2.84-8.06,6.08-12,9.32-1.95,1.66-3.92,3.29-5.82,5L35.32,462l-4.19,4.1-3.55,3.61c-1.2,1.22-2.28,2.39-3.4,3.58L22.51,475l-1.59,1.76c-4.27,4.7-8.16,9.28-11.72,13.66s-6.86,8.63-9.91,12.67S-6.54,511-9.14,514.55l-7.39,10.31c-2.6,3.64-5.14,7.27-7.66,10.9q-7.53,10.86-14.62,21.59c11.9,26,26.71,49.66,41.87,70.81A673.11,673.11,0,0,0,47.7,683.53c27.82,31.14,49,50,49,50a7.4,7.4,0,0,0,4.41-.19c2-.89,3.52-3.35,1.71-9.6s-7-16.29-18.31-32.4S55.62,653.11,29.55,622Z"/><path class="cls-21" d="M1978.18,542.31c41.91,1.92,64.52,2.44,72.75,15.58,5.9,9.32-29.19,17.21-50.39,16.65-13.41-.33-18.23-.29-19.18,5.55-2,12.4-50.73,16.91-110.19,7.25-13.31-2.18-19.66-1.47-30.13,2.63-33.2,13.1-88.89,10.07-137.86-3.29-15.9-4.37-23.55-3.44-34.49,1.89-104.15,51.64-296-49.77-165.35-40.45,13.55,1,16.31-1.66,15.6-4.33-2.12-8.73,15-16.95,37.44-20.54,19.54-3.11,45,.07,51.8,3.78s18.72,3.73,23.42-2,17-13.61,52.16-16.65c31-2.7,52.5,6.3,61.21,12.51,6.71,4.85,21.66,4.7,24.49-1.51s18.13-13.81,49.92-14.7c17.77-.52,53.08,4.81,48,15.58-2,3.92,9.89,5.07,18,3.52,54.62-10.62,93,3.81,80.52,13.62-1.77,1.38-1.45,2.47.69,3.28S1972.71,542.05,1978.18,542.31Z"/><path class="cls-21" d="M384.18,59.31c41.91,1.92,64.52,2.44,72.75,15.58,5.9,9.32-29.19,17.21-50.39,16.65-13.41-.33-18.23-.29-19.18,5.55-2,12.4-50.73,16.91-110.19,7.25-13.31-2.18-19.66-1.47-30.13,2.63-33.2,13.1-88.89,10.07-137.86-3.29-15.9-4.37-23.55-3.44-34.49,1.89-104.15,51.64-296-49.77-165.35-40.45,13.55,1,16.31-1.66,15.6-4.33-2.12-8.73,15-16.95,37.44-20.54,19.54-3.11,45,.07,51.8,3.78s18.72,3.73,23.42-2,17-13.61,52.16-16.65c31-2.7,52.5,6.3,61.21,12.51,6.71,4.85,21.66,4.7,24.49-1.51s18.13-13.81,49.92-14.7c17.77-.52,53.08,4.81,48,15.58-2,3.92,9.89,5.07,18,3.52,54.62-10.62,93,3.81,80.52,13.62-1.77,1.38-1.45,2.47.69,3.28S378.71,59.05,384.18,59.31Z"/><path class="cls-22" d="M1672,162.32c66.81,1.92,102.84,2.44,116,15.58,9.39,9.32-46.55,17.21-80.33,16.65-21.38-.33-29.07-.29-30.58,5.55-3.2,12.4-80.88,16.91-175.65,7.25-21.22-2.18-31.34-1.47-48,2.63-52.92,13.1-141.68,10.07-219.75-3.29-25.34-4.37-37.54-3.44-55,1.89-83,25.82-201,13.38-272.14-4.36-4.45-1.11-8.72-2.24-12.78-3.38l-3-.86-1-.41a8.36,8.36,0,0,0-1-.4c-1.5-.52-3.19-1-5-1.44-3.52-.91-7.26-1.78-10.86-2.76a106.07,106.07,0,0,1-10.29-3.32,57,57,0,0,1-8.72-4.18c-1.29-.78-2.49-1.62-3.53-2.4a31.66,31.66,0,0,1-2.54-2.41c-2.88-3.22-3.83-6.23-3.59-8.16s1.77-3,4.34-3.27a14.3,14.3,0,0,1,2.2-.21c.81-.06,1.71-.15,2.68-.16s2-.16,3.08-.21,2.31-.15,3.63-.3c5.23-.4,12-1.37,21.22-2.3,2.31-.22,4.78-.43,7.52-.5l2.05,0h2l4.06,0q8.29.13,18,.56c21.61,1,26-1.65,24.87-4.33-3.39-8.73,23.84-16.94,59.69-20.53,31.14-3.11,71.69.08,82.57,3.78,10.69,3.7,29.84,3.73,37.34-2,7.33-5.62,27-13.61,83.14-16.65,49.35-2.7,83.69,6.3,97.58,12.51,10.69,4.85,34.52,4.7,39-1.51s28.89-13.81,79.56-14.7c28.33-.52,84.63,4.81,76.56,15.58-3.19,3.92,15.76,5.07,28.72,3.52,87.07-10.62,148.24,3.81,128.36,13.62-2.82,1.38-2.31,2.47,1.1,3.28S1663.26,162.06,1672,162.32Z"/></g></svg>